<svg width="20" height="21" viewBox="0 0 20 21" fill="none" xmlns="http://www.w3.org/2000/svg">
<path d="M17.3584 6.85796L11.9 2.49129C10.8334 1.64129 9.16672 1.63296 8.10838 2.48296L2.65005 6.85796C1.86672 7.48296 1.39172 8.73296 1.55838 9.71629L2.60838 15.9996C2.85005 17.408 4.15838 18.5163 5.58338 18.5163L14.4167 18.5163C15.825 18.5163 17.1584 17.383 17.4 15.9913L18.45 9.70796C18.6 8.73296 18.125 7.48296 17.3584 6.85796ZM10.625 15.183C10.625 15.5246 10.3417 15.808 10 15.808C9.65838 15.808 9.37505 15.5246 9.37505 15.183V12.683C9.37505 12.3413 9.65838 12.058 10 12.058C10.3417 12.058 10.625 12.3413 10.625 12.683L10.625 15.183Z" fill="white"/>
</svg>
