<svg width="20" height="21" viewBox="0 0 20 21" fill="none" xmlns="http://www.w3.org/2000/svg">
<path d="M18.3333 9.76628L18.3333 4.44459C18.3333 3.78544 18.3333 3.45586 18.1715 3.116C18.0793 2.92215 17.8692 2.65847 17.7008 2.52526C17.4056 2.2917 17.1593 2.23528 16.6666 2.12244C15.9002 1.9469 15.0549 1.84961 14.1666 1.84961C12.5691 1.84961 11.1104 2.16431 9.99996 2.68294C8.88951 3.20158 7.43085 3.51628 5.83329 3.51628C4.94502 3.51628 4.0997 3.41899 3.33329 3.24345C2.53332 3.06022 1.66663 3.62389 1.66663 4.44458L1.66663 13.4213C1.66663 14.0804 1.66663 14.41 1.82839 14.7499C1.92065 14.9437 2.13076 15.2074 2.29911 15.3406C2.59429 15.5742 2.84062 15.6306 3.33329 15.7434C4.0997 15.919 4.94502 16.0163 5.83329 16.0163C7.05733 16.0163 8.19982 15.8315 9.16663 15.5119" stroke="#344054" stroke-width="1.5" stroke-linecap="round"/>
<path d="M12.0833 8.93294C12.0833 10.0835 11.1506 11.0163 9.99996 11.0163C8.84937 11.0163 7.91663 10.0835 7.91663 8.93294C7.91663 7.78235 8.84937 6.84961 9.99996 6.84961C11.1506 6.84961 12.0833 7.78235 12.0833 8.93294Z" stroke="#344054" stroke-width="1.5"/>
<path d="M4.58325 9.7666L4.58325 9.77409" stroke="#344054" stroke-width="2" stroke-linecap="round" stroke-linejoin="round"/>
<path d="M15.4166 8.09277L15.4166 8.10026" stroke="#344054" stroke-width="2" stroke-linecap="round" stroke-linejoin="round"/>
<path d="M16.1111 11.8496L16.797 12.4812C16.9464 12.6279 17.021 12.7013 16.9948 12.7637C16.9685 12.826 16.8629 12.826 16.6517 12.826L14.0647 12.826C12.7403 12.826 11.6666 13.8813 11.6666 15.1829C11.6666 15.4763 11.7212 15.7572 11.8208 16.0163M13.8888 18.5163L13.2029 17.8847C13.0535 17.7379 12.9789 17.6646 13.0051 17.6022C13.0314 17.5398 13.137 17.5398 13.3482 17.5398H15.9352C17.2596 17.5398 18.3333 16.4846 18.3333 15.1829C18.3333 14.8896 18.2788 14.6087 18.1791 14.3496" stroke="#344054" stroke-width="1.5" stroke-linecap="round" stroke-linejoin="round"/>
</svg>
