<svg width="20" height="21" viewBox="0 0 20 21" fill="none" xmlns="http://www.w3.org/2000/svg">
<path d="M16.75 7.86549C15.2416 7.86549 14.625 6.79882 15.375 5.49049C15.8083 4.73216 15.55 3.76549 14.7916 3.33216L13.35 2.50716C12.6916 2.11549 11.8416 2.34882 11.45 3.00716L11.3583 3.16549C10.6083 4.47382 9.37496 4.47382 8.61663 3.16549L8.52496 3.00716C8.14996 2.34882 7.29996 2.11549 6.64163 2.50716L5.19996 3.33216C4.44163 3.76549 4.18329 4.74049 4.61663 5.49882C5.37496 6.79882 4.75829 7.86549 3.24996 7.86549C2.38329 7.86549 1.66663 8.57382 1.66663 9.44882L1.66663 10.9155C1.66663 11.7822 2.37496 12.4988 3.24996 12.4988C4.75829 12.4988 5.37496 13.5655 4.61663 14.8738C4.18329 15.6322 4.44163 16.5988 5.19996 17.0322L6.64163 17.8572C7.29996 18.2488 8.14996 18.0155 8.54163 17.3572L8.63329 17.1988C9.38329 15.8905 10.6166 15.8905 11.375 17.1988L11.4666 17.3572C11.8583 18.0155 12.7083 18.2488 13.3666 17.8572L14.8083 17.0322C15.5666 16.5988 15.825 15.6238 15.3916 14.8738C14.6333 13.5655 15.25 12.4988 16.7583 12.4988C17.625 12.4988 18.3416 11.7905 18.3416 10.9155L18.3416 9.44882C18.3333 8.58216 17.625 7.86549 16.75 7.86549ZM9.99996 12.8905C8.50829 12.8905 7.29163 11.6738 7.29163 10.1822C7.29163 8.69049 8.50829 7.47382 9.99996 7.47382C11.4916 7.47382 12.7083 8.69049 12.7083 10.1822C12.7083 11.6738 11.4916 12.8905 9.99996 12.8905Z" stroke="#344054" stroke-width="1.5"/>
</svg>
