<svg width="20" height="21" viewBox="0 0 20 21" fill="none" xmlns="http://www.w3.org/2000/svg">
<mask id="path-1-inside-1_6700_3724" fill="white">
<path d="M10.0583 18.4997C8.88328 18.4997 7.69995 18.0497 6.80828 17.158L3.03329 13.383C2.11662 12.4663 1.63328 11.1997 1.69162 9.90801L1.89162 5.74134C1.98328 3.74967 3.55828 2.17467 5.55828 2.07467L9.72495 1.87467C11.0166 1.82467 12.2833 2.29967 13.2 3.21634L16.975 6.99134C18.7666 8.78301 18.7666 11.708 16.975 13.4997L13.3166 17.158C12.4166 18.0497 11.2416 18.4997 10.0583 18.4997ZM3.91662 12.4913L7.69162 16.2663C8.32495 16.8997 9.16662 17.2497 10.0583 17.2497C10.95 17.2497 11.7916 16.8997 12.425 16.2663L16.0833 12.608C16.7166 11.9747 17.0666 11.133 17.0666 10.2413C17.0666 9.34967 16.7166 8.50801 16.0833 7.87467L12.3083 4.09967C11.6416 3.43301 10.7166 3.07467 9.78329 3.12467L5.61662 3.32467C4.25828 3.38301 3.19995 4.44134 3.13328 5.79134L2.93328 9.95801C2.89162 10.8997 3.24995 11.8247 3.91662 12.4913Z"/>
</mask>
<path d="M10.0583 18.4997C8.88328 18.4997 7.69995 18.0497 6.80828 17.158L3.03329 13.383C2.11662 12.4663 1.63328 11.1997 1.69162 9.90801L1.89162 5.74134C1.98328 3.74967 3.55828 2.17467 5.55828 2.07467L9.72495 1.87467C11.0166 1.82467 12.2833 2.29967 13.2 3.21634L16.975 6.99134C18.7666 8.78301 18.7666 11.708 16.975 13.4997L13.3166 17.158C12.4166 18.0497 11.2416 18.4997 10.0583 18.4997ZM3.91662 12.4913L7.69162 16.2663C8.32495 16.8997 9.16662 17.2497 10.0583 17.2497C10.95 17.2497 11.7916 16.8997 12.425 16.2663L16.0833 12.608C16.7166 11.9747 17.0666 11.133 17.0666 10.2413C17.0666 9.34967 16.7166 8.50801 16.0833 7.87467L12.3083 4.09967C11.6416 3.43301 10.7166 3.07467 9.78329 3.12467L5.61662 3.32467C4.25828 3.38301 3.19995 4.44134 3.13328 5.79134L2.93328 9.95801C2.89162 10.8997 3.24995 11.8247 3.91662 12.4913Z" fill="#292D32"/>
<path d="M6.80828 17.158L5.74762 18.2187L6.80828 17.158ZM3.03329 13.383L4.09395 12.3223L3.03329 13.383ZM1.69162 9.90801L0.193337 9.83609L0.193146 9.84033L1.69162 9.90801ZM1.89162 5.74134L3.3899 5.81326L3.39003 5.81031L1.89162 5.74134ZM5.55828 2.07467L5.48637 0.576396L5.48338 0.576546L5.55828 2.07467ZM9.72495 1.87467L9.66693 0.375732L9.65303 0.376399L9.72495 1.87467ZM13.2 3.21634L14.2606 2.15568V2.15568L13.2 3.21634ZM16.975 6.99134L15.9143 8.052L16.975 6.99134ZM16.975 13.4997L15.9143 12.439L16.975 13.4997ZM13.3166 17.158L14.3723 18.2236L14.3773 18.2187L13.3166 17.158ZM3.91662 12.4913L2.85596 13.552L3.91662 12.4913ZM7.69162 16.2663L8.75228 15.2057L7.69162 16.2663ZM12.425 16.2663L13.4856 17.327L12.425 16.2663ZM16.0833 12.608L15.0226 11.5473L16.0833 12.608ZM16.0833 7.87467L15.0226 8.93533L16.0833 7.87467ZM12.3083 4.09967L13.3689 3.03901L13.3689 3.03901L12.3083 4.09967ZM9.78329 3.12467L9.8552 4.62297L9.86353 4.62253L9.78329 3.12467ZM5.61662 3.32467L5.68098 4.82331L5.68854 4.82295L5.61662 3.32467ZM3.13328 5.79134L1.63511 5.71736L1.63501 5.71942L3.13328 5.79134ZM2.93328 9.95801L1.435 9.88609L1.43475 9.8917L2.93328 9.95801ZM10.0583 16.9997C9.26223 16.9997 8.46623 16.6946 7.86895 16.0973L5.74762 18.2187C6.93367 19.4047 8.50434 19.9997 10.0583 19.9997V16.9997ZM7.86895 16.0973L4.09395 12.3223L1.97262 14.4437L5.74762 18.2187L7.86895 16.0973ZM4.09395 12.3223C3.47941 11.7078 3.1505 10.8524 3.19009 9.97568L0.193146 9.84033C0.116073 11.5469 0.75383 13.2249 1.97262 14.4437L4.09395 12.3223ZM3.18989 9.97992L3.38989 5.81326L0.393343 5.66942L0.193343 9.83609L3.18989 9.97992ZM3.39003 5.81031C3.44592 4.59593 4.39963 3.63448 5.63319 3.5728L5.48338 0.576546C2.71694 0.714868 0.520646 2.90342 0.393204 5.67238L3.39003 5.81031ZM5.6302 3.57295L9.79687 3.37295L9.65303 0.376399L5.48637 0.576399L5.6302 3.57295ZM9.78297 3.37355C10.6734 3.33908 11.5296 3.66733 12.1393 4.277L14.2606 2.15568C13.037 0.932022 11.3598 0.310266 9.66693 0.375797L9.78297 3.37355ZM12.1393 4.277L15.9143 8.052L18.0356 5.93068L14.2606 2.15568L12.1393 4.277ZM15.9143 8.052C17.1202 9.25788 17.1202 11.2331 15.9143 12.439L18.0356 14.5603C20.4131 12.1829 20.4131 8.30813 18.0356 5.93068L15.9143 8.052ZM15.9143 12.439L12.256 16.0973L14.3773 18.2187L18.0356 14.5603L15.9143 12.439ZM12.2609 16.0924C11.6514 16.6963 10.86 16.9997 10.0583 16.9997V19.9997C11.6233 19.9997 13.1818 19.4031 14.3723 18.2236L12.2609 16.0924ZM2.85596 13.552L6.63096 17.327L8.75228 15.2057L4.97728 11.4307L2.85596 13.552ZM6.63096 17.327C7.5438 18.2398 8.76626 18.7497 10.0583 18.7497V15.7497C9.56697 15.7497 9.1061 15.5595 8.75228 15.2057L6.63096 17.327ZM10.0583 18.7497C11.3503 18.7497 12.5728 18.2398 13.4856 17.327L11.3643 15.2057C11.0105 15.5595 10.5496 15.7497 10.0583 15.7497V18.7497ZM13.4856 17.327L17.1439 13.6687L15.0226 11.5473L11.3643 15.2057L13.4856 17.327ZM17.1439 13.6687C18.0568 12.7558 18.5666 11.5334 18.5666 10.2413H15.5666C15.5666 10.7327 15.3764 11.1935 15.0226 11.5473L17.1439 13.6687ZM18.5666 10.2413C18.5666 8.94932 18.0568 7.72686 17.1439 6.81401L15.0226 8.93533C15.3764 9.28916 15.5666 9.75003 15.5666 10.2413H18.5666ZM17.1439 6.81401L13.3689 3.03901L11.2476 5.16033L15.0226 8.93533L17.1439 6.81401ZM13.3689 3.03901C12.4057 2.07575 11.0677 1.55372 9.70304 1.62682L9.86353 4.62253C10.3655 4.59563 10.8776 4.79027 11.2476 5.16033L13.3689 3.03901ZM9.71137 1.6264L5.5447 1.8264L5.68854 4.82295L9.8552 4.62295L9.71137 1.6264ZM5.55226 1.82606C3.41745 1.91773 1.73988 3.59573 1.63511 5.71736L4.63146 5.86532C4.66002 5.28696 5.09912 4.84828 5.68098 4.82329L5.55226 1.82606ZM1.63501 5.71942L1.43501 9.88609L4.43156 10.0299L4.63156 5.86326L1.63501 5.71942ZM1.43475 9.8917C1.37453 11.2527 1.89091 12.5869 2.85596 13.552L4.97728 11.4307C4.609 11.0624 4.40871 10.5467 4.43182 10.0243L1.43475 9.8917Z" fill="#344054" mask="url(#path-1-inside-1_6700_3724)"/>
<mask id="path-3-inside-2_6700_3724" fill="white">
<path d="M7.91671 10.8073C6.42504 10.8073 5.20837 9.59062 5.20837 8.09896C5.20837 6.60729 6.42504 5.39062 7.91671 5.39062C9.40837 5.39062 10.625 6.60729 10.625 8.09896C10.625 9.59062 9.40837 10.8073 7.91671 10.8073ZM7.91671 6.64062C7.11671 6.64062 6.45837 7.29896 6.45837 8.09896C6.45837 8.89896 7.11671 9.55729 7.91671 9.55729C8.71671 9.55729 9.37504 8.89896 9.37504 8.09896C9.37504 7.29896 8.71671 6.64062 7.91671 6.64062Z"/>
</mask>
<path d="M7.91671 10.8073C6.42504 10.8073 5.20837 9.59062 5.20837 8.09896C5.20837 6.60729 6.42504 5.39062 7.91671 5.39062C9.40837 5.39062 10.625 6.60729 10.625 8.09896C10.625 9.59062 9.40837 10.8073 7.91671 10.8073ZM7.91671 6.64062C7.11671 6.64062 6.45837 7.29896 6.45837 8.09896C6.45837 8.89896 7.11671 9.55729 7.91671 9.55729C8.71671 9.55729 9.37504 8.89896 9.37504 8.09896C9.37504 7.29896 8.71671 6.64062 7.91671 6.64062Z" fill="#292D32"/>
<path d="M7.91671 9.30729C7.25347 9.30729 6.70837 8.7622 6.70837 8.09896H3.70837C3.70837 10.4191 5.59661 12.3073 7.91671 12.3073L7.91671 9.30729ZM6.70837 8.09896C6.70837 7.43572 7.25347 6.89062 7.91671 6.89062V3.89062C5.59661 3.89062 3.70837 5.77886 3.70837 8.09896H6.70837ZM7.91671 6.89062C8.57995 6.89062 9.12504 7.43572 9.12504 8.09896L12.125 8.09896C12.125 5.77886 10.2368 3.89062 7.91671 3.89062V6.89062ZM9.12504 8.09896C9.12504 8.7622 8.57995 9.30729 7.91671 9.30729L7.91671 12.3073C10.2368 12.3073 12.125 10.4191 12.125 8.09896L9.12504 8.09896ZM7.91671 5.14062C6.28828 5.14062 4.95837 6.47053 4.95837 8.09896H7.95837C7.95837 8.10637 7.95657 8.11482 7.95373 8.12148C7.95135 8.12707 7.9491 8.12955 7.9482 8.13045C7.9473 8.13136 7.94482 8.1336 7.93923 8.13598C7.93257 8.13882 7.92412 8.14062 7.91671 8.14062L7.91671 5.14062ZM4.95837 8.09896C4.95837 9.72739 6.28828 11.0573 7.91671 11.0573L7.91671 8.05729C7.92412 8.05729 7.93257 8.05909 7.93923 8.06193C7.94482 8.06431 7.9473 8.06656 7.9482 8.06746C7.9491 8.06837 7.95135 8.07084 7.95373 8.07643C7.95657 8.0831 7.95837 8.09155 7.95837 8.09896H4.95837ZM7.91671 11.0573C9.54513 11.0573 10.875 9.72739 10.875 8.09896L7.87504 8.09896C7.87504 8.09155 7.87684 8.0831 7.87968 8.07643C7.88206 8.07084 7.88431 8.06837 7.88521 8.06746C7.88612 8.06656 7.88859 8.06431 7.89418 8.06193C7.90085 8.05909 7.9093 8.05729 7.91671 8.05729L7.91671 11.0573ZM10.875 8.09896C10.875 6.47053 9.54513 5.14062 7.91671 5.14062L7.91671 8.14062C7.9093 8.14062 7.90085 8.13882 7.89418 8.13598C7.88859 8.1336 7.88612 8.13136 7.88521 8.13045C7.88431 8.12955 7.88206 8.12707 7.87968 8.12148C7.87684 8.11482 7.87504 8.10637 7.87504 8.09896L10.875 8.09896Z" fill="#344054" mask="url(#path-3-inside-2_6700_3724)"/>
</svg>
