<svg width="91" height="32" viewBox="0 0 91 32" fill="none" xmlns="http://www.w3.org/2000/svg">
<path d="M0.937866 3.11539C0.937866 1.39481 2.33267 0 4.05325 0H86.9653C88.6859 0 90.0807 1.39481 90.0807 3.11538V28.8846C90.0807 30.6052 88.6859 32 86.9653 32H4.05326C2.33268 32 0.937866 30.6052 0.937866 28.8846V3.11539Z" fill="#151716"/>
<path d="M24.0687 15.4185C24.0758 14.8604 24.2227 14.3132 24.4957 13.8279C24.7687 13.3426 25.1589 12.9349 25.63 12.6429C25.3307 12.2115 24.9358 11.8565 24.4769 11.606C24.0179 11.3556 23.5074 11.2166 22.9859 11.2002C21.8729 11.0818 20.7943 11.8715 20.2277 11.8715C19.6498 11.8715 18.7777 11.2115 17.8369 11.2306C17.2291 11.2503 16.6366 11.4288 16.1174 11.7485C15.5982 12.0682 15.1699 12.5183 14.8743 13.0549C13.5923 15.2934 14.5481 18.5841 15.7758 20.3943C16.3904 21.2812 17.1079 22.2703 18.0472 22.2353C18.9663 22.1975 19.3072 21.6445 20.4177 21.6445C21.517 21.6445 21.8393 22.2353 22.7976 22.2134C23.7842 22.1975 24.4047 21.3229 24.9976 20.4283C25.4394 19.7971 25.779 19.0992 26.0038 18.3605C25.4313 18.1156 24.9426 17.7062 24.5988 17.1832C24.2549 16.6602 24.0709 16.0466 24.0698 15.4188L24.0687 15.4185ZM22.2593 10.009C22.7969 9.35761 23.0618 8.52025 22.9978 7.6748C22.1765 7.76262 21.4179 8.15875 20.8723 8.78467C20.6061 9.09074 20.4021 9.44678 20.2722 9.83244C20.1422 10.2181 20.0888 10.6258 20.115 11.0323C20.5259 11.0365 20.9324 10.9465 21.3039 10.769C21.6753 10.5915 22.002 10.3311 22.2593 10.0076V10.009Z" fill="white"/>
<path d="M37.3774 22.0819H36.0933L35.3901 19.8508H32.9444L32.2742 22.0819H31.0248L33.447 14.4848H34.9439L37.3777 22.0819H37.3774ZM35.1774 18.9148L34.5418 16.9318C34.4741 16.7292 34.3477 16.252 34.1624 15.5004H34.14C34.0649 15.8236 33.9456 16.3007 33.7823 16.9318L33.1572 18.9148H35.1774ZM43.5962 19.2766C43.6401 20.0835 43.3702 20.8757 42.8441 21.4847C42.6322 21.7181 42.3734 21.9033 42.085 22.0277C41.7965 22.1521 41.4851 22.213 41.1716 22.2062C40.8677 22.2315 40.5627 22.1724 40.2897 22.0354C40.0166 21.8984 39.7858 21.6886 39.6222 21.4289V24.3023H38.4147V18.4049C38.4147 17.82 38.3999 17.22 38.3703 16.6049H39.4304L39.4997 17.4735H39.5231C39.7057 17.191 39.9512 16.9555 40.2399 16.7858C40.5286 16.616 40.8526 16.5167 41.186 16.4958C41.5195 16.4748 41.8532 16.5328 42.1605 16.6652C42.4678 16.7975 42.7403 17.0005 42.9561 17.2579C43.4036 17.8309 43.6312 18.5477 43.597 19.2766H43.5962ZM42.3678 19.3208C42.3865 18.8544 42.2618 18.3937 42.0108 18.0017C41.8942 17.8306 41.737 17.6915 41.5537 17.5972C41.3703 17.5028 41.1666 17.4562 40.9609 17.4615C40.6647 17.4612 40.378 17.5669 40.1517 17.7597C39.91 17.9589 39.7427 18.2353 39.6775 18.5434C39.6441 18.6644 39.6252 18.7889 39.6211 18.9144V19.8278C39.6113 20.1986 39.741 20.5593 39.9841 20.8374C40.1018 20.972 40.2475 21.0788 40.4109 21.1499C40.5743 21.221 40.7512 21.2547 40.929 21.2487C41.1355 21.2567 41.3407 21.2125 41.5259 21.1199C41.7111 21.0273 41.8703 20.8893 41.9891 20.7186C42.2598 20.3053 42.393 19.8157 42.3695 19.3208H42.3678ZM49.8372 19.2766C49.881 20.0835 49.6112 20.8757 49.0851 21.4847C48.8731 21.7181 48.6143 21.9033 48.3259 22.0277C48.0375 22.1521 47.7261 22.213 47.4125 22.2062C47.1085 22.2313 46.8035 22.1722 46.5303 22.0352C46.2572 21.8982 46.0262 21.6886 45.8624 21.4289V24.3023H44.6571V18.4049C44.6571 17.82 44.642 17.22 44.6119 16.6049H45.6727L45.7399 17.4735H45.7623C45.945 17.191 46.1905 16.9555 46.4793 16.7857C46.768 16.616 47.0921 16.5167 47.4256 16.4958C47.7591 16.4748 48.0928 16.5328 48.4002 16.6652C48.7076 16.7975 48.9801 17.0005 49.196 17.2579C49.6431 17.8311 49.8707 18.5478 49.8368 19.2766H49.8372ZM48.6087 19.3208C48.6272 18.8544 48.5023 18.3936 48.2511 18.0017C48.1345 17.8305 47.9773 17.6914 47.794 17.5971C47.6106 17.5027 47.4068 17.4561 47.2011 17.4615C46.9048 17.4616 46.618 17.5672 46.3912 17.7597C46.1498 17.9591 45.9826 18.2355 45.917 18.5434C45.8841 18.6645 45.8652 18.789 45.8606 18.9144V19.8278C45.8513 20.1984 45.9806 20.5588 46.2229 20.8374C46.3407 20.9719 46.4865 21.0785 46.6499 21.1496C46.8132 21.2207 46.9901 21.2545 47.1678 21.2487C47.3744 21.257 47.5797 21.2129 47.7649 21.1203C47.9501 21.0276 48.1094 20.8895 48.228 20.7186C48.4987 20.3054 48.6321 19.8157 48.6087 19.3208ZM56.8159 19.9519C56.8252 20.2483 56.7701 20.5431 56.6544 20.8157C56.5388 21.0883 56.3653 21.3319 56.1464 21.5296C55.5698 22.0029 54.8382 22.2403 54.0965 22.1949C53.4156 22.2278 52.7396 22.0635 52.1481 21.7214L52.4281 20.7073C52.955 21.0229 53.5574 21.1867 54.17 21.1808C54.5481 21.204 54.9226 21.0946 55.2301 20.8713C55.3531 20.7729 55.4515 20.6468 55.5175 20.5031C55.5835 20.3594 55.6152 20.2021 55.6102 20.0437C55.6128 19.8993 55.5862 19.7559 55.532 19.6223C55.4778 19.4886 55.3973 19.3675 55.2952 19.2664C54.993 19.001 54.6397 18.8016 54.2575 18.6809C52.9397 18.1848 52.2804 17.4596 52.2797 16.5053C52.2729 16.2131 52.3322 15.9231 52.4531 15.6576C52.5741 15.392 52.7534 15.1578 52.9776 14.9728C53.5017 14.5543 54.1584 14.3419 54.8259 14.3749C55.4157 14.3541 56.0018 14.478 56.5338 14.7361L56.2318 15.7276C55.7864 15.4901 55.2888 15.3702 54.7853 15.3788C54.4258 15.3569 54.0709 15.4692 53.7882 15.6943C53.6916 15.7802 53.6145 15.8861 53.5622 16.0049C53.51 16.1236 53.4838 16.2524 53.4854 16.3823C53.483 16.5248 53.5129 16.6661 53.573 16.7951C53.633 16.9241 53.7216 17.0375 53.8319 17.1265C54.1635 17.379 54.5328 17.5766 54.926 17.712C55.4666 17.9041 55.9557 18.2201 56.355 18.6353C56.6659 19.001 56.8297 19.4712 56.8141 19.9529L56.8159 19.9519ZM60.8117 17.5183H59.4817V20.178C59.4817 20.8538 59.7161 21.1916 60.1848 21.1914C60.3649 21.1958 60.5448 21.1766 60.72 21.1345L60.755 22.0592C60.4525 22.1587 60.1353 22.2041 59.8174 22.1935C59.6109 22.2052 59.4044 22.172 59.2118 22.0961C59.0191 22.0202 58.8449 21.9034 58.7009 21.7536C58.3926 21.3277 58.2496 20.8025 58.2988 20.2773V17.5159H57.5068V16.6025H58.2988V15.6007L59.4828 15.2403V16.6035H60.8127V17.519L60.8117 17.5183ZM66.7964 19.2989C66.826 20.0562 66.5707 20.7968 66.0817 21.372C65.8309 21.6491 65.523 21.8674 65.1797 22.0116C64.8364 22.1557 64.466 22.2223 64.0945 22.2066C63.7385 22.2224 63.3834 22.159 63.0544 22.0208C62.7253 21.8827 62.4304 21.6731 62.1906 21.407C61.7092 20.8499 61.4556 20.1289 61.4812 19.39C61.451 18.626 61.713 17.8795 62.213 17.3053C62.4634 17.0335 62.7694 16.82 63.1097 16.6797C63.45 16.5393 63.8165 16.4755 64.1838 16.4926C64.542 16.4779 64.8991 16.5418 65.2305 16.6798C65.5619 16.8179 65.8597 17.0268 66.1034 17.2922C66.5793 17.8468 66.8271 18.564 66.7961 19.2971L66.7964 19.2989ZM65.547 19.3268C65.5596 18.8741 65.4478 18.4267 65.2239 18.0342C65.1216 17.8339 64.9657 17.6667 64.7739 17.5514C64.5821 17.436 64.3621 17.3774 64.139 17.3819C63.9128 17.3754 63.6893 17.4331 63.4939 17.5484C63.2985 17.6637 63.1391 17.832 63.0337 18.0342C62.8074 18.4341 62.6953 18.8895 62.71 19.3498C62.697 19.8026 62.8091 20.2501 63.0337 20.6423C63.1405 20.8406 63.2984 21.0059 63.4908 21.1208C63.6832 21.2357 63.9028 21.2958 64.1264 21.2947C64.3499 21.2936 64.5689 21.2314 64.7602 21.1146C64.9515 20.9979 65.1079 20.831 65.2127 20.6317C65.4417 20.2365 65.557 19.7845 65.5456 19.3268H65.547ZM70.7169 17.6752C70.5915 17.6524 70.4643 17.6413 70.3369 17.642C70.1459 17.633 69.9558 17.6727 69.784 17.7575C69.6123 17.8422 69.4644 17.9692 69.3541 18.1268C69.144 18.4466 69.0388 18.825 69.0535 19.2084V22.0819H67.8474V18.33C67.8488 17.755 67.8372 17.1802 67.8124 16.6056H68.8624L68.9068 17.654H68.9397C69.0541 17.3122 69.2633 17.0108 69.5424 16.7855C69.7942 16.5957 70.0997 16.4928 70.4139 16.4919C70.5147 16.4913 70.6155 16.4989 70.7152 16.5145V17.6752H70.7169ZM76.1081 19.0847C76.111 19.2696 76.0961 19.4543 76.0637 19.6363H72.4473C72.4391 19.8694 72.4819 20.1014 72.5726 20.3159C72.6634 20.5304 72.7998 20.7221 72.9722 20.8773C73.3088 21.1429 73.7281 21.2784 74.1548 21.2596C74.6544 21.2664 75.1509 21.1787 75.6185 21.001L75.8078 21.8451C75.2307 22.0832 74.6112 22.1984 73.9879 22.1836C73.6242 22.2038 73.2604 22.1477 72.9192 22.0188C72.5781 21.89 72.2672 21.6911 72.0059 21.4349C71.7599 21.1646 71.5695 20.8477 71.4459 20.5024C71.3223 20.1572 71.268 19.7906 71.286 19.424C71.2595 18.6781 71.4972 17.9471 71.9562 17.3622C72.182 17.0757 72.4714 16.8469 72.801 16.6942C73.1306 16.5416 73.4912 16.4695 73.8535 16.4837C74.1993 16.4643 74.5442 16.5349 74.8552 16.6887C75.1662 16.8426 75.4329 17.0744 75.6297 17.3622C75.9617 17.8727 76.1289 18.4747 76.1081 19.0851V19.0847ZM74.9584 18.7692C74.9747 18.4408 74.893 18.1149 74.7239 17.8339C74.6246 17.6692 74.4827 17.5349 74.3135 17.4454C74.1444 17.3558 73.9542 17.3145 73.7636 17.3258C73.5757 17.3222 73.3899 17.3655 73.2225 17.4518C73.0552 17.5381 72.9115 17.6647 72.8043 17.8205C72.5989 18.0953 72.4751 18.4233 72.4473 18.7664H74.9584V18.7692Z" fill="white"/>
<path d="M32.5968 11.8267C32.3075 11.8286 32.0183 11.8139 31.7306 11.7829V8.11016C32.0681 8.05722 32.4092 8.03112 32.7508 8.03207C34.1332 8.03207 34.7706 8.71934 34.7706 9.8384C34.7699 11.1295 34.0177 11.8267 32.5968 11.8267ZM32.7998 8.50344C32.6399 8.50048 32.4801 8.5135 32.3228 8.54231V11.3338C32.4557 11.3479 32.5895 11.3535 32.7231 11.3504C33.6286 11.3504 34.1448 10.8299 34.1448 9.85535C34.1441 8.98575 33.6776 8.50308 32.7991 8.50308L32.7998 8.50344ZM36.7546 11.855C36.5777 11.8578 36.4021 11.8232 36.2392 11.7534C36.0763 11.6836 35.9297 11.5803 35.8087 11.4499C35.6877 11.3195 35.595 11.1651 35.5367 10.9964C35.4783 10.8277 35.4556 10.6486 35.4698 10.4705C35.4541 10.2864 35.477 10.1011 35.5372 9.92653C35.5974 9.75201 35.6934 9.59229 35.8189 9.45784C35.9445 9.3234 36.0968 9.21726 36.2658 9.14637C36.4349 9.07549 36.6168 9.04146 36.7998 9.04653C36.9766 9.04246 37.1524 9.07604 37.3155 9.14508C37.4787 9.21412 37.6256 9.31707 37.7467 9.44723C37.8678 9.57739 37.9605 9.73185 38.0186 9.90055C38.0767 10.0693 38.0989 10.2484 38.0839 10.4264C38.0991 10.6104 38.0759 10.7955 38.0157 10.9699C37.9556 11.1442 37.8599 11.3039 37.7347 11.4385C37.6096 11.5732 37.4578 11.6798 37.2893 11.7514C37.1208 11.8231 36.9392 11.8583 36.7564 11.8546L36.7546 11.855ZM36.777 9.48434C36.3486 9.48434 36.0746 9.88857 36.0746 10.4532C36.0746 11.0076 36.3546 11.4122 36.7711 11.4122C37.1876 11.4122 37.4676 10.9797 37.4676 10.4419C37.4676 9.89422 37.1932 9.48469 36.777 9.48469V9.48434ZM42.5259 9.10201L41.6919 11.7942H41.1487L40.8029 10.6253C40.7172 10.3394 40.6458 10.0486 40.5887 9.75607H40.5765C40.5273 10.0509 40.4557 10.3416 40.3623 10.6253L39.9948 11.7942H39.4457L38.6613 9.10201H39.27L39.572 10.3818C39.6434 10.6869 39.7037 10.9749 39.753 11.2458H39.7641C39.8079 11.0196 39.879 10.7366 39.9836 10.3879L40.3623 9.10272H40.8453L41.2082 10.3606C41.2953 10.6656 41.3667 10.9645 41.4224 11.2468H41.4381C41.4813 10.9481 41.5417 10.6522 41.6191 10.3606L41.9428 9.10272H42.5245L42.5259 9.10201ZM45.5967 11.7942H45.0038V10.2483C45.0038 9.77266 44.8228 9.53381 44.4666 9.53381C44.3844 9.53667 44.3036 9.55613 44.229 9.59105C44.1544 9.62596 44.0875 9.67562 44.0322 9.73709C43.9769 9.79855 43.9344 9.87058 43.9072 9.94892C43.88 10.0272 43.8686 10.1103 43.8737 10.1932V11.7945H43.2808V9.87231C43.2808 9.63415 43.2756 9.37763 43.2591 9.10237H43.7806L43.8075 9.51719H43.824C43.9111 9.37039 44.0353 9.24953 44.1837 9.16692C44.3322 9.0843 44.4997 9.04289 44.6692 9.04689C45.2292 9.04689 45.597 9.47939 45.597 10.1826V11.7945L45.5967 11.7942ZM47.2307 11.7942H46.6358V7.8667H47.2307V11.7942ZM49.3915 11.855C49.2146 11.8577 49.0391 11.8231 48.8762 11.7533C48.7133 11.6835 48.5667 11.5801 48.4457 11.4498C48.3247 11.3194 48.2321 11.165 48.1737 10.9963C48.1153 10.8277 48.0925 10.6486 48.1067 10.4705C48.091 10.2864 48.114 10.1011 48.1741 9.92653C48.2343 9.75201 48.3303 9.59229 48.4559 9.45784C48.5814 9.3234 48.7337 9.21726 48.9028 9.14637C49.0718 9.07549 49.2537 9.04146 49.4367 9.04653C49.6135 9.04246 49.7893 9.07604 49.9524 9.14508C50.1156 9.21412 50.2625 9.31707 50.3836 9.44723C50.5048 9.57739 50.5974 9.73185 50.6555 9.90055C50.7136 10.0693 50.7358 10.2484 50.7208 10.4264C50.7361 10.6104 50.713 10.7956 50.6529 10.97C50.5928 11.1444 50.4971 11.3041 50.3719 11.4388C50.2467 11.5734 50.0949 11.68 49.9264 11.7517C49.7578 11.8233 49.5762 11.8584 49.3933 11.8546L49.3915 11.855ZM49.4132 9.48434C48.9849 9.48434 48.7108 9.88857 48.7108 10.4532C48.7108 11.0076 48.9908 11.4122 49.4073 11.4122C49.8238 11.4122 50.1038 10.9797 50.1038 10.4419C50.1038 9.89422 49.8304 9.48469 49.4132 9.48469V9.48434ZM53.0552 11.7942L53.0125 11.4839H52.9967C52.9072 11.6061 52.7891 11.7039 52.653 11.7687C52.5168 11.8334 52.3669 11.8631 52.2166 11.855C52.1106 11.8608 52.0045 11.8445 51.905 11.8072C51.8055 11.7699 51.7146 11.7123 51.638 11.6381C51.5614 11.5638 51.5008 11.4745 51.4599 11.3756C51.419 11.2766 51.3986 11.1703 51.4001 11.0631C51.4001 10.3984 51.9702 10.055 52.9582 10.055V10.0055C52.9582 9.65218 52.7721 9.4755 52.4046 9.4755C52.158 9.47115 51.9156 9.54062 51.7081 9.67515L51.588 9.28151C51.8654 9.11862 52.1826 9.03792 52.5033 9.04865C53.1997 9.04865 53.5532 9.42038 53.5532 10.1624V11.1539C53.5489 11.3691 53.5616 11.5843 53.5914 11.7974H53.0562L53.0552 11.7942ZM52.974 10.4515C52.3157 10.4515 51.986 10.6129 51.986 10.9945C51.9801 11.0503 51.9864 11.1067 52.0046 11.1597C52.0228 11.2128 52.0524 11.2611 52.0912 11.3012C52.13 11.3413 52.1771 11.3723 52.2292 11.3919C52.2812 11.4116 52.3369 11.4193 52.3923 11.4147C52.5411 11.4187 52.6854 11.3636 52.7942 11.2611C52.9031 11.1586 52.9676 11.0171 52.974 10.867V10.4515ZM56.4287 11.7942L56.4017 11.3617H56.3853C56.3064 11.5199 56.1831 11.6511 56.0308 11.7391C55.8785 11.827 55.704 11.8678 55.5289 11.8564C54.8863 11.8564 54.4089 11.2861 54.4089 10.4826C54.4089 9.64052 54.9028 9.04795 55.5765 9.04795C55.723 9.03327 55.8708 9.05962 56.0034 9.12414C56.1361 9.18865 56.2486 9.28882 56.3286 9.41366H56.3405V7.86847H56.9334V11.0698C56.9334 11.3309 56.94 11.5744 56.9558 11.7959L56.4287 11.7942ZM56.3415 10.2101C56.3479 10.1225 56.3366 10.0344 56.3083 9.95134C56.28 9.86824 56.2353 9.79177 56.177 9.72656C56.1186 9.66135 56.0478 9.60875 55.9688 9.57192C55.8898 9.53509 55.8042 9.51479 55.7172 9.51225C55.2776 9.51225 55.0095 9.90517 55.0095 10.4589C55.0095 11.0013 55.2895 11.373 55.7053 11.373C55.7939 11.3693 55.8808 11.3478 55.9611 11.3097C56.0413 11.2716 56.1132 11.2176 56.1725 11.1511C56.2318 11.0845 56.2773 11.0066 56.3063 10.922C56.3353 10.8374 56.3473 10.7479 56.3415 10.6585V10.2101ZM60.6957 11.8546C60.5189 11.8573 60.3434 11.8225 60.1806 11.7527C60.0178 11.6829 59.8713 11.5795 59.7504 11.4492C59.6295 11.3188 59.5369 11.1644 59.4785 10.9958C59.4202 10.8272 59.3974 10.6482 59.4116 10.4702C59.3959 10.2861 59.4188 10.1007 59.479 9.92617C59.5392 9.75165 59.6352 9.59193 59.7607 9.45749C59.8863 9.32304 60.0386 9.2169 60.2076 9.14602C60.3766 9.07514 60.5586 9.04112 60.7416 9.04619C60.9184 9.04212 61.0941 9.07569 61.2573 9.14472C61.4205 9.21376 61.5674 9.31671 61.6885 9.44687C61.8096 9.57704 61.9023 9.7315 61.9604 9.9002C62.0184 10.0689 62.0407 10.2481 62.0257 10.426C62.0409 10.6102 62.0176 10.7956 61.9573 10.9701C61.8971 11.1447 61.8011 11.3044 61.6757 11.4391C61.5503 11.5738 61.3982 11.6803 61.2294 11.7519C61.0606 11.8234 60.8788 11.8583 60.6957 11.8543V11.8546ZM60.7174 9.48398C60.2897 9.48398 60.0157 9.88821 60.0157 10.4529C60.0157 11.0073 60.2957 11.4119 60.7122 11.4119C61.1286 11.4119 61.4086 10.9794 61.4086 10.4416C61.4086 9.89387 61.1353 9.48434 60.7174 9.48434V9.48398ZM65.2105 11.7938H64.6176V10.2479C64.6176 9.77232 64.4367 9.53345 64.0797 9.53345C63.9976 9.53641 63.9169 9.55594 63.8424 9.5909C63.7679 9.62585 63.701 9.67552 63.6458 9.73698C63.5906 9.79844 63.5482 9.87043 63.521 9.94872C63.4938 10.027 63.4824 10.11 63.4875 10.1928V11.7942H62.895V9.87196C62.895 9.6338 62.8891 9.37727 62.8726 9.10201H63.3941L63.4221 9.51685H63.4386C63.5255 9.37 63.6495 9.24908 63.7979 9.16645C63.9462 9.08382 64.1137 9.04244 64.2831 9.04653C64.843 9.04653 65.2109 9.47833 65.2109 10.1815L65.2105 11.7938ZM69.1979 9.55076H68.5455V10.8582C68.5455 11.1903 68.6596 11.3567 68.8903 11.3567C68.9786 11.3574 69.0667 11.3483 69.1531 11.3295L69.1696 11.7832C69.0215 11.8333 68.8657 11.8562 68.7097 11.8507C68.2432 11.8507 67.9635 11.5896 67.9635 10.9087V9.55147H67.5743V9.10237H67.9635V8.60768L68.5452 8.431V9.10237H69.1976V9.55147L69.1979 9.55076ZM72.3348 11.7938H71.7426V10.2592C71.7426 9.77761 71.5624 9.53416 71.2054 9.53416C71.1237 9.53198 71.0424 9.54723 70.9669 9.57891C70.8914 9.61058 70.8234 9.65797 70.7672 9.71799C70.7111 9.77801 70.6681 9.8493 70.6411 9.92722C70.6141 10.0051 70.6036 10.0879 70.6105 10.1702V11.7928H70.0183V7.8667H70.6105V9.48398H70.6223C70.7051 9.3454 70.8232 9.23173 70.9642 9.15474C71.1051 9.07776 71.264 9.04027 71.4242 9.04619C71.9883 9.04619 72.3341 9.48928 72.3341 10.1924V11.7938H72.3348ZM75.5491 10.5924H73.7705C73.7665 10.7026 73.7859 10.8124 73.8274 10.9143C73.8689 11.0163 73.9316 11.1081 74.0111 11.1836C74.0907 11.2591 74.1853 11.3166 74.2887 11.3521C74.3921 11.3876 74.5018 11.4004 74.6104 11.3896C74.8555 11.392 75.0989 11.349 75.3286 11.2627L75.421 11.6776C75.1372 11.7945 74.8325 11.851 74.5261 11.8437C74.3468 11.8576 74.1668 11.8319 73.9984 11.7684C73.83 11.7049 73.6773 11.6051 73.5509 11.476C73.4246 11.3469 73.3276 11.1916 73.2668 11.0208C73.2059 10.85 73.1827 10.6679 73.1986 10.4871C73.1986 9.66172 73.7043 9.04124 74.4585 9.04124C75.14 9.04124 75.5676 9.55112 75.5676 10.3211C75.5714 10.4118 75.5646 10.5026 75.5473 10.5917L75.5491 10.5924ZM75.0059 10.1659C75.0059 9.7504 74.7984 9.45749 74.419 9.45749C74.2424 9.4713 74.0775 9.55199 73.9574 9.68338C73.8372 9.81476 73.7707 9.98713 73.7712 10.1659H75.0059Z" fill="white"/>
</svg>
