<svg width="343" height="240" viewBox="0 0 343 240" fill="none" xmlns="http://www.w3.org/2000/svg">
<path d="M12.284 210.277C10.112 210.277 8.744 208.309 8.744 205.957V205.933C8.744 203.581 10.148 201.589 12.308 201.589C14.468 201.589 15.836 203.557 15.836 205.909V205.933C15.836 208.285 14.444 210.277 12.284 210.277ZM12.308 209.413C13.892 209.413 14.852 207.793 14.852 205.957V205.933C14.852 204.109 13.856 202.453 12.284 202.453C10.712 202.453 9.728 204.061 9.728 205.909V205.933C9.728 207.757 10.724 209.413 12.308 209.413Z" fill="#344054"/>
<path d="M48 206.133H1048" stroke="#F2F4F7"/>
<path d="M10.148 171.986V164.51L8.564 165.002L8.336 164.234L10.388 163.526H11.084V171.986H10.148ZM16.5848 172.13C14.4128 172.13 13.0448 170.162 13.0448 167.81V167.786C13.0448 165.434 14.4488 163.442 16.6088 163.442C18.7688 163.442 20.1368 165.41 20.1368 167.762V167.786C20.1368 170.138 18.7448 172.13 16.5848 172.13ZM16.6088 171.266C18.1928 171.266 19.1528 169.646 19.1528 167.81V167.786C19.1528 165.962 18.1568 164.306 16.5848 164.306C15.0128 164.306 14.0288 165.914 14.0288 167.762V167.786C14.0288 169.61 15.0248 171.266 16.6088 171.266ZM22.0669 171.986V163.586H23.0149V168.602L27.8389 163.586H29.0749L25.4629 167.258L29.2189 171.986H28.0309L24.8029 167.918L23.0149 169.73V171.986H22.0669Z" fill="#344054"/>
<path d="M48 167.986H328" stroke="#F0F2F5" stroke-dasharray="4 4"/>
<path d="M8.576 133.842V133.11L11.624 130.422C12.908 129.27 13.376 128.622 13.376 127.782C13.376 126.798 12.596 126.174 11.684 126.174C10.724 126.174 10.1 126.666 9.428 127.614L8.732 127.11C9.512 125.982 10.268 125.322 11.756 125.322C13.268 125.322 14.36 126.33 14.36 127.698V127.722C14.36 128.946 13.712 129.702 12.236 130.986L9.992 132.978H14.444V133.842H8.576ZM19.4676 133.986C17.2956 133.986 15.9276 132.018 15.9276 129.666V129.642C15.9276 127.29 17.3316 125.298 19.4916 125.298C21.6516 125.298 23.0196 127.266 23.0196 129.618V129.642C23.0196 131.994 21.6276 133.986 19.4676 133.986ZM19.4916 133.122C21.0756 133.122 22.0356 131.502 22.0356 129.666V129.642C22.0356 127.818 21.0396 126.162 19.4676 126.162C17.8956 126.162 16.9116 127.77 16.9116 129.618V129.642C16.9116 131.466 17.9076 133.122 19.4916 133.122ZM24.9497 133.842V125.442H25.8977V130.458L30.7217 125.442H31.9577L28.3457 129.114L32.1017 133.842H30.9137L27.6857 129.774L25.8977 131.586V133.842H24.9497Z" fill="#344054"/>
<path d="M48 129.842H328" stroke="#F0F2F5" stroke-dasharray="4 4"/>
<path d="M11.732 95.8393C10.328 95.8393 9.284 95.2393 8.6 94.3393L9.284 93.7273C9.944 94.5313 10.7 94.9753 11.744 94.9753C12.764 94.9753 13.58 94.3393 13.58 93.3433V93.3193C13.58 92.2753 12.608 91.6993 11.228 91.6993H10.688L10.496 91.1353L13.148 88.1473H9.044V87.2953H14.408V87.9913L11.768 90.9193C13.232 91.0513 14.54 91.7353 14.54 93.2833V93.3073C14.54 94.8073 13.292 95.8393 11.732 95.8393ZM19.6434 95.8393C17.4714 95.8393 16.1034 93.8713 16.1034 91.5193V91.4953C16.1034 89.1433 17.5074 87.1513 19.6674 87.1513C21.8274 87.1513 23.1954 89.1193 23.1954 91.4713V91.4953C23.1954 93.8473 21.8034 95.8393 19.6434 95.8393ZM19.6674 94.9753C21.2514 94.9753 22.2114 93.3553 22.2114 91.5193V91.4953C22.2114 89.6713 21.2154 88.0153 19.6434 88.0153C18.0714 88.0153 17.0874 89.6233 17.0874 91.4713V91.4953C17.0874 93.3193 18.0834 94.9753 19.6674 94.9753ZM25.1255 95.6953V87.2953H26.0735V92.3113L30.8975 87.2953H32.1335L28.5215 90.9673L32.2775 95.6953H31.0895L27.8615 91.6273L26.0735 93.4393V95.6953H25.1255Z" fill="#344054"/>
<path d="M48 91.6953H328" stroke="#F0F2F5" stroke-dasharray="4 4"/>
<path d="M13.184 57.5498V55.5578H8.756L8.516 54.8738L13.268 49.0898H14.096V54.7658H15.404V55.5578H14.096V57.5498H13.184ZM9.656 54.7658H13.184V50.4338L9.656 54.7658ZM20.3348 57.6938C18.1628 57.6938 16.7948 55.7258 16.7948 53.3738V53.3498C16.7948 50.9978 18.1988 49.0058 20.3588 49.0058C22.5188 49.0058 23.8868 50.9738 23.8868 53.3258V53.3498C23.8868 55.7018 22.4948 57.6938 20.3348 57.6938ZM20.3588 56.8298C21.9428 56.8298 22.9028 55.2098 22.9028 53.3738V53.3498C22.9028 51.5258 21.9068 49.8698 20.3348 49.8698C18.7628 49.8698 17.7788 51.4778 17.7788 53.3258V53.3498C17.7788 55.1738 18.7748 56.8298 20.3588 56.8298ZM25.8169 57.5498V49.1498H26.7649V54.1658L31.5889 49.1498H32.8249L29.2129 52.8218L32.9689 57.5498H31.7809L28.5529 53.4818L26.7649 55.2938V57.5498H25.8169Z" fill="#344054"/>
<path d="M48 53.5498H328" stroke="#F0F2F5" stroke-dasharray="4 4"/>
<path d="M11.636 19.9448C10.436 19.9448 9.404 19.3808 8.636 18.6128L9.26 17.9288C9.992 18.6488 10.784 19.0808 11.648 19.0808C12.848 19.0808 13.676 18.2888 13.676 17.2208V17.1968C13.676 16.1408 12.8 15.4328 11.588 15.4328C10.868 15.4328 10.316 15.6368 9.824 15.9128L9.188 15.4928L9.428 11.4008H14.264V12.2768H10.256L10.076 14.9648C10.568 14.7368 11.024 14.5928 11.732 14.5928C13.364 14.5928 14.636 15.5648 14.636 17.1608V17.1848C14.636 18.8288 13.4 19.9448 11.636 19.9448ZM19.6317 19.9448C17.4597 19.9448 16.0917 17.9768 16.0917 15.6248V15.6008C16.0917 13.2488 17.4957 11.2568 19.6557 11.2568C21.8157 11.2568 23.1837 13.2248 23.1837 15.5768V15.6008C23.1837 17.9528 21.7917 19.9448 19.6317 19.9448ZM19.6557 19.0808C21.2397 19.0808 22.1997 17.4608 22.1997 15.6248V15.6008C22.1997 13.7768 21.2037 12.1208 19.6317 12.1208C18.0597 12.1208 17.0757 13.7288 17.0757 15.5768V15.6008C17.0757 17.4248 18.0717 19.0808 19.6557 19.0808ZM25.1138 19.8008V11.4008H26.0618V16.4168L30.8858 11.4008H32.1218L28.5098 15.0728L32.2658 19.8008H31.0778L27.8498 15.7328L26.0618 17.5448V19.8008H25.1138Z" fill="#344054"/>
<path d="M48 15.8008H328" stroke="#F0F2F5" stroke-dasharray="4 4"/>
<path d="M48.5 161C48.5 159.895 49.3954 159 50.5 159H56.5C57.6046 159 58.5 159.895 58.5 161V206H48.5V161Z" fill="#D0D5DD"/>
<path d="M62.5 168C62.5 166.895 63.3954 166 64.5 166H70.5C71.6046 166 72.5 166.895 72.5 168V206H62.5V168Z" fill="#F2F4F7"/>
<path d="M53.3131 216.976L50.6611 220.936H50.6131L47.9851 217V223H46.5331V214.6H48.1051L50.6611 218.572L53.2171 214.6H54.7891V223H53.3131V216.976ZM65.3631 218.788C65.3631 219.38 65.2551 219.94 65.0391 220.468C64.8231 220.996 64.5191 221.46 64.1271 221.86C63.7351 222.252 63.2711 222.564 62.7351 222.796C62.1991 223.028 61.6071 223.144 60.9591 223.144C60.3111 223.144 59.7191 223.032 59.1831 222.808C58.6471 222.576 58.1871 222.264 57.8031 221.872C57.4191 221.48 57.1191 221.02 56.9031 220.492C56.6871 219.964 56.5791 219.404 56.5791 218.812C56.5791 218.22 56.6871 217.66 56.9031 217.132C57.1191 216.604 57.4231 216.144 57.8151 215.752C58.2071 215.352 58.6711 215.036 59.2071 214.804C59.7431 214.572 60.3351 214.456 60.9831 214.456C61.6311 214.456 62.2231 214.572 62.7591 214.804C63.2951 215.028 63.7551 215.336 64.1391 215.728C64.5231 216.12 64.8231 216.58 65.0391 217.108C65.2551 217.636 65.3631 218.196 65.3631 218.788ZM63.8151 218.812C63.8151 218.404 63.7431 218.02 63.5991 217.66C63.4631 217.292 63.2671 216.972 63.0111 216.7C62.7631 216.428 62.4631 216.212 62.1111 216.052C61.7591 215.892 61.3751 215.812 60.9591 215.812C60.5431 215.812 60.1591 215.892 59.8071 216.052C59.4631 216.204 59.1671 216.416 58.9191 216.688C58.6711 216.952 58.4751 217.268 58.3311 217.636C58.1951 217.996 58.1271 218.38 58.1271 218.788C58.1271 219.196 58.1951 219.584 58.3311 219.952C58.4751 220.312 58.6711 220.628 58.9191 220.9C59.1751 221.172 59.4791 221.388 59.8311 221.548C60.1831 221.708 60.5671 221.788 60.9831 221.788C61.3991 221.788 61.7791 221.712 62.1231 221.56C62.4751 221.4 62.7751 221.188 63.0231 220.924C63.2711 220.652 63.4631 220.336 63.5991 219.976C63.7431 219.608 63.8151 219.22 63.8151 218.812ZM73.0144 220.408V214.6H74.4664V223H73.2304L68.5984 217.024V223H67.1464V214.6H68.5144L73.0144 220.408Z" fill="#98A2B3"/>
<path d="M91.5 158C91.5 156.895 92.3954 156 93.5 156H99.5C100.605 156 101.5 156.895 101.5 158V206H91.5V158Z" fill="#D0D5DD"/>
<path d="M105.5 168C105.5 166.895 106.395 166 107.5 166H113.5C114.605 166 115.5 166.895 115.5 168V206H105.5V168Z" fill="#F2F4F7"/>
<path d="M95.6808 215.968V223H94.1928V215.968H91.5288V214.6H98.3448V215.968H95.6808ZM106.966 214.6V219.364C106.966 219.988 106.878 220.536 106.702 221.008C106.534 221.48 106.294 221.876 105.982 222.196C105.67 222.508 105.29 222.744 104.842 222.904C104.402 223.056 103.906 223.132 103.354 223.132C102.81 223.132 102.318 223.056 101.878 222.904C101.438 222.744 101.062 222.508 100.75 222.196C100.438 221.884 100.198 221.5 100.03 221.044C99.8621 220.58 99.7781 220.044 99.7781 219.436V214.6H101.254V219.376C101.254 220.16 101.442 220.756 101.818 221.164C102.194 221.572 102.714 221.776 103.378 221.776C104.034 221.776 104.55 221.58 104.926 221.188C105.302 220.796 105.49 220.212 105.49 219.436V214.6H106.966ZM115.22 214.6V215.92H110.468V218.104H114.68V219.424H110.468V221.68H115.28V223H108.992V214.6H115.22Z" fill="#98A2B3"/>
<path d="M134.5 125C134.5 123.895 135.395 123 136.5 123H142.5C143.605 123 144.5 123.895 144.5 125V206H134.5V125Z" fill="#D0D5DD"/>
<path d="M148.5 168C148.5 166.895 149.395 166 150.5 166H156.5C157.605 166 158.5 166.895 158.5 168V206H148.5V168Z" fill="#F2F4F7"/>
<path d="M135.122 220.828L137.186 214.576H138.434L140.498 220.828L142.502 214.6H144.05L141.122 223.06H139.85L137.786 217.024L135.722 223.06H134.45L131.522 214.6H133.118L135.122 220.828ZM151.792 214.6V215.92H147.04V218.104H151.252V219.424H147.04V221.68H151.852V223H145.564V214.6H151.792ZM161.199 218.788C161.199 219.38 161.091 219.936 160.875 220.456C160.659 220.968 160.351 221.412 159.951 221.788C159.559 222.164 159.087 222.46 158.535 222.676C157.991 222.892 157.391 223 156.735 223H153.603V214.6H156.735C157.391 214.6 157.991 214.708 158.535 214.924C159.087 215.132 159.559 215.424 159.951 215.8C160.351 216.176 160.659 216.62 160.875 217.132C161.091 217.644 161.199 218.196 161.199 218.788ZM159.651 218.812C159.651 218.396 159.579 218.016 159.435 217.672C159.299 217.32 159.103 217.016 158.847 216.76C158.599 216.504 158.295 216.304 157.935 216.16C157.575 216.016 157.175 215.944 156.735 215.944H155.079V221.656H156.735C157.175 221.656 157.575 221.588 157.935 221.452C158.295 221.308 158.599 221.112 158.847 220.864C159.103 220.608 159.299 220.308 159.435 219.964C159.579 219.612 159.651 219.228 159.651 218.812Z" fill="#98A2B3"/>
<path d="M177.5 109C177.5 107.895 178.395 107 179.5 107H185.5C186.605 107 187.5 107.895 187.5 109V206H177.5V109Z" fill="#027A48"/>
<path d="M191.5 168C191.5 166.895 192.395 166 193.5 166H199.5C200.605 166 201.5 166.895 201.5 168V206H191.5V168Z" fill="#A6F4C5"/>
<path d="M181.142 215.968V223H179.654V215.968H176.99V214.6H183.806V215.968H181.142ZM190.855 219.46H186.847V223H185.371V214.6H186.847V218.092H190.855V214.6H192.331V223H190.855V219.46ZM201.544 214.6V219.364C201.544 219.988 201.456 220.536 201.28 221.008C201.112 221.48 200.872 221.876 200.56 222.196C200.248 222.508 199.868 222.744 199.42 222.904C198.98 223.056 198.484 223.132 197.932 223.132C197.388 223.132 196.896 223.056 196.456 222.904C196.016 222.744 195.64 222.508 195.328 222.196C195.016 221.884 194.776 221.5 194.608 221.044C194.44 220.58 194.356 220.044 194.356 219.436V214.6H195.832V219.376C195.832 220.16 196.02 220.756 196.396 221.164C196.772 221.572 197.292 221.776 197.956 221.776C198.612 221.776 199.128 221.58 199.504 221.188C199.88 220.796 200.068 220.212 200.068 219.436V214.6H201.544Z" fill="#344054"/>
<path d="M220.5 180C220.5 178.895 221.395 178 222.5 178H228.5C229.605 178 230.5 178.895 230.5 180V206H220.5V180Z" fill="#D0D5DD"/>
<path d="M234.5 168C234.5 166.895 235.395 166 236.5 166H242.5C243.605 166 244.5 166.895 244.5 168V206H234.5V168Z" fill="#F2F4F7"/>
<path d="M229.654 214.6V215.944H224.878V218.236H229.114V219.58H224.878V223H223.402V214.6H229.654ZM238.405 223H236.665L234.601 220.072H232.753V223H231.277V214.6H235.021C235.501 214.6 235.933 214.664 236.317 214.792C236.709 214.912 237.037 215.088 237.301 215.32C237.573 215.544 237.781 215.824 237.925 216.16C238.069 216.488 238.141 216.856 238.141 217.264C238.141 217.616 238.089 217.932 237.985 218.212C237.889 218.484 237.753 218.728 237.577 218.944C237.401 219.152 237.189 219.332 236.941 219.484C236.701 219.628 236.433 219.74 236.137 219.82L238.405 223ZM236.641 217.348C236.641 216.884 236.489 216.536 236.185 216.304C235.881 216.064 235.453 215.944 234.901 215.944H232.753V218.764H234.913C235.441 218.764 235.861 218.636 236.173 218.38C236.485 218.124 236.641 217.78 236.641 217.348ZM240.033 214.6H241.509V223H240.033V214.6Z" fill="#98A2B3"/>
<path d="M263.5 168C263.5 166.895 264.395 166 265.5 166H271.5C272.605 166 273.5 166.895 273.5 168V206H263.5V168Z" fill="#D0D5DD"/>
<path d="M277.5 168C277.5 166.895 278.395 166 279.5 166H285.5C286.605 166 287.5 166.895 287.5 168V206H277.5V168Z" fill="#F2F4F7"/>
<path d="M265.986 216.796C265.986 216.964 266.014 217.108 266.07 217.228C266.126 217.348 266.226 217.46 266.37 217.564C266.522 217.668 266.726 217.764 266.982 217.852C267.246 217.94 267.578 218.032 267.978 218.128C268.418 218.24 268.806 218.364 269.142 218.5C269.486 218.636 269.77 218.804 269.994 219.004C270.218 219.196 270.386 219.424 270.498 219.688C270.618 219.944 270.678 220.248 270.678 220.6C270.678 221 270.602 221.356 270.45 221.668C270.306 221.98 270.102 222.244 269.838 222.46C269.574 222.676 269.258 222.84 268.89 222.952C268.522 223.064 268.118 223.12 267.678 223.12C267.03 223.12 266.41 223.012 265.818 222.796C265.226 222.572 264.678 222.232 264.174 221.776L265.062 220.72C265.47 221.072 265.882 221.344 266.298 221.536C266.714 221.72 267.186 221.812 267.714 221.812C268.17 221.812 268.53 221.716 268.794 221.524C269.066 221.332 269.202 221.072 269.202 220.744C269.202 220.592 269.174 220.456 269.118 220.336C269.07 220.216 268.974 220.108 268.83 220.012C268.694 219.908 268.502 219.812 268.254 219.724C268.014 219.636 267.698 219.544 267.306 219.448C266.858 219.344 266.458 219.228 266.106 219.1C265.762 218.972 265.47 218.812 265.23 218.62C264.998 218.428 264.818 218.196 264.69 217.924C264.57 217.652 264.51 217.32 264.51 216.928C264.51 216.56 264.582 216.228 264.726 215.932C264.87 215.628 265.066 215.368 265.314 215.152C265.57 214.936 265.874 214.772 266.226 214.66C266.578 214.54 266.962 214.48 267.378 214.48C267.994 214.48 268.546 214.572 269.034 214.756C269.53 214.932 269.994 215.192 270.426 215.536L269.634 216.652C269.25 216.372 268.87 216.16 268.494 216.016C268.118 215.864 267.738 215.788 267.354 215.788C266.922 215.788 266.586 215.888 266.346 216.088C266.106 216.28 265.986 216.516 265.986 216.796ZM276.582 214.54L280.278 223H278.718L277.866 220.972H273.894L273.03 223H271.518L275.214 214.54H276.582ZM277.326 219.664L275.874 216.304L274.434 219.664H277.326ZM284.193 215.968V223H282.705V215.968H280.041V214.6H286.857V215.968H284.193Z" fill="#98A2B3"/>
<path d="M306.5 159C306.5 157.895 307.395 157 308.5 157H314.5C315.605 157 316.5 157.895 316.5 159V206H306.5V159Z" fill="#D0D5DD"/>
<path d="M320.5 168C320.5 166.895 321.395 166 322.5 166H328.5C329.605 166 330.5 166.895 330.5 168V206H320.5V168Z" fill="#F2F4F7"/>
<path d="M307.709 216.796C307.709 216.964 307.737 217.108 307.793 217.228C307.849 217.348 307.949 217.46 308.093 217.564C308.245 217.668 308.449 217.764 308.705 217.852C308.969 217.94 309.301 218.032 309.701 218.128C310.141 218.24 310.529 218.364 310.865 218.5C311.209 218.636 311.493 218.804 311.717 219.004C311.941 219.196 312.109 219.424 312.221 219.688C312.341 219.944 312.401 220.248 312.401 220.6C312.401 221 312.325 221.356 312.173 221.668C312.029 221.98 311.825 222.244 311.561 222.46C311.297 222.676 310.981 222.84 310.613 222.952C310.245 223.064 309.841 223.12 309.401 223.12C308.753 223.12 308.133 223.012 307.541 222.796C306.949 222.572 306.401 222.232 305.897 221.776L306.785 220.72C307.193 221.072 307.605 221.344 308.021 221.536C308.437 221.72 308.909 221.812 309.437 221.812C309.893 221.812 310.253 221.716 310.517 221.524C310.789 221.332 310.925 221.072 310.925 220.744C310.925 220.592 310.897 220.456 310.841 220.336C310.793 220.216 310.697 220.108 310.553 220.012C310.417 219.908 310.225 219.812 309.977 219.724C309.737 219.636 309.421 219.544 309.029 219.448C308.581 219.344 308.181 219.228 307.829 219.1C307.485 218.972 307.193 218.812 306.953 218.62C306.721 218.428 306.541 218.196 306.413 217.924C306.293 217.652 306.233 217.32 306.233 216.928C306.233 216.56 306.305 216.228 306.449 215.932C306.593 215.628 306.789 215.368 307.037 215.152C307.293 214.936 307.597 214.772 307.949 214.66C308.301 214.54 308.685 214.48 309.101 214.48C309.717 214.48 310.269 214.572 310.757 214.756C311.253 214.932 311.717 215.192 312.149 215.536L311.357 216.652C310.973 216.372 310.593 216.16 310.217 216.016C309.841 215.864 309.461 215.788 309.077 215.788C308.645 215.788 308.309 215.888 308.069 216.088C307.829 216.28 307.709 216.516 307.709 216.796ZM321.193 214.6V219.364C321.193 219.988 321.105 220.536 320.929 221.008C320.761 221.48 320.521 221.876 320.209 222.196C319.897 222.508 319.517 222.744 319.069 222.904C318.629 223.056 318.133 223.132 317.581 223.132C317.037 223.132 316.545 223.056 316.105 222.904C315.665 222.744 315.289 222.508 314.977 222.196C314.665 221.884 314.425 221.5 314.257 221.044C314.089 220.58 314.005 220.044 314.005 219.436V214.6H315.481V219.376C315.481 220.16 315.669 220.756 316.045 221.164C316.421 221.572 316.941 221.776 317.605 221.776C318.261 221.776 318.777 221.58 319.153 221.188C319.529 220.796 319.717 220.212 319.717 219.436V214.6H321.193ZM329.087 220.408V214.6H330.539V223H329.303L324.671 217.024V223H323.219V214.6H324.587L329.087 220.408Z" fill="#98A2B3"/>
<g filter="url(#filter0_dd_5356_8866)">
<rect x="140" y="34" width="85" height="66" rx="8" fill="white"/>
<path d="M152.468 58L156.296 49.54H157.184L161.012 58H159.992L159.008 55.78H154.436L153.44 58H152.468ZM154.808 54.928H158.636L156.728 50.644L154.808 54.928ZM164.675 58.132C163.187 58.132 162.299 57.124 162.299 55.648V51.796H163.223V55.42C163.223 56.572 163.835 57.292 164.939 57.292C165.995 57.292 166.799 56.512 166.799 55.348V51.796H167.711V58H166.799V56.92C166.379 57.592 165.743 58.132 164.675 58.132ZM172.538 59.944C171.494 59.944 170.546 59.656 169.718 59.08L170.138 58.36C170.858 58.876 171.626 59.152 172.526 59.152C173.906 59.152 174.782 58.396 174.782 56.944V56.212C174.242 56.932 173.486 57.52 172.346 57.52C170.858 57.52 169.43 56.392 169.43 54.616V54.592C169.43 52.78 170.858 51.664 172.346 51.664C173.51 51.664 174.254 52.24 174.77 52.912V51.796H175.694V56.92C175.694 57.88 175.418 58.6 174.902 59.116C174.338 59.68 173.534 59.944 172.538 59.944ZM172.526 56.704C173.702 56.704 174.806 55.852 174.806 54.604V54.58C174.806 53.308 173.702 52.48 172.526 52.48C171.338 52.48 170.378 53.296 170.378 54.568V54.592C170.378 55.84 171.374 56.704 172.526 56.704ZM180.9 58V57.268L183.948 54.58C185.232 53.428 185.7 52.78 185.7 51.94C185.7 50.956 184.92 50.332 184.008 50.332C183.048 50.332 182.424 50.824 181.752 51.772L181.056 51.268C181.836 50.14 182.592 49.48 184.08 49.48C185.592 49.48 186.684 50.488 186.684 51.856V51.88C186.684 53.104 186.036 53.86 184.56 55.144L182.316 57.136H186.768V58H180.9ZM191.792 58.144C189.62 58.144 188.252 56.176 188.252 53.824V53.8C188.252 51.448 189.656 49.456 191.816 49.456C193.976 49.456 195.344 51.424 195.344 53.776V53.8C195.344 56.152 193.952 58.144 191.792 58.144ZM191.816 57.28C193.4 57.28 194.36 55.66 194.36 53.824V53.8C194.36 51.976 193.364 50.32 191.792 50.32C190.22 50.32 189.236 51.928 189.236 53.776V53.8C189.236 55.624 190.232 57.28 191.816 57.28ZM196.545 58V57.268L199.593 54.58C200.877 53.428 201.345 52.78 201.345 51.94C201.345 50.956 200.565 50.332 199.653 50.332C198.693 50.332 198.069 50.824 197.397 51.772L196.701 51.268C197.481 50.14 198.237 49.48 199.725 49.48C201.237 49.48 202.329 50.488 202.329 51.856V51.88C202.329 53.104 201.681 53.86 200.205 55.144L197.961 57.136H202.413V58H196.545ZM208.02 58V56.008H203.592L203.352 55.324L208.104 49.54H208.932V55.216H210.24V56.008H208.932V58H208.02ZM204.492 55.216H208.02V50.884L204.492 55.216Z" fill="#667085"/>
<path d="M153.232 82V78.402H152.14V77.506H153.232V76.358H152.14V75.462H153.232V72.004H154.688L156.018 75.462H157.67V72.004H158.776V75.462H159.868V76.358H158.776V77.506H159.868V78.402H158.776V82H157.306L155.976 78.402H154.324V82H153.232ZM154.324 77.506H155.64L155.22 76.358H154.296L154.324 77.506ZM157.67 80.026H157.726L157.684 78.402H157.096L157.67 80.026ZM154.296 75.462H154.884L154.296 73.726H154.24L154.296 75.462ZM156.76 77.506H157.698L157.67 76.358H156.34L156.76 77.506ZM168.398 76.82C168.398 77.6133 168.3 78.3367 168.104 78.99C167.917 79.6433 167.642 80.208 167.278 80.684C166.923 81.1507 166.484 81.5147 165.962 81.776C165.439 82.0373 164.851 82.168 164.198 82.168C163.516 82.168 162.928 82.0607 162.434 81.846C161.939 81.622 161.482 81.3373 161.062 80.992L162 79.676C162.373 79.9933 162.732 80.2267 163.078 80.376C163.432 80.5253 163.82 80.6 164.24 80.6C164.604 80.6 164.926 80.5253 165.206 80.376C165.495 80.2267 165.738 80.0167 165.934 79.746C166.139 79.466 166.298 79.1393 166.41 78.766C166.522 78.3833 166.587 77.968 166.606 77.52C166.363 77.8187 166.05 78.066 165.668 78.262C165.294 78.458 164.842 78.556 164.31 78.556C163.787 78.556 163.311 78.486 162.882 78.346C162.462 78.1967 162.098 77.9867 161.79 77.716C161.491 77.436 161.258 77.1047 161.09 76.722C160.922 76.3393 160.838 75.91 160.838 75.434C160.838 74.9487 160.926 74.5007 161.104 74.09C161.281 73.67 161.528 73.3107 161.846 73.012C162.172 72.704 162.56 72.466 163.008 72.298C163.456 72.1207 163.95 72.032 164.492 72.032C165.108 72.032 165.626 72.1207 166.046 72.298C166.475 72.466 166.862 72.7227 167.208 73.068C167.572 73.432 167.861 73.908 168.076 74.496C168.29 75.0747 168.398 75.8493 168.398 76.82ZM166.55 75.336C166.55 75.0747 166.498 74.8367 166.396 74.622C166.302 74.398 166.167 74.2067 165.99 74.048C165.812 73.88 165.598 73.7493 165.346 73.656C165.094 73.5627 164.814 73.516 164.506 73.516C163.89 73.516 163.409 73.6933 163.064 74.048C162.728 74.4027 162.56 74.8367 162.56 75.35C162.56 75.8727 162.737 76.2973 163.092 76.624C163.456 76.9507 163.946 77.114 164.562 77.114C164.87 77.114 165.145 77.0673 165.388 76.974C165.64 76.8807 165.85 76.7547 166.018 76.596C166.195 76.428 166.326 76.2367 166.41 76.022C166.503 75.8073 166.55 75.5787 166.55 75.336ZM177.585 76.82C177.585 77.6133 177.487 78.3367 177.291 78.99C177.105 79.6433 176.829 80.208 176.465 80.684C176.111 81.1507 175.672 81.5147 175.149 81.776C174.627 82.0373 174.039 82.168 173.385 82.168C172.704 82.168 172.116 82.0607 171.621 81.846C171.127 81.622 170.669 81.3373 170.249 80.992L171.187 79.676C171.561 79.9933 171.92 80.2267 172.265 80.376C172.62 80.5253 173.007 80.6 173.427 80.6C173.791 80.6 174.113 80.5253 174.393 80.376C174.683 80.2267 174.925 80.0167 175.121 79.746C175.327 79.466 175.485 79.1393 175.597 78.766C175.709 78.3833 175.775 77.968 175.793 77.52C175.551 77.8187 175.238 78.066 174.855 78.262C174.482 78.458 174.029 78.556 173.497 78.556C172.975 78.556 172.499 78.486 172.069 78.346C171.649 78.1967 171.285 77.9867 170.977 77.716C170.679 77.436 170.445 77.1047 170.277 76.722C170.109 76.3393 170.025 75.91 170.025 75.434C170.025 74.9487 170.114 74.5007 170.291 74.09C170.469 73.67 170.716 73.3107 171.033 73.012C171.36 72.704 171.747 72.466 172.195 72.298C172.643 72.1207 173.138 72.032 173.679 72.032C174.295 72.032 174.813 72.1207 175.233 72.298C175.663 72.466 176.05 72.7227 176.395 73.068C176.759 73.432 177.049 73.908 177.263 74.496C177.478 75.0747 177.585 75.8493 177.585 76.82ZM175.737 75.336C175.737 75.0747 175.686 74.8367 175.583 74.622C175.49 74.398 175.355 74.2067 175.177 74.048C175 73.88 174.785 73.7493 174.533 73.656C174.281 73.5627 174.001 73.516 173.693 73.516C173.077 73.516 172.597 73.6933 172.251 74.048C171.915 74.4027 171.747 74.8367 171.747 75.35C171.747 75.8727 171.925 76.2973 172.279 76.624C172.643 76.9507 173.133 77.114 173.749 77.114C174.057 77.114 174.333 77.0673 174.575 76.974C174.827 76.8807 175.037 76.7547 175.205 76.596C175.383 76.428 175.513 76.2367 175.597 76.022C175.691 75.8073 175.737 75.5787 175.737 75.336ZM178.726 83.316C179.585 83.148 179.981 82.7093 179.916 82H179.202V80.082H181.064V81.706C181.064 82.49 180.882 83.0593 180.518 83.414C180.154 83.7687 179.617 83.974 178.908 84.03L178.726 83.316ZM191.074 77.086C191.074 77.786 190.972 78.4487 190.766 79.074C190.561 79.69 190.272 80.2267 189.898 80.684C189.525 81.1413 189.072 81.5053 188.54 81.776C188.018 82.0373 187.434 82.168 186.79 82.168C186.146 82.168 185.563 82.0373 185.04 81.776C184.518 81.5147 184.07 81.1553 183.696 80.698C183.323 80.2407 183.034 79.704 182.828 79.088C182.632 78.472 182.534 77.814 182.534 77.114C182.534 76.414 182.637 75.756 182.842 75.14C183.048 74.5147 183.337 73.9733 183.71 73.516C184.084 73.0587 184.532 72.6993 185.054 72.438C185.586 72.1673 186.174 72.032 186.818 72.032C187.462 72.032 188.046 72.1627 188.568 72.424C189.091 72.6853 189.539 73.0447 189.912 73.502C190.286 73.9593 190.57 74.496 190.766 75.112C190.972 75.728 191.074 76.386 191.074 77.086ZM189.296 77.114C189.296 76.6287 189.236 76.1713 189.114 75.742C189.002 75.3127 188.834 74.9393 188.61 74.622C188.396 74.3047 188.134 74.0527 187.826 73.866C187.518 73.6793 187.173 73.586 186.79 73.586C186.408 73.586 186.062 73.6793 185.754 73.866C185.456 74.0433 185.199 74.2907 184.984 74.608C184.77 74.916 184.602 75.2847 184.48 75.714C184.368 76.1433 184.312 76.6007 184.312 77.086C184.312 77.5807 184.368 78.0427 184.48 78.472C184.602 78.892 184.77 79.2653 184.984 79.592C185.208 79.9093 185.474 80.1613 185.782 80.348C186.09 80.5253 186.436 80.614 186.818 80.614C187.201 80.614 187.542 80.5253 187.84 80.348C188.148 80.1613 188.41 79.9093 188.624 79.592C188.839 79.2747 189.002 78.906 189.114 78.486C189.236 78.0567 189.296 77.5993 189.296 77.114ZM201.205 77.086C201.205 77.786 201.103 78.4487 200.897 79.074C200.692 79.69 200.403 80.2267 200.029 80.684C199.656 81.1413 199.203 81.5053 198.671 81.776C198.149 82.0373 197.565 82.168 196.921 82.168C196.277 82.168 195.694 82.0373 195.171 81.776C194.649 81.5147 194.201 81.1553 193.827 80.698C193.454 80.2407 193.165 79.704 192.959 79.088C192.763 78.472 192.665 77.814 192.665 77.114C192.665 76.414 192.768 75.756 192.973 75.14C193.179 74.5147 193.468 73.9733 193.841 73.516C194.215 73.0587 194.663 72.6993 195.185 72.438C195.717 72.1673 196.305 72.032 196.949 72.032C197.593 72.032 198.177 72.1627 198.699 72.424C199.222 72.6853 199.67 73.0447 200.043 73.502C200.417 73.9593 200.701 74.496 200.897 75.112C201.103 75.728 201.205 76.386 201.205 77.086ZM199.427 77.114C199.427 76.6287 199.367 76.1713 199.245 75.742C199.133 75.3127 198.965 74.9393 198.741 74.622C198.527 74.3047 198.265 74.0527 197.957 73.866C197.649 73.6793 197.304 73.586 196.921 73.586C196.539 73.586 196.193 73.6793 195.885 73.866C195.587 74.0433 195.33 74.2907 195.115 74.608C194.901 74.916 194.733 75.2847 194.611 75.714C194.499 76.1433 194.443 76.6007 194.443 77.086C194.443 77.5807 194.499 78.0427 194.611 78.472C194.733 78.892 194.901 79.2653 195.115 79.592C195.339 79.9093 195.605 80.1613 195.913 80.348C196.221 80.5253 196.567 80.614 196.949 80.614C197.332 80.614 197.673 80.5253 197.971 80.348C198.279 80.1613 198.541 79.9093 198.755 79.592C198.97 79.2747 199.133 78.906 199.245 78.486C199.367 78.0567 199.427 77.5993 199.427 77.114ZM211.336 77.086C211.336 77.786 211.233 78.4487 211.028 79.074C210.823 79.69 210.533 80.2267 210.16 80.684C209.787 81.1413 209.334 81.5053 208.802 81.776C208.279 82.0373 207.696 82.168 207.052 82.168C206.408 82.168 205.825 82.0373 205.302 81.776C204.779 81.5147 204.331 81.1553 203.958 80.698C203.585 80.2407 203.295 79.704 203.09 79.088C202.894 78.472 202.796 77.814 202.796 77.114C202.796 76.414 202.899 75.756 203.104 75.14C203.309 74.5147 203.599 73.9733 203.972 73.516C204.345 73.0587 204.793 72.6993 205.316 72.438C205.848 72.1673 206.436 72.032 207.08 72.032C207.724 72.032 208.307 72.1627 208.83 72.424C209.353 72.6853 209.801 73.0447 210.174 73.502C210.547 73.9593 210.832 74.496 211.028 75.112C211.233 75.728 211.336 76.386 211.336 77.086ZM209.558 77.114C209.558 76.6287 209.497 76.1713 209.376 75.742C209.264 75.3127 209.096 74.9393 208.872 74.622C208.657 74.3047 208.396 74.0527 208.088 73.866C207.78 73.6793 207.435 73.586 207.052 73.586C206.669 73.586 206.324 73.6793 206.016 73.866C205.717 74.0433 205.461 74.2907 205.246 74.608C205.031 74.916 204.863 75.2847 204.742 75.714C204.63 76.1433 204.574 76.6007 204.574 77.086C204.574 77.5807 204.63 78.0427 204.742 78.472C204.863 78.892 205.031 79.2653 205.246 79.592C205.47 79.9093 205.736 80.1613 206.044 80.348C206.352 80.5253 206.697 80.614 207.08 80.614C207.463 80.614 207.803 80.5253 208.102 80.348C208.41 80.1613 208.671 79.9093 208.886 79.592C209.101 79.2747 209.264 78.906 209.376 78.486C209.497 78.0567 209.558 77.5993 209.558 77.114Z" fill="black"/>
<path d="M188.571 97.4853C189.462 97.4853 189.908 98.5624 189.278 99.1924L183.207 105.263C182.817 105.654 182.183 105.654 181.793 105.263L175.722 99.1924C175.092 98.5624 175.538 97.4853 176.429 97.4853L188.571 97.4853Z" fill="white"/>
</g>
<defs>
<filter id="filter0_dd_5356_8866" x="128" y="34" width="109" height="96" filterUnits="userSpaceOnUse" color-interpolation-filters="sRGB">
<feFlood flood-opacity="0" result="BackgroundImageFix"/>
<feColorMatrix in="SourceAlpha" type="matrix" values="0 0 0 0 0 0 0 0 0 0 0 0 0 0 0 0 0 0 127 0" result="hardAlpha"/>
<feMorphology radius="2" operator="erode" in="SourceAlpha" result="effect1_dropShadow_5356_8866"/>
<feOffset dy="4"/>
<feGaussianBlur stdDeviation="3"/>
<feColorMatrix type="matrix" values="0 0 0 0 0.0627451 0 0 0 0 0.0941176 0 0 0 0 0.156863 0 0 0 0.03 0"/>
<feBlend mode="normal" in2="BackgroundImageFix" result="effect1_dropShadow_5356_8866"/>
<feColorMatrix in="SourceAlpha" type="matrix" values="0 0 0 0 0 0 0 0 0 0 0 0 0 0 0 0 0 0 127 0" result="hardAlpha"/>
<feMorphology radius="4" operator="erode" in="SourceAlpha" result="effect2_dropShadow_5356_8866"/>
<feOffset dy="12"/>
<feGaussianBlur stdDeviation="8"/>
<feColorMatrix type="matrix" values="0 0 0 0 0.0627451 0 0 0 0 0.0941176 0 0 0 0 0.156863 0 0 0 0.08 0"/>
<feBlend mode="normal" in2="effect1_dropShadow_5356_8866" result="effect2_dropShadow_5356_8866"/>
<feBlend mode="normal" in="SourceGraphic" in2="effect2_dropShadow_5356_8866" result="shape"/>
</filter>
</defs>
</svg>
