<svg width="20" height="21" viewBox="0 0 20 21" fill="none" xmlns="http://www.w3.org/2000/svg">
<path d="M16.8418 6.69948L10.4252 10.4161C10.1668 10.5661 9.84185 10.5661 9.57518 10.4161L3.15851 6.69948C2.70018 6.43281 2.58351 5.80781 2.93351 5.41615C3.17518 5.14115 3.45018 4.91615 3.74185 4.75781L8.25851 2.25781C9.22518 1.71615 10.7918 1.71615 11.7585 2.25781L16.2752 4.75781C16.5668 4.91615 16.8418 5.14948 17.0835 5.41615C17.4168 5.80781 17.3002 6.43281 16.8418 6.69948Z" fill="white"/>
<path d="M9.52507 11.9662L9.52507 17.6495C9.52507 18.2828 8.8834 18.6995 8.31673 18.4245C6.60006 17.5828 3.7084 16.0078 3.7084 16.0078C2.69173 15.4328 1.8584 13.9828 1.8584 12.7912L1.8584 8.49118C1.8584 7.83284 2.55007 7.41618 3.11673 7.74118L9.1084 11.2162C9.3584 11.3745 9.52507 11.6578 9.52507 11.9662Z" fill="white"/>
<path d="M10.4746 11.9662V17.6495C10.4746 18.2828 11.1163 18.6995 11.6829 18.4245C13.3996 17.5828 16.2913 16.0078 16.2913 16.0078C17.3079 15.4328 18.1413 13.9828 18.1413 12.7912V8.49118C18.1413 7.83284 17.4496 7.41618 16.8829 7.74118L10.8913 11.2162C10.6413 11.3745 10.4746 11.6578 10.4746 11.9662Z" fill="white"/>
</svg>
