<svg width="20" height="21" viewBox="0 0 20 21" fill="none" xmlns="http://www.w3.org/2000/svg">
<path d="M2.64172 6.38281L10.0001 10.6411L17.3084 6.40781" stroke="#344054" stroke-width="1.5" stroke-linecap="round" stroke-linejoin="round"/>
<path d="M10 18.1911L10 10.6328" stroke="#344054" stroke-width="1.5" stroke-linecap="round" stroke-linejoin="round"/>
<path d="M8.27503 2.24968L3.82503 4.71635C2.8167 5.27468 1.9917 6.67468 1.9917 7.82468L1.9917 12.533C1.9917 13.683 2.8167 15.083 3.82503 15.6413L8.27503 18.1163C9.22503 18.6413 10.7834 18.6413 11.7334 18.1163L16.1834 15.6413C17.1917 15.083 18.0167 13.683 18.0167 12.533L18.0167 7.82468C18.0167 6.67468 17.1917 5.27468 16.1834 4.71635L11.7334 2.24135C10.775 1.71635 9.22503 1.71635 8.27503 2.24968Z" stroke="#344054" stroke-width="1.5" stroke-linecap="round" stroke-linejoin="round"/>
</svg>
