<svg width="17" height="16" viewBox="0 0 17 16" fill="none" xmlns="http://www.w3.org/2000/svg">
<path d="M8.49967 1.33301C12.1815 1.33301 15.1663 4.31777 15.1663 7.99967C15.1663 11.6815 12.1815 14.6663 8.49967 14.6663C4.81777 14.6663 1.83301 11.6815 1.83301 7.99967C1.83301 4.31777 4.81777 1.33301 8.49967 1.33301ZM10.6461 5.97945L7.66634 8.95921L6.35323 7.64614C6.15797 7.45087 5.84138 7.45087 5.64612 7.64614C5.45086 7.84141 5.45086 8.15794 5.64612 8.35321L7.31281 10.0199C7.50807 10.2151 7.82461 10.2151 8.01987 10.0199L11.3532 6.68654C11.5485 6.4913 11.5485 6.17472 11.3532 5.97945C11.1579 5.78419 10.8414 5.78419 10.6461 5.97945Z" fill="white"/>
</svg>
