<svg width="20" height="21" viewBox="0 0 20 21" fill="none" xmlns="http://www.w3.org/2000/svg">
<path d="M16.7503 7.86744C15.242 7.86744 14.6253 6.80078 15.3753 5.49244C15.8087 4.73411 15.5503 3.76744 14.792 3.33411L13.3503 2.50911C12.692 2.11744 11.842 2.35078 11.4503 3.00911L11.3587 3.16744C10.6087 4.47578 9.37533 4.47578 8.61699 3.16744L8.52533 3.00911C8.15033 2.35078 7.30033 2.11744 6.64199 2.50911L5.20033 3.33411C4.44199 3.76744 4.18366 4.74244 4.61699 5.50078C5.37533 6.80078 4.75866 7.86744 3.25033 7.86744C2.38366 7.86744 1.66699 8.57578 1.66699 9.45078L1.66699 10.9174C1.66699 11.7841 2.37533 12.5008 3.25033 12.5008C4.75866 12.5008 5.37533 13.5674 4.61699 14.8758C4.18366 15.6341 4.44199 16.6008 5.20033 17.0341L6.64199 17.8591C7.30033 18.2508 8.15033 18.0174 8.54199 17.3591L8.63366 17.2008C9.38366 15.8924 10.617 15.8924 11.3753 17.2008L11.467 17.3591C11.8587 18.0174 12.7087 18.2508 13.367 17.8591L14.8087 17.0341C15.567 16.6008 15.8253 15.6258 15.392 14.8758C14.6337 13.5674 15.2503 12.5008 16.7587 12.5008C17.6253 12.5008 18.342 11.7924 18.342 10.9174L18.342 9.45078C18.3337 8.58411 17.6253 7.86744 16.7503 7.86744ZM10.0003 12.8924C8.50866 12.8924 7.29199 11.6758 7.29199 10.1841C7.29199 8.69244 8.50866 7.47578 10.0003 7.47578C11.492 7.47578 12.7087 8.69244 12.7087 10.1841C12.7087 11.6758 11.492 12.8924 10.0003 12.8924Z" fill="white"/>
</svg>
