<svg width="158" height="16" viewBox="0 0 158 16" fill="none" xmlns="http://www.w3.org/2000/svg">
<path d="M11.3101 9.20312C11.0028 10.0833 10.4064 10.7969 9.521 11.3438C8.63558 11.8854 7.62777 12.1562 6.49756 12.1562C5.70068 12.1562 4.95329 12.0078 4.25537 11.7109C3.56266 11.4141 2.96891 11.0104 2.47412 10.5C1.97933 9.98438 1.5887 9.36979 1.30225 8.65625C1.021 7.9375 0.880371 7.17448 0.880371 6.36719C0.880371 5.72656 0.968913 5.11458 1.146 4.53125C1.32829 3.94792 1.5887 3.42188 1.92725 2.95312C2.26579 2.48438 2.66162 2.07552 3.11475 1.72656C3.57308 1.3776 4.09131 1.10938 4.66943 0.921875C5.25277 0.734375 5.86214 0.640625 6.49756 0.640625C7.57568 0.640625 8.54443 0.890625 9.40381 1.39062C10.2684 1.89062 10.8621 2.54167 11.1851 3.34375L9.81006 4.01562C9.54443 3.44271 9.11214 2.98438 8.51318 2.64062C7.91943 2.29688 7.24756 2.125 6.49756 2.125C5.71631 2.125 5.01839 2.3099 4.40381 2.67969C3.78923 3.04948 3.31266 3.55729 2.97412 4.20312C2.63558 4.84896 2.46631 5.57031 2.46631 6.36719C2.46631 7.60677 2.84131 8.63542 3.59131 9.45312C4.34652 10.2656 5.31527 10.6719 6.49756 10.6719C7.28923 10.6719 7.99495 10.4818 8.61475 10.1016C9.23975 9.71615 9.67464 9.20312 9.91943 8.5625L11.3101 9.20312ZM16.4116 4.03125C17.1564 4.03125 17.8361 4.21094 18.4507 4.57031C19.0653 4.92448 19.5496 5.41406 19.9038 6.03906C20.2632 6.66406 20.4429 7.35417 20.4429 8.10938C20.4429 9.25 20.0522 10.2109 19.271 10.9922C18.495 11.7682 17.5418 12.1562 16.4116 12.1562C15.6668 12.1562 14.9845 11.9792 14.3647 11.625C13.7502 11.2708 13.2658 10.7839 12.9116 10.1641C12.5575 9.54427 12.3804 8.85938 12.3804 8.10938C12.3804 6.95833 12.7684 5.99219 13.5444 5.21094C14.3205 4.42448 15.2762 4.03125 16.4116 4.03125ZM16.4116 5.4375C15.6772 5.4375 15.0601 5.69271 14.5601 6.20312C14.0653 6.71354 13.8179 7.34896 13.8179 8.10938C13.8179 8.85417 14.0653 9.48177 14.5601 9.99219C15.0601 10.4974 15.6772 10.75 16.4116 10.75C17.1408 10.75 17.7554 10.4948 18.2554 9.98438C18.7554 9.47396 19.0054 8.84896 19.0054 8.10938C19.0054 7.34896 18.7554 6.71354 18.2554 6.20312C17.7554 5.69271 17.1408 5.4375 16.4116 5.4375ZM26.0601 4.03125C27.0653 4.03125 27.8595 4.34635 28.4429 4.97656C29.0314 5.60677 29.3257 6.46094 29.3257 7.53906V12H27.8491V7.69531C27.8491 7.01302 27.6564 6.46615 27.271 6.05469C26.8856 5.64323 26.37 5.4375 25.7241 5.4375C25.0679 5.4375 24.5444 5.64323 24.1538 6.05469C23.7632 6.46615 23.5679 7.01302 23.5679 7.69531V12H22.0757V4.19531H23.5679V5.55469C23.8179 5.07031 24.1564 4.69531 24.5835 4.42969C25.0158 4.16406 25.508 4.03125 26.0601 4.03125ZM35.2866 10.6406L35.3647 11.9375C35.1147 12.0417 34.8335 12.0938 34.521 12.0938C33.6772 12.0938 32.995 11.8385 32.4741 11.3281C31.9585 10.8125 31.7007 10.099 31.7007 9.1875V5.60156H30.1851V4.19531H31.7007V2.07812H33.1772V4.19531H35.2866V5.60156H33.1772V9.11719C33.1772 9.61198 33.3205 10.0026 33.6069 10.2891C33.8934 10.5755 34.2606 10.7188 34.7085 10.7188C34.922 10.7188 35.1147 10.6927 35.2866 10.6406ZM37.6226 0.6875C37.8882 0.6875 38.12 0.786458 38.3179 0.984375C38.5158 1.18229 38.6147 1.41406 38.6147 1.67969C38.6147 1.95052 38.5158 2.1849 38.3179 2.38281C38.12 2.57552 37.8882 2.67188 37.6226 2.67188C37.3465 2.67188 37.1121 2.57552 36.9194 2.38281C36.7267 2.1901 36.6304 1.95573 36.6304 1.67969C36.6304 1.41406 36.7267 1.18229 36.9194 0.984375C37.1174 0.786458 37.3517 0.6875 37.6226 0.6875ZM36.8726 4.19531H38.3647V12H36.8726V4.19531ZM44.3882 4.03125C45.3934 4.03125 46.1877 4.34635 46.771 4.97656C47.3595 5.60677 47.6538 6.46094 47.6538 7.53906V12H46.1772V7.69531C46.1772 7.01302 45.9845 6.46615 45.5991 6.05469C45.2137 5.64323 44.6981 5.4375 44.0522 5.4375C43.396 5.4375 42.8726 5.64323 42.4819 6.05469C42.0913 6.46615 41.896 7.01302 41.896 7.69531V12H40.4038V4.19531H41.896V5.55469C42.146 5.07031 42.4845 4.69531 42.9116 4.42969C43.3439 4.16406 43.8361 4.03125 44.3882 4.03125ZM55.4897 4.19531H56.9663V12H55.4897V10.625C55.2397 11.1146 54.8986 11.4922 54.4663 11.7578C54.0392 12.0234 53.5444 12.1562 52.9819 12.1562C51.9819 12.1562 51.1877 11.8438 50.5991 11.2188C50.0106 10.5885 49.7163 9.73958 49.7163 8.67188V4.19531H51.2085V8.49219C51.2085 9.17448 51.3986 9.72135 51.7788 10.1328C52.1642 10.5443 52.6772 10.75 53.3179 10.75C53.9793 10.75 54.5054 10.5443 54.896 10.1328C55.2918 9.72135 55.4897 9.17448 55.4897 8.49219V4.19531ZM66.3257 7.75781C66.3257 7.90365 66.3153 8.10677 66.2944 8.36719H60.0522C60.12 9.11719 60.3908 9.71615 60.8647 10.1641C61.3439 10.6068 61.9429 10.8281 62.6616 10.8281C63.1564 10.8281 63.6095 10.724 64.021 10.5156C64.4325 10.3073 64.7371 10.0286 64.9351 9.67969L66.1147 10.4453C65.8179 10.9766 65.3595 11.3958 64.7397 11.7031C64.12 12.0052 63.4116 12.1562 62.6147 12.1562C62.0679 12.1562 61.547 12.0521 61.0522 11.8438C60.5575 11.6354 60.1304 11.3516 59.771 10.9922C59.4168 10.6276 59.1356 10.1927 58.9272 9.6875C58.7189 9.17708 58.6147 8.63542 58.6147 8.0625C58.6147 7.32292 58.7892 6.64583 59.1382 6.03125C59.4871 5.41146 59.9663 4.92448 60.5757 4.57031C61.1903 4.21094 61.8647 4.03125 62.5991 4.03125C63.646 4.03125 64.5288 4.39062 65.2476 5.10938C65.9663 5.82812 66.3257 6.71094 66.3257 7.75781ZM60.1147 7.25H64.8022C64.7554 6.66667 64.521 6.1901 64.0991 5.82031C63.6772 5.45052 63.1564 5.26562 62.5366 5.26562C61.922 5.26562 61.3986 5.44531 60.9663 5.80469C60.534 6.16406 60.2502 6.64583 60.1147 7.25ZM73.6851 12L70.8569 4.19531H72.4194L74.2944 9.78906L76.2944 4.19531H77.4976L79.5288 9.78906L81.3804 4.19531H82.9663L80.1226 12H78.9351L76.9038 6.39844L74.8569 12H73.6851ZM84.9819 0.6875C85.2476 0.6875 85.4793 0.786458 85.6772 0.984375C85.8752 1.18229 85.9741 1.41406 85.9741 1.67969C85.9741 1.95052 85.8752 2.1849 85.6772 2.38281C85.4793 2.57552 85.2476 2.67188 84.9819 2.67188C84.7059 2.67188 84.4715 2.57552 84.2788 2.38281C84.0861 2.1901 83.9897 1.95573 83.9897 1.67969C83.9897 1.41406 84.0861 1.18229 84.2788 0.984375C84.4767 0.786458 84.7111 0.6875 84.9819 0.6875ZM84.2319 4.19531H85.7241V12H84.2319V4.19531ZM92.0522 10.6406L92.1304 11.9375C91.8804 12.0417 91.5991 12.0938 91.2866 12.0938C90.4429 12.0938 89.7606 11.8385 89.2397 11.3281C88.7241 10.8125 88.4663 10.099 88.4663 9.1875V5.60156H86.9507V4.19531H88.4663V2.07812H89.9429V4.19531H92.0522V5.60156H89.9429V9.11719C89.9429 9.61198 90.0861 10.0026 90.3726 10.2891C90.659 10.5755 91.0262 10.7188 91.4741 10.7188C91.6877 10.7188 91.8804 10.6927 92.0522 10.6406ZM97.6226 4.03125C98.6278 4.03125 99.422 4.34635 100.005 4.97656C100.594 5.60677 100.888 6.46094 100.888 7.53906V12H99.4116V7.69531C99.4116 7.01302 99.2189 6.46615 98.8335 6.05469C98.4481 5.64323 97.9325 5.4375 97.2866 5.4375C96.6304 5.4375 96.1069 5.64323 95.7163 6.05469C95.3257 6.46615 95.1304 7.01302 95.1304 7.69531V12H93.6382V0.796875H95.1304V5.55469C95.3804 5.07031 95.7189 4.69531 96.146 4.42969C96.5783 4.16406 97.0705 4.03125 97.6226 4.03125ZM117.263 5.89062C117.305 6.10417 117.326 6.40625 117.326 6.79688C117.326 7.81771 117.091 8.73958 116.623 9.5625C116.154 10.3802 115.508 11.0182 114.685 11.4766C113.867 11.9297 112.956 12.1562 111.951 12.1562C110.904 12.1562 109.951 11.9036 109.091 11.3984C108.232 10.8932 107.557 10.2005 107.068 9.32031C106.578 8.4349 106.333 7.45573 106.333 6.38281C106.333 5.3151 106.578 4.34375 107.068 3.46875C107.557 2.58854 108.232 1.89844 109.091 1.39844C109.951 0.893229 110.904 0.640625 111.951 0.640625C113.029 0.640625 113.998 0.890625 114.857 1.39062C115.722 1.89062 116.315 2.54167 116.638 3.34375L115.263 4.01562C114.998 3.44271 114.565 2.98438 113.966 2.64062C113.373 2.29688 112.701 2.125 111.951 2.125C110.815 2.125 109.86 2.53646 109.083 3.35938C108.307 4.17708 107.919 5.1849 107.919 6.38281C107.919 7.17969 108.097 7.90625 108.451 8.5625C108.805 9.21354 109.297 9.72917 109.927 10.1094C110.563 10.4844 111.268 10.6719 112.044 10.6719C113.024 10.6719 113.862 10.362 114.56 9.74219C115.263 9.1224 115.675 8.33333 115.794 7.375H112.091V5.89062H117.263ZM122.693 4.03125C123.438 4.03125 124.117 4.21094 124.732 4.57031C125.347 4.92448 125.831 5.41406 126.185 6.03906C126.544 6.66406 126.724 7.35417 126.724 8.10938C126.724 9.25 126.333 10.2109 125.552 10.9922C124.776 11.7682 123.823 12.1562 122.693 12.1562C121.948 12.1562 121.266 11.9792 120.646 11.625C120.031 11.2708 119.547 10.7839 119.193 10.1641C118.839 9.54427 118.662 8.85938 118.662 8.10938C118.662 6.95833 119.05 5.99219 119.826 5.21094C120.602 4.42448 121.557 4.03125 122.693 4.03125ZM122.693 5.4375C121.958 5.4375 121.341 5.69271 120.841 6.20312C120.347 6.71354 120.099 7.34896 120.099 8.10938C120.099 8.85417 120.347 9.48177 120.841 9.99219C121.341 10.4974 121.958 10.75 122.693 10.75C123.422 10.75 124.037 10.4948 124.537 9.98438C125.037 9.47396 125.287 8.84896 125.287 8.10938C125.287 7.34896 125.037 6.71354 124.537 6.20312C124.037 5.69271 123.422 5.4375 122.693 5.4375ZM131.787 4.03125C132.531 4.03125 133.211 4.21094 133.826 4.57031C134.44 4.92448 134.925 5.41406 135.279 6.03906C135.638 6.66406 135.818 7.35417 135.818 8.10938C135.818 9.25 135.427 10.2109 134.646 10.9922C133.87 11.7682 132.917 12.1562 131.787 12.1562C131.042 12.1562 130.36 11.9792 129.74 11.625C129.125 11.2708 128.641 10.7839 128.287 10.1641C127.932 9.54427 127.755 8.85938 127.755 8.10938C127.755 6.95833 128.143 5.99219 128.919 5.21094C129.695 4.42448 130.651 4.03125 131.787 4.03125ZM131.787 5.4375C131.052 5.4375 130.435 5.69271 129.935 6.20312C129.44 6.71354 129.193 7.34896 129.193 8.10938C129.193 8.85417 129.44 9.48177 129.935 9.99219C130.435 10.4974 131.052 10.75 131.787 10.75C132.516 10.75 133.13 10.4948 133.63 9.98438C134.13 9.47396 134.38 8.84896 134.38 8.10938C134.38 7.34896 134.13 6.71354 133.63 6.20312C133.13 5.69271 132.516 5.4375 131.787 5.4375ZM143.615 4.19531H145.091V11.5234C145.091 12.2526 144.909 12.9036 144.544 13.4766C144.185 14.0547 143.695 14.5 143.076 14.8125C142.456 15.125 141.766 15.2812 141.005 15.2812C140.302 15.2812 139.623 15.1615 138.966 14.9219C138.31 14.6823 137.813 14.3594 137.474 13.9531L138.24 12.9453C138.542 13.263 138.938 13.5104 139.427 13.6875C139.917 13.8646 140.443 13.9531 141.005 13.9531C141.698 13.9531 142.305 13.7161 142.826 13.2422C143.352 12.7734 143.615 12.2005 143.615 11.5234V10.2891C143.323 10.8411 142.922 11.2682 142.412 11.5703C141.906 11.8672 141.315 12.0156 140.638 12.0156C139.586 12.0156 138.69 11.6276 137.951 10.8516C137.216 10.0755 136.849 9.13021 136.849 8.01562C136.849 6.91146 137.216 5.97135 137.951 5.19531C138.69 4.41927 139.586 4.03125 140.638 4.03125C141.315 4.03125 141.906 4.18229 142.412 4.48438C142.922 4.78125 143.323 5.20573 143.615 5.75781V4.19531ZM140.943 10.6406C141.714 10.6406 142.352 10.3932 142.857 9.89844C143.362 9.40365 143.615 8.77604 143.615 8.01562C143.615 7.26042 143.362 6.63802 142.857 6.14844C142.352 5.65365 141.714 5.40625 140.943 5.40625C140.198 5.40625 139.565 5.66146 139.044 6.17188C138.529 6.67708 138.271 7.29167 138.271 8.01562C138.271 8.75 138.529 9.3724 139.044 9.88281C139.565 10.388 140.198 10.6406 140.943 10.6406ZM148.63 0.796875V12H147.138V0.796875H148.63ZM157.779 7.75781C157.779 7.90365 157.768 8.10677 157.748 8.36719H151.505C151.573 9.11719 151.844 9.71615 152.318 10.1641C152.797 10.6068 153.396 10.8281 154.115 10.8281C154.61 10.8281 155.063 10.724 155.474 10.5156C155.886 10.3073 156.19 10.0286 156.388 9.67969L157.568 10.4453C157.271 10.9766 156.813 11.3958 156.193 11.7031C155.573 12.0052 154.865 12.1562 154.068 12.1562C153.521 12.1562 153 12.0521 152.505 11.8438C152.011 11.6354 151.583 11.3516 151.224 10.9922C150.87 10.6276 150.589 10.1927 150.38 9.6875C150.172 9.17708 150.068 8.63542 150.068 8.0625C150.068 7.32292 150.242 6.64583 150.591 6.03125C150.94 5.41146 151.419 4.92448 152.029 4.57031C152.643 4.21094 153.318 4.03125 154.052 4.03125C155.099 4.03125 155.982 4.39062 156.701 5.10938C157.419 5.82812 157.779 6.71094 157.779 7.75781ZM151.568 7.25H156.255C156.208 6.66667 155.974 6.1901 155.552 5.82031C155.13 5.45052 154.61 5.26562 153.99 5.26562C153.375 5.26562 152.852 5.44531 152.419 5.80469C151.987 6.16406 151.703 6.64583 151.568 7.25Z" fill="#212121"/>
</svg>
