<svg width="37" height="36" viewBox="0 0 37 36" fill="none" xmlns="http://www.w3.org/2000/svg">
<path d="M17.6282 15.0042C17.3034 14.6793 17.3034 14.1525 17.6282 13.8276C17.9532 13.5026 18.48 13.5026 18.8049 13.8276L21.5504 16.5731L24.2959 13.8276C24.6207 13.5026 25.1475 13.5026 25.4725 13.8276C25.7974 14.1524 25.7974 14.6793 25.4725 15.0042L22.7269 17.7496L25.4725 20.4952C25.7974 20.82 25.7974 21.3469 25.4725 21.6717C25.1475 21.9967 24.6207 21.9967 24.2959 21.6717L21.5504 18.9263L18.8049 21.6717C18.48 21.9967 17.9532 21.9967 17.6284 21.6717C17.3034 21.3468 17.3034 20.82 17.6284 20.4951L20.3738 17.7497L17.6282 15.0042Z" fill="#65676F"/>
<path fill-rule="evenodd" clip-rule="evenodd" d="M14.197 9.29504L5.74243 17.7496L14.197 26.2043C14.8212 26.8284 15.6677 27.179 16.5503 27.179H27.9291C29.7671 27.179 31.2571 25.689 31.2571 23.851V11.6483C31.2571 9.8103 29.7671 8.32031 27.9291 8.32031H16.5503C15.6677 8.32031 14.8212 8.67097 14.197 9.29504ZM27.9291 25.7369H16.5503C16.0501 25.7369 15.5704 25.5381 15.2167 25.1845L7.78194 17.7496L15.2167 10.3148C15.5704 9.96116 16.0501 9.76243 16.5503 9.76243H27.9291C28.9706 9.76243 29.8149 10.6068 29.8149 11.6483V23.851C29.8149 24.8925 28.9706 25.7369 27.9291 25.7369Z" fill="#65676F"/>
</svg>
