<svg width="390" height="552" viewBox="0 0 390 552" fill="none" xmlns="http://www.w3.org/2000/svg">
<g opacity="0.04">
<g clip-path="url(#clip0_5797_8815)">
<path d="M401.76 145.174C400.294 142.3 398.098 137.549 395.027 136.132C389.988 133.805 384.623 137.7 380.099 139.738C371.725 143.508 362.282 145.925 354.333 139.879C345.157 132.901 342.42 119.705 333.274 112.528C321.846 103.559 306.995 101.899 294.293 95.8656C283.525 90.7512 274.631 82.2744 263.852 77.0946C244.67 67.8792 214.644 63.438 193.613 65.4792C174.998 67.2864 156.193 72.27 138.542 78.66C127.771 82.5588 117.907 88.4022 106.575 90.5166C79.5666 95.5554 47.6292 79.0086 25.0626 101.154C5.733 120.122 4.9494 151.01 14.6628 175.25C20.3274 189.385 33.879 202.831 25.548 218.708C18.741 231.681 3.7032 235.778 -8.2296 241.481C-30.0006 251.885 -48.8338 269.889 -46.834 297.49" stroke="#B7FF93" stroke-width="13.8" stroke-miterlimit="1.5" stroke-linecap="round" stroke-linejoin="round"/>
<path d="M69.0822 251.677C67.2984 246.071 64.5372 239.705 64.8024 233.741C65.4846 218.38 81.0042 207.633 94.3272 203.63C100.238 201.853 119.317 196.783 124.99 200.17C130.087 203.211 132.236 209.85 133.905 215.181C134.834 218.148 136.747 222.359 136.137 225.511C135.293 229.875 129.591 230.456 126.089 231.406C118.441 233.483 111.502 237.472 105.584 242.707C98.238 249.208 93.0186 257.806 90.6288 267.29C88.911 274.106 89.553 284.353 82.1838 288.157C76.4232 291.13 67.4154 284.648 62.6868 281.999C51.2136 275.573 38.0658 269.584 24.6138 271.387C12.0504 273.071 2.87636 278.096 -4.97404 287.914C-8.65564 292.519 -10.995 299.96 -7.36024 305.287C-3.43804 311.033 4.15916 310.448 10.1268 308.981C18.0918 307.024 27.7008 304.814 35.8968 306.521C56.7534 310.865 75.2238 338.748 98.1492 331.173C110.939 326.947 114.041 306.558 121.079 296.438C134.467 277.187 158.918 271.931 181.02 274.66" stroke="#039855" stroke-width="13.8" stroke-miterlimit="1.5" stroke-linecap="round" stroke-linejoin="round"/>
<path d="M434.4 235.023C426.045 221.674 422.727 200.951 410.01 191.107C387.822 173.932 349.592 195.725 347.968 221.81C346.755 241.296 353.929 258.242 359.728 276.289C362.267 284.192 365.98 298.122 361.914 306.144C356.152 317.513 345.497 319.249 335.045 324.629C323.638 330.502 313.407 338.672 302.088 344.828C279.681 357.013 253.491 367.42 229.246 353.777C214.418 345.433 203.401 331.405 189.237 321.978C177.036 313.859 156.017 307.804 147.172 323.821C134.414 346.926 162.853 350.77 174.666 359.243C185.603 367.088 192.176 379.181 202.405 387.706C213.687 397.106 250.764 401.766 233.133 426.062C229.192 431.492 224.57 435.984 220.951 441.75C216.462 448.901 211.174 456.843 203.532 460.947C192.743 466.74 188.62 460.157 186.024 449.481C180.388 426.308 184.038 403.159 160.563 388.622C139.701 375.704 116.143 382.169 93.6819 377.383C74.3936 373.271 60.0002 359.605 41.54 354.149" stroke="#62FF62" stroke-width="13.8" stroke-miterlimit="1.5" stroke-linecap="round" stroke-linejoin="round"/>
<path d="M391.014 224.41C385.974 250.026 406.387 265.405 406.735 289.684C407.157 319.067 375.511 355.355 359.1 378.19" stroke="#039855" stroke-width="13.8" stroke-miterlimit="1.5" stroke-linecap="round" stroke-linejoin="round"/>
<path d="M336.21 359.311C322.403 377.231 309.682 371.885 293.25 386.461C285.258 393.549 271.124 406.925 273.48 418.561C275.665 429.356 288.77 440.849 297.69 439.291C316.039 436.084 345.868 405.26 362.833 415.474C374.554 422.53 381.295 435.143 393.103 441.916C405.425 448.984 418.52 445.633 431.516 449.601C442.331 452.903 450.033 461.417 460.465 465.218C476.816 471.178 499.44 463.195 511.26 478.198C523.686 493.972 520.242 511.518 522.108 530.012C523.422 543.02 527.952 555.016 531.48 567.49" stroke="#B7FF93" stroke-width="13.8" stroke-miterlimit="1.5" stroke-linecap="round" stroke-linejoin="round"/>
<path d="M388.121 535.057C417.939 552.093 438.734 565.404 474.481 562.806C495.558 561.273 499.404 528.858 484.297 516.953C473.485 508.432 456.977 510.726 444.164 510.671C426.227 510.595 406.473 507.964 390.033 500.424C374.261 493.19 363.617 478.694 349.412 469.163C345.629 466.624 337.111 460.942 333.698 465.888C321.185 484.022 340.877 504.576 348.795 520.171C355.467 533.312 358.192 549.167 360.337 563.65" stroke="#039855" stroke-width="13.8" stroke-miterlimit="1.5" stroke-linecap="round" stroke-linejoin="round"/>
<path d="M117.48 475.145C127.392 461.725 139.115 461.801 149.987 474.654C163.15 490.213 166.273 513.03 190.349 514.278C226.276 516.139 230.935 468.55 261.96 454.27" stroke="#039855" stroke-width="13.8" stroke-miterlimit="1.5" stroke-linecap="round" stroke-linejoin="round"/>
<path d="M152.28 526.003C164.006 544.838 185.474 558.624 208.321 552.516C226.772 547.583 245.298 531.739 258.266 518.251C265.917 510.293 279.872 483.771 293.072 487.955C302.691 491.003 307.841 501.76 309.643 510.975C313.426 530.328 306.174 549.716 316.14 568.03" stroke="#A6F4C5" stroke-width="13.8" stroke-miterlimit="1.5" stroke-linecap="round" stroke-linejoin="round"/>
<path d="M285.429 531.112C285.429 545.756 273.435 558.822 283.344 606.505" stroke="#A6F4C5" stroke-width="13.8" stroke-miterlimit="1.5" stroke-linecap="round" stroke-linejoin="round"/>
<path d="M285.429 -68.8878C285.429 -54.2442 273.435 -41.1786 283.344 6.50461" stroke="#A6F4C5" stroke-width="13.8" stroke-miterlimit="1.5" stroke-linecap="round" stroke-linejoin="round"/>
<path d="M259.256 -35.8136C239.624 -13.3385 197.309 14.6809 172.335 -9.64016C144.075 -37.1616 133.799 -18.5746 129.677 3.52233" stroke="#039855" stroke-width="13.8" stroke-miterlimit="1.5" stroke-linecap="round" stroke-linejoin="round"/>
<path d="M141.256 -44.0317C133.82 -22.1931 129.18 46.5812 90.7295 43.2249" stroke="#039855" stroke-width="13.8" stroke-miterlimit="1.5" stroke-linecap="round" stroke-linejoin="round"/>
<path d="M130.992 -78.0247C118.538 -68.8033 107.826 -58.2483 100.883 -43.2327C93.4583 -27.179 91.8479 -9.36665 76.8905 0.784329C55.8125 15.0895 37.9703 -2.75657 16.6031 -3.41327C-14.891 -4.38107 -49.7421 38.922 -119.664 -3.52985" stroke="#039855" stroke-width="13.8" stroke-miterlimit="1.5" stroke-linecap="round" stroke-linejoin="round"/>
<path d="M130.992 522.366C118.538 531.588 107.826 542.143 100.882 557.158C93.458 573.212 91.8476 591.025 76.8902 601.176C55.8122 615.481 37.97 597.635 16.6028 596.978C-18.1312 592.307 -36.409 639.119 -118.553 597.778" stroke="#039855" stroke-width="13.8" stroke-miterlimit="1.5" stroke-linecap="round" stroke-linejoin="round"/>
<path d="M-33.5 568.565C-42.7484 523.606 -8.37083 515.028 44.068 561.104" stroke="#039855" stroke-width="13.8" stroke-miterlimit="1.5" stroke-linecap="round" stroke-linejoin="round"/>
<path d="M149.88 37.4577C176.481 31.6078 204.709 24.125 231.973 29.5432C254.24 33.9676 273.627 46.9678 295.437 52.7797C330.455 62.1114 350.847 54.7316 373.98 88.9902" stroke="#039855" stroke-width="13.8" stroke-miterlimit="1.5" stroke-linecap="round" stroke-linejoin="round"/>
<path d="M425.04 44.2302C411.763 62.8938 395.393 85.1316 398.636 109.51" stroke="#A6F4C5" stroke-width="13.8" stroke-miterlimit="1.5" stroke-linecap="round" stroke-linejoin="round"/>
<path d="M-96.1121 53.1677C-35.1073 60.7569 -39.1957 33.9026 44.0673 26.9157" stroke="#62FF62" stroke-width="13.8" stroke-miterlimit="1.5" stroke-linecap="round" stroke-linejoin="round"/>
<path d="M325.02 25.6335C348.412 35.6406 376.017 -10.8437 472.846 -13.9655" stroke="#039855" stroke-width="13.8" stroke-miterlimit="1.5" stroke-linecap="round" stroke-linejoin="round"/>
<path d="M325.02 25.6335C348.412 35.6406 376.017 -10.8437 472.846 -13.9655" stroke="#039855" stroke-width="13.8" stroke-miterlimit="1.5" stroke-linecap="round" stroke-linejoin="round"/>
<path d="M325.02 26.1128C352.1 35.3005 407.24 -41.0066 528.402 18.736" stroke="#039855" stroke-width="13.8" stroke-miterlimit="1.5" stroke-linecap="round" stroke-linejoin="round"/>
<path d="M-47.0607 89.7492C-50.8889 90.3798 -55.5939 90.9714 -58.8711 93.3012C-64.7118 97.452 -65.4992 105.305 -64.9579 112.001C-63.8148 126.125 -58.2238 139.549 -56.397 153.59C-54.5344 167.907 -56.1703 181.606 -55.8176 195.889C-55.5574 206.432 -52.8872 219.679 -39.9 218.312C-13.3728 215.52 -18.156 183.291 -22.341 165.484C-23.3268 161.29 -24.1242 157.093 -24.6516 152.81C-25.3494 147.136 -25.9854 141.299 -25.749 135.577C-25.2972 124.675 -23.2326 113.744 -20.5296 103.201C-18.3372 94.6482 -15.6732 85.899 -10.6212 78.5928C3.72063 57.8526 34.353 52.7526 57.4008 56.4286C68.01 58.1202 78.015 62.0525 88.1994 65.3519" stroke="#039855" stroke-width="13.8" stroke-miterlimit="1.5" stroke-linecap="round" stroke-linejoin="round"/>
<path d="M314.415 268.833C322.603 312.478 258.555 343.069 229.07 312.016C210.328 292.276 207.544 262.943 217.633 238.427C222.428 226.776 243.351 205.78 232.251 194.398C227.699 189.729 219.61 191.523 214.109 192.918C198.733 196.818 157.601 224.546 157.389 189.8C157.367 186.234 157.884 182.606 159.094 179.243C164.065 165.43 179.829 160.055 192.933 156.923C221.594 150.072 265.503 151.115 282.298 180.763C290.404 195.071 280.563 204.464 271.644 215.26C263.443 225.185 254.169 237.599 249.478 249.638C244.983 261.174 244.914 275.3 255.323 283.569C264.129 290.566 276.504 283.87 281.069 275.226C285.633 266.582 284.659 256.321 289.133 247.715C293.587 239.146 301.245 232.691 305.972 224.255C311.361 214.636 313.336 203.419 317.877 193.355C321.7 184.882 327.49 172.62 323.881 163.181C319.956 152.918 303.124 155.869 294.133 148.825C283.084 140.17 272.57 130.22 259.808 124.028C232.273 110.669 195.285 111.434 166.591 120.961C151.578 125.946 140.236 139.507 124.691 142.522C104.833 146.374 88.5476 131.849 70.5824 135.009C57.8408 137.25 52.265 156.067 60.9626 165.242C77.9906 183.205 102.677 157.891 120.799 168.311" stroke="#A6F4C5" stroke-width="13.8" stroke-miterlimit="1.5" stroke-linecap="round" stroke-linejoin="round"/>
<path d="M133.919 415.942C109.454 423.17 89.0252 432.64 81.689 459.186C79.9346 465.537 79.0448 471.902 79.4036 478.495C80.3714 496.291 88.2296 522.229 60.1874 521.825C28.9736 521.377 37.3394 473.483 40.4096 454.03C41.4758 447.272 42.0776 439.093 45.9806 433.25C52.6166 423.312 66.1538 420.474 72.2576 410.449C76.2884 403.826 71.4446 396.45 66.2342 392.324C38.096 370.044 0.0373593 402.443 -1.89344 432.524C-2.98304 449.513 6.88036 467.914 -0.555438 484.335C-7.14464 498.886 -23.749 497.341 -32.53 485.779C-40.4026 475.416 -52.7809 461.953 -53.4304 449.481C-54.1388 435.893 -51.6543 423.941 -53.4304 410.449C-55.4153 395.374 -56.6702 368.971 -44.6446 359.243" stroke="#B7FF93" stroke-width="13.8" stroke-miterlimit="1.5" stroke-linecap="round" stroke-linejoin="round"/>
</g>
</g>
<defs>
<clipPath id="clip0_5797_8815">
<rect x="-105" width="600" height="600" rx="24" fill="white"/>
</clipPath>
</defs>
</svg>
