<svg width="236" height="500" viewBox="0 0 236 500" fill="none" xmlns="http://www.w3.org/2000/svg">
<g opacity="0.04">
<g clip-path="url(#clip0_5797_8334)">
<path d="M506.76 95.1742C505.294 92.3002 503.098 87.5494 500.027 86.1316C494.988 83.8054 489.623 87.7 485.099 89.7376C476.725 93.508 467.282 95.9248 459.333 89.8792C450.157 82.9012 447.42 69.7054 438.274 62.5276C426.846 53.5588 411.995 51.8986 399.293 45.8656C388.525 40.7512 379.631 32.2744 368.852 27.0946C349.67 17.8792 319.644 13.438 298.613 15.4792C279.998 17.2864 261.193 22.27 243.542 28.66C232.771 32.5588 222.907 38.4022 211.575 40.5166C184.567 45.5554 152.629 29.0086 130.063 51.154C110.733 70.1218 109.949 101.01 119.663 125.25C125.327 139.385 138.879 152.831 130.548 168.708C123.741 181.681 108.703 185.778 96.7704 191.481C74.9994 201.885 56.1662 219.889 58.166 247.49" stroke="#B7FF93" stroke-width="13.8" stroke-miterlimit="1.5" stroke-linecap="round" stroke-linejoin="round"/>
<path d="M174.082 201.677C172.298 196.071 169.537 189.705 169.802 183.741C170.485 168.38 186.004 157.633 199.327 153.63C205.238 151.853 224.317 146.783 229.99 150.17C235.087 153.211 237.236 159.85 238.905 165.181C239.834 168.148 241.747 172.359 241.137 175.511C240.293 179.875 234.591 180.456 231.089 181.406C223.441 183.483 216.502 187.472 210.584 192.707C203.238 199.208 198.019 207.806 195.629 217.29C193.911 224.106 194.553 234.353 187.184 238.157C181.423 241.13 172.415 234.648 167.687 231.999C156.214 225.573 143.066 219.584 129.614 221.387C117.05 223.071 107.876 228.096 100.026 237.914C96.3444 242.519 94.005 249.96 97.6398 255.287C101.562 261.033 109.159 260.448 115.127 258.981C123.092 257.024 132.701 254.814 140.897 256.521C161.753 260.865 180.224 288.748 203.149 281.173C215.939 276.947 219.041 256.558 226.079 246.438C239.467 227.187 263.918 221.931 286.02 224.66" stroke="#039855" stroke-width="13.8" stroke-miterlimit="1.5" stroke-linecap="round" stroke-linejoin="round"/>
<path d="M539.4 185.023C531.045 171.674 527.727 150.951 515.01 141.107C492.822 123.932 454.592 145.725 452.968 171.81C451.755 191.296 458.929 208.242 464.728 226.289C467.267 234.192 470.98 248.122 466.914 256.144C461.152 267.513 450.497 269.249 440.045 274.629C428.638 280.502 418.407 288.672 407.088 294.828C384.681 307.013 358.491 317.42 334.246 303.777C319.418 295.433 308.401 281.405 294.237 271.978C282.036 263.859 261.017 257.804 252.172 273.821C239.414 296.926 267.853 300.77 279.666 309.243C290.603 317.088 297.176 329.181 307.405 337.706C318.687 347.106 355.764 351.766 338.133 376.062C334.192 381.492 329.57 385.984 325.951 391.75C321.462 398.901 316.174 406.843 308.532 410.947C297.743 416.74 293.62 410.157 291.024 399.481C285.388 376.308 289.038 353.159 265.563 338.622C244.701 325.704 221.143 332.169 198.682 327.383C179.394 323.271 165 309.605 146.54 304.149" stroke="#62FF62" stroke-width="13.8" stroke-miterlimit="1.5" stroke-linecap="round" stroke-linejoin="round"/>
<path d="M-59.3468 187.085C-57.7424 189.257 -55.8771 191.389 -53.7629 193.081C-40.0364 204.071 -29.3815 184.883 -24.9262 174.943C-23.9325 172.727 -23.1281 170.393 -22.3065 168.107C-21.2196 165.083 -19.9149 162.117 -18.4067 159.281C-16.3021 155.327 -13.9381 151.204 -10.968 147.826C-2.79188 138.53 10.1906 136.305 18.5627 146.479C22.7264 151.539 24.8787 158.301 25.8486 164.699C27.8526 177.923 25.0778 196.142 15.3026 205.983C9.59488 211.73 1.85794 214.804 -4.96802 218.937C-13.8829 224.336 -22.0553 230.82 -28.9871 238.63C-33.9485 244.219 -38.2487 250.676 -41.2113 257.544C-44.8539 265.989 -47.1986 274.865 -53.3439 281.951C-64.1054 294.356 -85.0544 303.515 -80.7974 323.122C-77.6726 337.512 -54.1572 332.909 -45.0008 328.983C-42.3707 327.856 -39.8128 326.515 -37.4771 324.853C-18.031 311.021 -20.5978 282.126 -7.73912 263.412C-2.4437 255.706 9.5845 245.716 17.9887 255.329C36.3665 276.353 12.694 302.054 5.55718 321.686C0.899917 334.499 3.7426 351.12 -9.35912 359.322C-11.9826 360.965 -14.8207 362.214 -17.7708 363.14C-27.6824 366.246 -38.1637 366.793 -48.0269 363.221C-56.493 360.156 -64.3604 353.489 -73.889 354.276" stroke="#62FF62" stroke-width="13.8" stroke-miterlimit="1.5" stroke-linecap="round" stroke-linejoin="round"/>
<path d="M-152.659 299.57C-166.466 317.49 -188.29 323.52 -204.721 338.096C-212.713 345.185 -220.384 352.731 -218.027 364.367C-215.842 375.162 -202.478 377.204 -193.558 375.645C-175.209 372.438 -149.132 355.26 -132.167 365.474C-120.446 372.53 -113.705 385.143 -101.897 391.916C-89.5746 398.984 -76.4802 395.633 -63.4836 399.601C-52.6688 402.903 -44.9672 411.417 -34.5349 415.218C-18.1836 421.178 4.43815 413.195 16.2577 428.198C28.6851 443.972 25.24 461.518 27.1084 480.012C28.4226 493.02 32.9521 505.016 36.48 517.49" stroke="#B7FF93" stroke-width="13.8" stroke-miterlimit="1.5" stroke-linecap="round" stroke-linejoin="round"/>
<path d="M-106.879 485.057C-77.0607 502.093 -56.2662 515.404 -20.5193 512.805C0.555455 511.273 4.40469 478.858 -10.7028 466.953C-21.5154 458.432 -38.023 460.725 -50.8357 460.671C-68.7729 460.595 -88.5273 457.964 -104.967 450.423C-120.739 443.19 -131.383 428.694 -145.588 419.163C-149.371 416.624 -157.889 410.942 -161.302 415.887C-173.815 434.022 -154.123 454.575 -146.205 470.171C-139.533 483.312 -136.808 499.167 -134.663 513.65" stroke="#039855" stroke-width="13.8" stroke-miterlimit="1.5" stroke-linecap="round" stroke-linejoin="round"/>
<path d="M222.48 425.145C232.392 411.725 244.115 411.801 254.987 424.654C268.15 440.213 271.273 463.03 295.349 464.277C331.276 466.139 335.935 418.55 366.96 404.27" stroke="#039855" stroke-width="13.8" stroke-miterlimit="1.5" stroke-linecap="round" stroke-linejoin="round"/>
<path d="M246.256 -94.0317C238.82 -72.1931 234.18 -3.41881 195.729 -6.77509" stroke="#039855" stroke-width="13.8" stroke-miterlimit="1.5" stroke-linecap="round" stroke-linejoin="round"/>
<path d="M235.992 472.367C223.538 481.588 212.826 492.143 205.882 507.159C198.458 523.212 196.848 541.025 181.89 551.176C160.812 565.481 142.97 547.635 121.603 546.978C86.8688 542.307 68.591 589.119 -13.553 547.778" stroke="#039855" stroke-width="13.8" stroke-miterlimit="1.5" stroke-linecap="round" stroke-linejoin="round"/>
<path d="M71.5 518.565C62.2516 473.606 96.6292 465.028 149.068 511.104" stroke="#039855" stroke-width="13.8" stroke-miterlimit="1.5" stroke-linecap="round" stroke-linejoin="round"/>
<path d="M8.88794 3.16766C69.8927 10.7569 65.8043 -16.0974 149.067 -23.0843" stroke="#62FF62" stroke-width="13.8" stroke-miterlimit="1.5" stroke-linecap="round" stroke-linejoin="round"/>
<path d="M-40.3804 59.0301C-20.3258 56.4891 -0.0144075 53.8047 18.7796 46.0701" stroke="#039855" stroke-width="13.8" stroke-miterlimit="1.5" stroke-linecap="round" stroke-linejoin="round"/>
<path d="M90.451 316.058C87.1612 325.604 84.0106 335.595 82.7896 345.638" stroke="#039855" stroke-width="13.8" stroke-miterlimit="1.5" stroke-linecap="round" stroke-linejoin="round"/>
<path d="M57.9393 39.7492C54.1111 40.3798 49.4061 40.9714 46.1289 43.3012C40.2882 47.452 39.5008 55.3054 40.0421 62.0008C41.1852 76.1248 46.7762 89.5492 48.603 103.59C50.4656 117.907 48.8297 131.606 49.1824 145.889C49.4426 156.432 52.1128 169.679 65.1 168.312C91.6272 165.52 86.844 133.291 82.659 115.484C81.6732 111.29 80.8758 107.093 80.3484 102.81C79.6506 97.1362 79.0146 91.2988 79.251 85.5766C79.7028 74.6746 81.7674 63.7444 84.4704 53.2006C86.6628 44.6482 89.3268 35.899 94.3788 28.5928C108.721 7.85261 139.353 2.7526 162.401 6.42857C173.01 8.12021 183.015 12.0525 193.199 15.3519" stroke="#039855" stroke-width="13.8" stroke-miterlimit="1.5" stroke-linecap="round" stroke-linejoin="round"/>
<path d="M419.415 218.833C427.603 262.478 363.555 293.069 334.07 262.016C315.328 242.276 312.544 212.943 322.633 188.427C327.428 176.776 348.351 155.78 337.251 144.398C332.699 139.729 324.61 141.523 319.109 142.918C303.733 146.818 262.601 174.546 262.389 139.8C262.367 136.234 262.884 132.606 264.094 129.243C269.065 115.43 284.829 110.055 297.933 106.923C326.594 100.072 370.503 101.115 387.298 130.763C395.404 145.071 385.563 154.464 376.644 165.26C368.443 175.185 359.169 187.599 354.478 199.638C349.983 211.174 349.914 225.3 360.323 233.569C369.129 240.566 381.504 233.87 386.069 225.226C390.633 216.582 389.659 206.321 394.133 197.715C398.587 189.146 406.245 182.691 410.972 174.255C416.361 164.636 418.336 153.419 422.877 143.355C426.7 134.882 432.49 122.62 428.881 113.181C424.956 102.918 408.124 105.869 399.133 98.8251C388.084 90.1695 377.57 80.2203 364.808 74.0277C337.273 60.6687 300.285 61.4337 271.591 70.9605C256.578 75.9459 245.236 89.5071 229.691 92.5221C209.833 96.3735 193.548 81.8487 175.582 85.0089C162.841 87.2499 157.265 106.067 165.963 115.242C182.991 133.205 207.677 107.891 225.799 118.311" stroke="#A6F4C5" stroke-width="13.8" stroke-miterlimit="1.5" stroke-linecap="round" stroke-linejoin="round"/>
<path d="M238.919 365.942C214.454 373.17 194.025 382.64 186.689 409.186C184.935 415.537 184.045 421.902 184.404 428.495C185.371 446.291 193.23 472.229 165.187 471.825C133.974 471.377 142.339 423.483 145.41 404.03C146.476 397.272 147.078 389.093 150.981 383.25C157.617 373.312 171.154 370.474 177.258 360.449C181.288 353.826 176.445 346.45 171.234 342.324C143.096 320.044 105.037 352.443 103.107 382.524C102.017 399.513 111.88 417.914 104.445 434.335C97.8554 448.886 81.251 447.341 72.47 435.779C64.5974 425.416 52.2191 411.953 51.5696 399.481C50.8612 385.893 53.3457 373.941 51.5696 360.449C49.5847 345.374 48.3298 318.971 60.3554 309.243" stroke="#B7FF93" stroke-width="13.8" stroke-miterlimit="1.5" stroke-linecap="round" stroke-linejoin="round"/>
</g>
</g>
<defs>
<clipPath id="clip0_5797_8334">
<rect y="-50" width="600" height="600" rx="24" fill="white"/>
</clipPath>
</defs>
</svg>
