<svg width="600" height="500" viewBox="0 0 600 500" fill="none" xmlns="http://www.w3.org/2000/svg">
<g opacity="0.04">
<g clip-path="url(#clip0_5797_8333)">
<path d="M506.76 95.1742C505.294 92.3002 503.098 87.5494 500.027 86.1316C494.988 83.8054 489.623 87.7 485.099 89.7376C476.725 93.508 467.282 95.9248 459.333 89.8792C450.157 82.9012 447.42 69.7054 438.274 62.5276C426.846 53.5588 411.995 51.8986 399.293 45.8656C388.525 40.7512 379.631 32.2744 368.852 27.0946C349.67 17.8792 319.644 13.438 298.613 15.4792C279.998 17.2864 261.193 22.27 243.542 28.66C232.771 32.5588 222.907 38.4022 211.575 40.5166C184.567 45.5554 152.629 29.0086 130.063 51.154C110.733 70.1218 109.949 101.01 119.663 125.25C125.327 139.385 138.879 152.831 130.548 168.708C123.741 181.681 108.703 185.778 96.7704 191.481C74.9994 201.885 56.1662 219.889 58.166 247.49" stroke="#B7FF93" stroke-width="13.8" stroke-miterlimit="1.5" stroke-linecap="round" stroke-linejoin="round"/>
<path d="M174.082 201.677C172.298 196.071 169.537 189.705 169.802 183.741C170.485 168.38 186.004 157.633 199.327 153.63C205.238 151.853 224.317 146.783 229.99 150.17C235.087 153.211 237.236 159.85 238.905 165.181C239.834 168.148 241.747 172.359 241.137 175.511C240.293 179.875 234.591 180.456 231.089 181.406C223.441 183.483 216.502 187.472 210.584 192.707C203.238 199.208 198.019 207.806 195.629 217.29C193.911 224.106 194.553 234.353 187.184 238.157C181.423 241.13 172.415 234.648 167.687 231.999C156.214 225.573 143.066 219.584 129.614 221.387C117.05 223.071 107.876 228.096 100.026 237.914C96.3444 242.519 94.005 249.96 97.6398 255.287C101.562 261.033 109.159 260.448 115.127 258.981C123.092 257.024 132.701 254.814 140.897 256.521C161.753 260.865 180.224 288.748 203.149 281.173C215.939 276.947 219.041 256.558 226.079 246.438C239.467 227.187 263.918 221.931 286.02 224.66" stroke="#039855" stroke-width="13.8" stroke-miterlimit="1.5" stroke-linecap="round" stroke-linejoin="round"/>
<path d="M539.4 185.023C531.045 171.674 527.727 150.951 515.01 141.107C492.822 123.932 454.591 145.725 452.968 171.81C451.755 191.296 458.929 208.242 464.728 226.289C467.266 234.192 470.98 248.122 466.914 256.144C461.152 267.513 450.497 269.249 440.045 274.629C428.638 280.502 418.407 288.672 407.088 294.828C384.681 307.013 358.491 317.42 334.246 303.777C319.418 295.433 308.401 281.405 294.237 271.978C282.036 263.859 261.017 257.804 252.172 273.821C239.414 296.926 267.853 300.77 279.666 309.243C290.603 317.088 297.176 329.181 307.405 337.706C318.687 347.106 355.764 351.766 338.133 376.062C334.192 381.492 329.57 385.984 325.951 391.75C321.462 398.901 316.174 406.843 308.532 410.947C297.743 416.74 293.62 410.157 291.024 399.481C285.388 376.308 289.038 353.159 265.563 338.622C244.701 325.704 221.143 332.169 198.682 327.383C179.394 323.271 165 309.605 146.54 304.149" stroke="#62FF62" stroke-width="13.8" stroke-miterlimit="1.5" stroke-linecap="round" stroke-linejoin="round"/>
<path d="M540.653 187.085C542.258 189.257 544.123 191.389 546.238 193.081C559.964 204.071 570.619 184.883 575.074 174.943C576.068 172.727 576.872 170.393 577.694 168.107C578.78 165.083 580.085 162.117 581.593 159.281C583.698 155.327 586.062 151.204 589.032 147.826C597.208 138.53 610.188 136.305 618.564 146.479C622.728 151.539 624.876 158.301 625.848 164.699C627.852 177.923 625.08 196.142 615.3 205.983C609.594 211.73 601.86 214.804 595.032 218.937C586.117 224.336 577.945 230.82 571.013 238.63C566.051 244.219 561.752 250.676 558.789 257.544C555.146 265.989 552.802 274.865 546.656 281.951C535.895 294.356 514.946 303.515 519.203 323.122C522.328 337.512 545.843 332.909 554.999 328.983C557.63 327.856 560.188 326.515 562.523 324.853C581.969 311.021 579.403 282.126 592.261 263.412C597.557 255.706 609.582 245.716 617.988 255.329C636.366 276.353 612.696 302.054 605.556 321.686C600.9 334.499 603.744 351.12 590.641 359.322C588.017 360.965 585.179 362.214 582.229 363.14C572.318 366.246 561.836 366.793 551.974 363.221C543.507 360.156 535.64 353.489 526.111 354.276" stroke="#7CFF62" stroke-width="13.8" stroke-miterlimit="1.5" stroke-linecap="round" stroke-linejoin="round"/>
<path d="M-59.3467 187.085C-57.7423 189.257 -55.877 191.389 -53.7627 193.081C-40.0363 204.071 -29.3814 184.883 -24.9261 174.943C-23.9324 172.727 -23.128 170.393 -22.3064 168.107C-21.2194 165.083 -19.9148 162.117 -18.4066 159.281C-16.302 155.327 -13.938 151.204 -10.9678 147.826C-2.79176 138.53 10.1907 136.305 18.5628 146.479C22.7265 151.539 24.8789 158.301 25.8488 164.699C27.8527 177.923 25.0779 196.142 15.3027 205.983C9.595 211.73 1.85806 214.804 -4.9679 218.937C-13.8828 224.336 -22.0552 230.82 -28.987 238.63C-33.9484 244.219 -38.2485 250.676 -41.2112 257.544C-44.8538 265.989 -47.1985 274.865 -53.3438 281.951C-64.1053 294.356 -85.0543 303.515 -80.7973 323.122C-77.6725 337.512 -54.1571 332.909 -45.0007 328.983C-42.3705 327.856 -39.8127 326.515 -37.4769 324.853C-18.0309 311.021 -20.5977 282.126 -7.739 263.412C-2.44358 255.706 9.58462 245.716 17.9888 255.329C36.3666 276.353 12.6941 302.054 5.5573 321.686C0.900039 334.499 3.74272 351.12 -9.359 359.322C-11.9825 360.965 -14.8206 362.214 -17.7706 363.14C-27.6823 366.246 -38.1636 366.793 -48.0268 363.221C-56.4929 360.156 -64.3603 353.489 -73.8889 354.276" stroke="#62FF62" stroke-width="13.8" stroke-miterlimit="1.5" stroke-linecap="round" stroke-linejoin="round"/>
<path d="M496.014 174.41C490.974 200.026 511.387 215.405 511.735 239.684C512.157 269.067 480.511 305.355 464.1 328.19" stroke="#039855" stroke-width="13.8" stroke-miterlimit="1.5" stroke-linecap="round" stroke-linejoin="round"/>
<path d="M441.21 309.311C427.403 327.231 414.682 321.885 398.25 336.461C390.258 343.549 376.124 356.925 378.48 368.561C380.665 379.356 393.77 390.849 402.69 389.291C421.039 386.084 450.868 355.26 467.833 365.474C479.554 372.53 486.295 385.143 498.103 391.916C510.425 398.984 523.52 395.633 536.516 399.601C547.331 402.903 555.033 411.417 565.465 415.218C581.816 421.178 604.44 413.195 616.26 428.198C628.686 443.972 625.242 461.518 627.108 480.012C628.422 493.02 632.952 505.016 636.48 517.49" stroke="#B7FF93" stroke-width="13.8" stroke-miterlimit="1.5" stroke-linecap="round" stroke-linejoin="round"/>
<path d="M-152.659 299.57C-166.466 317.49 -188.29 323.52 -204.721 338.096C-212.713 345.185 -220.384 352.731 -218.027 364.367C-215.842 375.162 -202.478 377.204 -193.558 375.645C-175.209 372.438 -149.132 355.26 -132.167 365.474C-120.446 372.53 -113.705 385.143 -101.897 391.916C-89.5746 398.984 -76.4802 395.633 -63.4836 399.601C-52.6688 402.903 -44.9672 411.417 -34.5349 415.218C-18.1836 421.178 4.43815 413.195 16.2577 428.198C28.6851 443.972 25.24 461.518 27.1084 480.012C28.4226 493.02 32.9521 505.016 36.48 517.49" stroke="#B7FF93" stroke-width="13.8" stroke-miterlimit="1.5" stroke-linecap="round" stroke-linejoin="round"/>
<path d="M493.121 485.057C522.939 502.093 543.734 515.404 579.481 512.805C600.558 511.273 604.404 478.858 589.297 466.953C578.485 458.432 561.977 460.725 549.164 460.671C531.227 460.595 511.473 457.964 495.033 450.423C479.261 443.19 468.617 428.694 454.412 419.163C450.629 416.624 442.111 410.942 438.698 415.887C426.185 434.022 445.877 454.575 453.795 470.171C460.467 483.312 463.192 499.167 465.337 513.65" stroke="#039855" stroke-width="13.8" stroke-miterlimit="1.5" stroke-linecap="round" stroke-linejoin="round"/>
<path d="M-106.879 485.057C-77.0608 502.093 -56.2663 515.404 -20.5194 512.805C0.555333 511.273 4.40457 478.858 -10.703 466.953C-21.5155 458.432 -38.0231 460.725 -50.8359 460.671C-68.773 460.595 -88.5274 457.964 -104.967 450.423C-120.739 443.19 -131.383 428.694 -145.588 419.163C-149.371 416.624 -157.889 410.942 -161.302 415.887C-173.816 434.022 -154.124 454.575 -146.205 470.171C-139.533 483.312 -136.808 499.167 -134.663 513.65" stroke="#039855" stroke-width="13.8" stroke-miterlimit="1.5" stroke-linecap="round" stroke-linejoin="round"/>
<path d="M222.48 425.145C232.392 411.725 244.115 411.801 254.987 424.654C268.15 440.213 271.273 463.03 295.349 464.277C331.276 466.139 335.935 418.55 366.96 404.27" stroke="#039855" stroke-width="13.8" stroke-miterlimit="1.5" stroke-linecap="round" stroke-linejoin="round"/>
<path d="M257.28 476.003C269.006 494.838 290.474 508.624 313.321 502.516C331.772 497.583 350.298 481.739 363.266 468.251C370.917 460.293 384.872 433.771 398.072 437.955C407.691 441.003 412.841 451.76 414.643 460.975C418.426 480.328 411.174 499.716 421.14 518.03" stroke="#A6F4C5" stroke-width="13.8" stroke-miterlimit="1.5" stroke-linecap="round" stroke-linejoin="round"/>
<path d="M390.429 481.112C390.429 495.756 378.435 508.821 388.344 556.505" stroke="#A6F4C5" stroke-width="13.8" stroke-miterlimit="1.5" stroke-linecap="round" stroke-linejoin="round"/>
<path d="M246.256 -94.0317C238.82 -72.1931 234.18 -3.41881 195.729 -6.77509" stroke="#039855" stroke-width="13.8" stroke-miterlimit="1.5" stroke-linecap="round" stroke-linejoin="round"/>
<path d="M235.992 472.367C223.538 481.588 212.826 492.143 205.882 507.159C198.458 523.212 196.848 541.025 181.89 551.176C160.812 565.481 142.97 547.635 121.603 546.978C86.8688 542.307 68.591 589.119 -13.553 547.778" stroke="#039855" stroke-width="13.8" stroke-miterlimit="1.5" stroke-linecap="round" stroke-linejoin="round"/>
<path d="M71.5 518.565C62.2516 473.606 96.6292 465.028 149.068 511.104" stroke="#039855" stroke-width="13.8" stroke-miterlimit="1.5" stroke-linecap="round" stroke-linejoin="round"/>
<path d="M254.88 -12.5423C281.481 -18.3923 309.709 -25.875 336.973 -20.4568C359.24 -16.0325 378.627 -3.03225 400.437 2.77965C435.455 12.1113 455.847 4.73157 478.98 38.9901" stroke="#039855" stroke-width="13.8" stroke-miterlimit="1.5" stroke-linecap="round" stroke-linejoin="round"/>
<path d="M530.04 -5.76984C516.763 12.8938 500.393 35.1316 503.636 59.5102" stroke="#A6F4C5" stroke-width="13.8" stroke-miterlimit="1.5" stroke-linecap="round" stroke-linejoin="round"/>
<path d="M568.144 -0.669861C557.284 14.0781 538.85 29.494 535.635 48.4018C533.791 59.2504 538.431 69.8698 537.918 80.8168C537.648 86.6002 538.294 113.133 544.836 116.207C560.301 123.476 581.728 91.8058 599.1 90.9004" stroke="#039855" stroke-width="13.8" stroke-miterlimit="1.5" stroke-linecap="round" stroke-linejoin="round"/>
<path d="M8.88794 3.16766C69.8927 10.7569 65.8043 -16.0974 149.067 -23.0843" stroke="#62FF62" stroke-width="13.8" stroke-miterlimit="1.5" stroke-linecap="round" stroke-linejoin="round"/>
<path d="M-40.3805 59.0301C-20.326 56.4891 -0.0145296 53.8047 18.7795 46.0701" stroke="#039855" stroke-width="13.8" stroke-miterlimit="1.5" stroke-linecap="round" stroke-linejoin="round"/>
<path d="M559.98 59.0301C580.035 56.4891 600.346 53.8047 619.14 46.0701" stroke="#039855" stroke-width="13.8" stroke-miterlimit="1.5" stroke-linecap="round" stroke-linejoin="round"/>
<path d="M90.4511 316.058C87.1613 325.604 84.0107 335.595 82.7897 345.638" stroke="#039855" stroke-width="13.8" stroke-miterlimit="1.5" stroke-linecap="round" stroke-linejoin="round"/>
<path d="M57.9395 39.7492C54.1113 40.3798 49.4062 40.9714 46.1291 43.3012C40.2884 47.452 39.5009 55.3054 40.0422 62.0008C41.1854 76.1248 46.7763 89.5492 48.6031 103.59C50.4657 117.907 48.8298 131.606 49.1825 145.889C49.4427 156.432 52.1129 169.679 65.1002 168.312C91.6274 165.52 86.8442 133.291 82.6592 115.484C81.6734 111.29 80.876 107.093 80.3486 102.81C79.6508 97.1362 79.0148 91.2988 79.2512 85.5766C79.703 74.6746 81.7676 63.7444 84.4706 53.2006C86.663 44.6482 89.327 35.899 94.379 28.5928C108.721 7.85261 139.353 2.7526 162.401 6.42857C173.01 8.12021 183.015 12.0525 193.2 15.3519" stroke="#039855" stroke-width="13.8" stroke-miterlimit="1.5" stroke-linecap="round" stroke-linejoin="round"/>
<path d="M419.415 218.833C427.603 262.478 363.555 293.069 334.07 262.016C315.328 242.276 312.544 212.943 322.633 188.427C327.428 176.776 348.351 155.78 337.251 144.398C332.699 139.729 324.61 141.523 319.109 142.918C303.733 146.818 262.601 174.546 262.389 139.8C262.367 136.234 262.884 132.606 264.094 129.243C269.065 115.43 284.829 110.055 297.933 106.923C326.594 100.072 370.503 101.115 387.298 130.763C395.404 145.071 385.563 154.464 376.644 165.26C368.443 175.185 359.169 187.599 354.478 199.638C349.983 211.174 349.914 225.3 360.323 233.569C369.129 240.566 381.504 233.87 386.069 225.226C390.633 216.582 389.659 206.321 394.133 197.715C398.587 189.146 406.245 182.691 410.972 174.255C416.361 164.636 418.336 153.419 422.877 143.355C426.7 134.882 432.49 122.62 428.881 113.181C424.956 102.918 408.124 105.869 399.133 98.8251C388.084 90.1695 377.57 80.2203 364.808 74.0277C337.273 60.6687 300.285 61.4337 271.591 70.9605C256.578 75.9459 245.236 89.5071 229.691 92.5221C209.833 96.3735 193.548 81.8487 175.582 85.0089C162.841 87.2499 157.265 106.067 165.963 115.242C182.991 133.205 207.677 107.891 225.799 118.311" stroke="#A6F4C5" stroke-width="13.8" stroke-miterlimit="1.5" stroke-linecap="round" stroke-linejoin="round"/>
<path d="M238.919 365.942C214.454 373.17 194.025 382.64 186.689 409.186C184.935 415.537 184.045 421.902 184.404 428.495C185.371 446.291 193.23 472.229 165.187 471.825C133.974 471.377 142.339 423.483 145.41 404.03C146.476 397.272 147.078 389.093 150.981 383.25C157.617 373.312 171.154 370.474 177.258 360.449C181.288 353.826 176.445 346.45 171.234 342.324C143.096 320.044 105.037 352.443 103.107 382.524C102.017 399.513 111.88 417.914 104.445 434.335C97.8554 448.886 81.251 447.341 72.47 435.779C64.5974 425.416 52.2191 411.953 51.5696 399.481C50.8612 385.893 53.3457 373.941 51.5696 360.449C49.5847 345.374 48.3298 318.971 60.3554 309.243" stroke="#B7FF93" stroke-width="13.8" stroke-miterlimit="1.5" stroke-linecap="round" stroke-linejoin="round"/>
</g>
</g>
<defs>
<clipPath id="clip0_5797_8333">
<rect y="-50" width="600" height="600" rx="24" fill="white"/>
</clipPath>
</defs>
</svg>
