<svg width="24" height="24" viewBox="0 0 24 24" fill="none" xmlns="http://www.w3.org/2000/svg">
<path d="M8 7V5.501C8 4.12029 9.11929 3.001 10.5 3.001H16.472C16.6048 2.99258 16.7429 3.03684 16.8536 3.14745L19.8536 6.14745C19.9642 6.25806 20.0084 6.39623 20 6.52898V14.501C20 15.8817 18.8807 17.001 17.5 17.001H16V18.5C16 19.8807 14.8807 21 13.5 21H6.5C5.11929 21 4 19.8807 4 18.5V9.5C4 8.11929 5.11929 7 6.5 7H8ZM8 8H6.5C5.67157 8 5 8.67157 5 9.5V18.5C5 19.3284 5.67157 20 6.5 20H13.5C14.3284 20 15 19.3284 15 18.5V17.001H12.5C12.2239 17.001 12 16.7771 12 16.501C12 16.2249 12.2239 16.001 12.5 16.001H17.5C18.3284 16.001 19 15.3294 19 14.501V7.001H16.5C16.2239 7.001 16 6.77714 16 6.501V4.001H10.5C9.67157 4.001 9 4.67258 9 5.501V10.5C9 10.7762 8.77615 11 8.50001 11H8.5C8.22386 11 8 10.7761 8 10.5V8ZM17 6.001H18.2929L17 4.70811V6.001ZM13.2929 10H11.5C11.2239 10 11 9.77614 11 9.5C11 9.22386 11.2239 9 11.5 9H14.5C14.7761 9 15 9.22386 15 9.5V12.5C15 12.7761 14.7761 13 14.5 13C14.2239 13 14 12.7761 14 12.5V10.7071L8.85355 15.8536C8.65829 16.0488 8.34171 16.0488 8.14645 15.8536C7.95118 15.6583 7.95118 15.3417 8.14645 15.1464L13.2929 10Z" fill="#151716"/>
</svg>
