<svg width="24" height="24" viewBox="0 0 24 24" fill="none" xmlns="http://www.w3.org/2000/svg">
<path d="M20.0002 11.5C20.0002 11.2239 20.2241 11 20.5002 11C20.7763 11 21.0002 11.2239 21.0002 11.5V18.5C21.0002 19.8807 19.8809 21 18.5002 21H5.48633C4.10562 21 2.98633 19.8807 2.98633 18.5V5.5C2.98633 4.11929 4.10562 3 5.48633 3H12.5002C12.7763 3 13.0002 3.22386 13.0002 3.5C13.0002 3.77614 12.7763 4 12.5002 4H5.48633C4.6579 4 3.98633 4.67157 3.98633 5.5V18.5C3.98633 19.3284 4.6579 20 5.48633 20H18.5002C19.3286 20 20.0002 19.3284 20.0002 18.5V11.5ZM18.8538 3.14645L20.8538 5.14645C21.049 5.34171 21.049 5.65829 20.8538 5.85355L12.8538 13.8536C12.76 13.9473 12.6328 14 12.5002 14H10.5002C10.2241 14 10.0002 13.7761 10.0002 13.5V11.5C10.0002 11.3674 10.0529 11.2402 10.1467 11.1464L18.1467 3.14645C18.3419 2.95118 18.6585 2.95118 18.8538 3.14645ZM18.5002 4.20711L11.0002 11.7071V13H12.2931L19.7931 5.5L18.5002 4.20711Z" fill="#151716"/>
</svg>
