<svg width="20" height="20" viewBox="0 0 20 20" fill="none" xmlns="http://www.w3.org/2000/svg">
<path d="M10.4167 15.833L10.4167 18.333" stroke="#039855" stroke-width="1.5" stroke-linejoin="round"/>
<path d="M8.33331 18.333H12.5" stroke="#039855" stroke-width="1.5" stroke-linejoin="round"/>
<ellipse cx="5.83333" cy="5.83333" rx="5.83333" ry="5.83333" transform="matrix(-1 0 0 1 17.0833 1.6665)" stroke="#039855" stroke-width="1.5" stroke-linejoin="round"/>
<path d="M7.08333 3.33317C7.62859 3.36525 7.9103 3.63233 8.39456 4.14402C9.26924 5.06822 10.1439 5.14534 10.727 4.83727C11.6017 4.37517 10.8667 3.62668 11.8933 3.21991C12.5623 2.9548 12.6556 2.23339 12.2832 1.6665" stroke="#039855" stroke-width="1.5" stroke-linejoin="round"/>
<path d="M16.6667 8.33301C15.4167 8.33301 15.1949 9.37198 14.1667 9.16634C12.0833 8.74967 11.493 9.21546 11.493 10.2089C11.493 11.2023 11.493 11.2023 11.0597 11.9474C10.7779 12.4321 10.6794 12.9167 11.2412 13.333" stroke="#039855" stroke-width="1.5" stroke-linejoin="round"/>
<path d="M5.41666 1.6665C3.87385 3.16646 2.91666 5.25667 2.91666 7.56859C2.91666 12.133 6.64762 15.8332 11.25 15.8332C13.5212 15.8332 15.5802 14.9321 17.0833 13.4707" stroke="#039855" stroke-width="1.5" stroke-linejoin="round"/>
</svg>
