<svg width="20" height="20" viewBox="0 0 20 20" fill="none" xmlns="http://www.w3.org/2000/svg">
<g clip-path="url(#clip0_6308_10687)">
<path d="M19.7609 10.1868C19.7609 9.36743 19.6944 8.76949 19.5505 8.14941H10.1938V11.8477H15.686C15.5753 12.7668 14.9774 14.1509 13.6486 15.081L13.63 15.2048L16.5884 17.4967L16.7933 17.5171C18.6757 15.7787 19.7609 13.2208 19.7609 10.1868Z" fill="#4285F4"/>
<path d="M10.1942 19.9312C12.8849 19.9312 15.1437 19.0453 16.7936 17.5173L13.6489 15.0812C12.8074 15.6681 11.6779 16.0777 10.1942 16.0777C7.55883 16.0777 5.32211 14.3393 4.52479 11.9365L4.40792 11.9464L1.33173 14.3271L1.2915 14.439C2.93028 17.6944 6.29647 19.9312 10.1942 19.9312Z" fill="#34A853"/>
<path d="M4.52526 11.9363C4.31488 11.3163 4.19313 10.6518 4.19313 9.96534C4.19313 9.27878 4.31488 8.61443 4.51419 7.99435L4.50862 7.86229L1.39389 5.44336L1.29198 5.49183C0.616561 6.84275 0.229004 8.35977 0.229004 9.96534C0.229004 11.5709 0.616561 13.0879 1.29198 14.4388L4.52526 11.9363Z" fill="#FBBC05"/>
<path d="M10.1942 3.85336C12.0655 3.85336 13.3278 4.66168 14.0475 5.33718L16.8601 2.59107C15.1327 0.985496 12.8849 0 10.1942 0C6.29647 0 2.93028 2.23672 1.2915 5.49214L4.51372 7.99466C5.32211 5.59183 7.55883 3.85336 10.1942 3.85336Z" fill="#EB4335"/>
</g>
<defs>
<clipPath id="clip0_6308_10687">
<rect width="19.542" height="20" fill="white" transform="translate(0.229004)"/>
</clipPath>
</defs>
</svg>
