<svg width="20" height="20" viewBox="0 0 20 20" fill="none" xmlns="http://www.w3.org/2000/svg">
    <path
        d="M6.66675 18.5998C6.43341 18.5998 6.19173 18.5415 5.97507 18.4249C5.50007 18.1749 5.20842 17.6748 5.20842 17.1415V15.9582C2.69175 15.6999 1.04175 13.8498 1.04175 11.1998V6.19987C1.04175 3.3332 2.96675 1.4082 5.83342 1.4082H14.1667C17.0334 1.4082 18.9584 3.3332 18.9584 6.19987V11.1998C18.9584 14.0665 17.0334 15.9915 14.1667 15.9915H11.0251L7.47506 18.3582C7.23339 18.5166 6.95008 18.5998 6.66675 18.5998ZM5.83342 2.64986C3.68341 2.64986 2.29175 4.04153 2.29175 6.19153V11.1916C2.29175 13.3416 3.68341 14.7332 5.83342 14.7332C6.17508 14.7332 6.45842 15.0166 6.45842 15.3582V17.1332C6.45842 17.2416 6.52509 17.2916 6.56675 17.3166C6.60842 17.3416 6.69176 17.3666 6.78343 17.3082L10.4918 14.8416C10.5918 14.7749 10.7168 14.7332 10.8418 14.7332H14.1751C16.3251 14.7332 17.7168 13.3416 17.7168 11.1916V6.19153C17.7168 4.04153 16.3251 2.64986 14.1751 2.64986H5.83342Z"
        fill="#344054"
    />
    <path
        d="M9.99977 10.0916C9.6581 10.0916 9.37477 9.80822 9.37477 9.46655V9.29159C9.37477 8.32492 10.0831 7.84991 10.3498 7.66658C10.6581 7.45824 10.7581 7.31658 10.7581 7.09991C10.7581 6.68325 10.4164 6.34155 9.99977 6.34155C9.5831 6.34155 9.24146 6.68325 9.24146 7.09991C9.24146 7.44158 8.95812 7.72491 8.61646 7.72491C8.27479 7.72491 7.99146 7.44158 7.99146 7.09991C7.99146 5.99158 8.89143 5.09155 9.99977 5.09155C11.1081 5.09155 12.0081 5.99158 12.0081 7.09991C12.0081 8.04991 11.3081 8.5249 11.0498 8.6999C10.7248 8.91657 10.6248 9.05825 10.6248 9.29159V9.46655C10.6248 9.81655 10.3414 10.0916 9.99977 10.0916Z"
        fill="#344054"
    />
    <path
        d="M10 12.1667C9.65 12.1667 9.375 11.8834 9.375 11.5417C9.375 11.2001 9.65833 10.9167 10 10.9167C10.3417 10.9167 10.625 11.2001 10.625 11.5417C10.625 11.8834 10.35 12.1667 10 12.1667Z"
        fill="#344054"
    />
</svg> 