<svg width="20" height="21" viewBox="0 0 20 21" fill="none" xmlns="http://www.w3.org/2000/svg">
<path d="M17.3586 6.85796L11.9003 2.49129C10.8336 1.64129 9.16696 1.63296 8.10863 2.48296L2.65029 6.85796C1.86696 7.48296 1.39196 8.73296 1.55863 9.71629L2.60863 15.9996C2.85029 17.408 4.15863 18.5163 5.58363 18.5163L14.417 18.5163C15.8253 18.5163 17.1586 17.383 17.4003 15.9913L18.4503 9.70796C18.6003 8.73296 18.1253 7.48296 17.3586 6.85796ZM10.6253 15.183C10.6253 15.5246 10.342 15.808 10.0003 15.808C9.65863 15.808 9.37529 15.5246 9.37529 15.183V12.683C9.37529 12.3413 9.65863 12.058 10.0003 12.058C10.342 12.058 10.6253 12.3413 10.6253 12.683L10.6253 15.183Z" fill="white"/>
</svg>
