<svg width="28" height="28" viewBox="0 0 28 28" fill="none" xmlns="http://www.w3.org/2000/svg">
<path fill-rule="evenodd" clip-rule="evenodd" d="M20.6659 1.77783C21.2796 1.77783 21.777 2.27529 21.777 2.88894V6.22228H25.1104C25.724 6.22228 26.2215 6.71974 26.2215 7.33339C26.2215 7.94704 25.724 8.4445 25.1104 8.4445H21.777V11.7778C21.777 12.3915 21.2796 12.8889 20.6659 12.8889C20.0523 12.8889 19.5548 12.3915 19.5548 11.7778V8.4445H16.2215C15.6078 8.4445 15.1104 7.94704 15.1104 7.33339C15.1104 6.71974 15.6078 6.22228 16.2215 6.22228H19.5548V2.88894C19.5548 2.27529 20.0523 1.77783 20.6659 1.77783Z" fill="#344054"/>
<path fill-rule="evenodd" clip-rule="evenodd" d="M13.361 2.88916L13.4438 2.88916C14.0574 2.88916 14.5549 3.38662 14.5549 4.00027C14.5549 4.61392 14.0574 5.11138 13.4438 5.11138C10.9244 5.11138 9.14663 5.11374 7.80066 5.2947C6.48666 5.47137 5.75177 5.79971 5.21971 6.33177C4.68765 6.86383 4.35931 7.59872 4.18264 8.91272C4.00168 10.2587 3.99932 12.0364 3.99932 14.5558C3.99932 17.0752 4.00168 18.853 4.18264 20.1989C4.35931 21.5129 4.68765 22.2478 5.21971 22.7799C5.75177 23.3119 6.48666 23.6403 7.80066 23.817C9.14663 23.9979 10.9244 24.0003 13.4438 24.0003C15.9631 24.0003 17.7409 23.9979 19.0869 23.817C20.4009 23.6403 21.1358 23.3119 21.6678 22.7799C22.1999 22.2478 22.5282 21.5129 22.7049 20.1989C22.8859 18.853 22.8882 17.0752 22.8882 14.5558V14.0003C22.8882 13.3866 23.3857 12.8892 23.9993 12.8892C24.613 12.8892 25.1104 13.3866 25.1104 14.0003V14.6385C25.1105 17.0563 25.1105 18.9838 24.9073 20.495C24.6975 22.0555 24.2529 23.3375 23.2392 24.3512C22.2254 25.365 20.9434 25.8096 19.383 26.0194C17.8717 26.2225 15.9442 26.2225 13.5265 26.2225H13.3611C10.9433 26.2225 9.01583 26.2225 7.50456 26.0194C5.94414 25.8096 4.66213 25.365 3.64836 24.3512C2.6346 23.3375 2.19003 22.0555 1.98024 20.495C1.77705 18.9838 1.77707 17.0563 1.7771 14.6386V14.4731C1.77707 12.0554 1.77705 10.1279 1.98024 8.61662C2.19003 7.0562 2.6346 5.77419 3.64836 4.76042C4.66213 3.74666 5.94414 3.30209 7.50456 3.0923C9.01582 2.88911 10.9433 2.88913 13.361 2.88916Z" fill="#344054"/>
<path fill-rule="evenodd" clip-rule="evenodd" d="M4.90575 15.2793C8.03132 15.2154 11.0866 16.1897 13.5272 18.039C15.781 19.7468 17.3785 22.1014 18.073 24.7439C18.1373 24.9882 18.0872 25.2485 17.9369 25.4516C17.7865 25.6546 17.5522 25.7785 17.2998 25.7884C16.1903 25.8319 14.8984 25.8319 13.4034 25.8319H13.3258C10.8917 25.8319 8.97986 25.8319 7.48718 25.6313C5.95756 25.4256 4.74395 24.9956 3.79039 24.042C2.96166 23.2133 2.52464 22.1967 2.28923 20.9351C2.05868 19.6995 2.01125 18.1679 2.0005 16.2649C1.99815 15.8491 2.3026 15.4953 2.71404 15.4355C3.439 15.3302 4.17178 15.278 4.90575 15.2793ZM16.7989 18.8411C16.5441 18.5436 16.6439 18.0765 17.0169 17.9567C17.9693 17.6509 18.9447 17.4951 19.9314 17.4988C21.3937 17.4976 22.8368 17.8508 24.2182 18.5325C24.5229 18.6829 24.7058 19.0031 24.6805 19.3419C24.5301 21.3572 24.1408 22.8903 22.9889 24.0421C22.1197 24.9113 21.0344 25.3455 19.6907 25.5713C19.7937 25.1655 19.7946 24.7353 19.6855 24.3203C19.1538 22.2973 18.161 20.4312 16.7989 18.8411Z" fill="#344054"/>
</svg>
