<svg width="103" height="32" viewBox="0 0 103 32" fill="none" xmlns="http://www.w3.org/2000/svg">
<path d="M36.1253 16.5774L42.1218 9.29393C42.1554 9.2513 42.1765 9.20016 42.1827 9.14622C42.1888 9.09229 42.1799 9.03769 42.1567 8.98857C42.1336 8.93945 42.0973 8.89774 42.0518 8.86812C42.0063 8.8385 41.9534 8.82215 41.8992 8.82089H38.2609C38.2167 8.82087 38.1731 8.83088 38.1333 8.85016C38.0936 8.86944 38.0587 8.89748 38.0313 8.93219L34.3027 13.6696V9.1061C34.3027 9.03046 34.2726 8.95791 34.2191 8.90442C34.1656 8.85093 34.0931 8.82089 34.0174 8.82089H30.7757C30.7377 8.81996 30.6998 8.82665 30.6644 8.84057C30.629 8.85448 30.5967 8.87535 30.5695 8.90192C30.5423 8.9285 30.5206 8.96026 30.5059 8.99532C30.4911 9.03039 30.4835 9.06806 30.4835 9.1061V24.2157C30.4835 24.2932 30.5143 24.3675 30.5691 24.4223C30.6239 24.4771 30.6982 24.5078 30.7757 24.5078H33.9896C34.0659 24.506 34.1384 24.4744 34.1917 24.4198C34.245 24.3652 34.2748 24.292 34.2748 24.2157V19.3461L39.054 24.3826C39.0809 24.4109 39.1133 24.4334 39.1491 24.449C39.185 24.4645 39.2236 24.4727 39.2626 24.4731H43.3392C43.3956 24.4712 43.4502 24.4531 43.4965 24.4209C43.5429 24.3887 43.5789 24.3437 43.6002 24.2915C43.6215 24.2393 43.6273 24.182 43.6168 24.1266C43.6062 24.0711 43.5799 24.0199 43.5409 23.9791L36.1253 16.5774Z" fill="#151716"/>
<path d="M62.1357 5.21733C61.4952 5.17321 60.8632 5.38382 60.3773 5.80332C59.8913 6.22283 59.5907 6.81729 59.5409 7.45733C59.5856 8.10279 59.8832 8.70453 60.3691 9.13178C60.8549 9.55904 61.4898 9.77728 62.1357 9.73907C62.4537 9.75788 62.7723 9.71372 63.0733 9.60914C63.3742 9.50456 63.6515 9.34161 63.8893 9.12964C64.1272 8.91766 64.3208 8.66082 64.4592 8.37385C64.5976 8.08688 64.6779 7.77542 64.6957 7.45733C64.6763 7.1416 64.5944 6.83285 64.4549 6.54893C64.3154 6.26502 64.121 6.01158 63.883 5.80328C63.6449 5.59497 63.3679 5.43593 63.068 5.33536C62.7681 5.23478 62.4512 5.19467 62.1357 5.21733Z" fill="#151716"/>
<path d="M63.9096 11.5618H60.3618C60.2042 11.5618 60.0765 11.6895 60.0765 11.847V24.2157C60.0765 24.3732 60.2042 24.5009 60.3618 24.5009H63.9096C64.0671 24.5009 64.1948 24.3732 64.1948 24.2157V11.847C64.1948 11.6895 64.0671 11.5618 63.9096 11.5618Z" fill="#151716"/>
<path d="M86.6087 4.52856H83.033C82.8755 4.52856 82.7478 4.65626 82.7478 4.81378V24.2225C82.7478 24.38 82.8755 24.5077 83.033 24.5077H86.6087C86.7662 24.5077 86.8939 24.38 86.8939 24.2225V4.81378C86.8939 4.65626 86.7662 4.52856 86.6087 4.52856Z" fill="#151716"/>
<path d="M94.9218 11.2627C93.5886 11.2627 92.2853 11.658 91.1768 12.3987C90.0682 13.1394 89.2042 14.1922 88.694 15.4239C88.1838 16.6557 88.0503 18.011 88.3104 19.3186C88.5705 20.6262 89.2125 21.8274 90.1553 22.7701C91.098 23.7128 92.2991 24.3548 93.6067 24.6149C94.9143 24.875 96.2697 24.7415 97.5014 24.2313C98.7331 23.7211 99.7859 22.8571 100.527 21.7486C101.267 20.6401 101.663 19.3368 101.663 18.0036C101.663 16.2158 100.952 14.5012 99.6883 13.237C98.4241 11.9729 96.7096 11.2627 94.9218 11.2627ZM94.9218 20.9601C94.3367 20.9615 93.7644 20.7892 93.2773 20.4652C92.7902 20.1412 92.4102 19.6799 92.1854 19.1398C91.9605 18.5997 91.901 18.005 92.0143 17.4311C92.1276 16.8571 92.4086 16.3296 92.8218 15.9155C93.235 15.5013 93.7618 15.219 94.3355 15.1044C94.9092 14.9897 95.504 15.0479 96.0446 15.2714C96.5853 15.495 97.0474 15.8739 97.3726 16.3603C97.6978 16.8466 97.8713 17.4185 97.8713 18.0036C97.8714 18.7865 97.5608 19.5374 97.0079 20.0917C96.4549 20.6459 95.7047 20.9582 94.9218 20.9601Z" fill="#151716"/>
<path d="M57.6348 11.5896H54.0174V13.0644C52.7588 11.9037 51.1034 11.2689 49.3913 11.2905C48.5042 11.265 47.6214 11.4222 46.7975 11.7521C45.9737 12.0821 45.2265 12.5779 44.6022 13.2086C43.9779 13.8394 43.49 14.5918 43.1686 15.419C42.8472 16.2462 42.6993 17.1307 42.734 18.0175C42.7143 18.9007 42.8725 19.7788 43.1992 20.5997C43.5258 21.4205 44.0142 22.1673 44.6353 22.7955C45.2564 23.4238 45.9975 23.9207 46.8146 24.2567C47.6317 24.5927 48.5079 24.7609 49.3913 24.7514C51.1059 24.7782 52.7659 24.1486 54.0313 22.9914V24.5079H57.6487C57.6871 24.5079 57.7251 24.5003 57.7605 24.4857C57.796 24.471 57.8282 24.4495 57.8553 24.4223C57.8825 24.3952 57.904 24.363 57.9187 24.3275C57.9333 24.2921 57.9409 24.2541 57.9409 24.2157V11.8818C57.941 11.8422 57.933 11.8031 57.9174 11.7667C57.9019 11.7303 57.8791 11.6975 57.8505 11.6701C57.8219 11.6428 57.788 11.6216 57.7509 11.6078C57.7138 11.5939 57.6743 11.5878 57.6348 11.5896ZM50.2887 21.3775C49.8308 21.3951 49.3738 21.3221 48.9441 21.1626C48.5144 21.0031 48.1205 20.7603 47.785 20.448C47.4495 20.1358 47.179 19.7603 46.9891 19.3432C46.7992 18.9261 46.6935 18.4755 46.6783 18.0175C46.7576 17.1146 47.1724 16.2743 47.8407 15.6621C48.509 15.0499 49.3824 14.7104 50.2887 14.7104C51.195 14.7104 52.0685 15.0499 52.7368 15.6621C53.4051 16.2743 53.8198 17.1146 53.8992 18.0175C53.8839 18.4755 53.7783 18.9261 53.5884 19.3432C53.3984 19.7603 53.1279 20.1358 52.7924 20.448C52.4569 20.7603 52.063 21.0031 51.6333 21.1626C51.2037 21.3221 50.7467 21.3951 50.2887 21.3775Z" fill="#151716"/>
<path d="M76.6052 11.5618V13.1687C75.9096 12.0348 74.2191 11.2905 72.4313 11.2905C70.6232 11.2749 68.8788 11.9577 67.5617 13.1966C66.8824 13.809 66.344 14.5615 65.9837 15.4022C65.6234 16.2429 65.4498 17.1518 65.4748 18.0661C65.4504 18.9722 65.6246 19.8726 65.9851 20.7042C66.3456 21.5358 66.8837 22.2785 67.5617 22.88C68.8863 24.1046 70.6275 24.7787 72.4313 24.7652C74.2191 24.7652 75.9791 24.0209 76.6052 22.88C76.8139 25.9618 75.5339 27.4852 72.7583 27.4852C72.0838 27.4833 71.4202 27.3146 70.8267 26.9942C70.2332 26.6738 69.7282 26.2116 69.3565 25.6487C69.3235 25.5838 69.267 25.5339 69.1984 25.5093C69.1299 25.4848 69.0545 25.4873 68.9878 25.5166L66.2052 26.7966C66.1691 26.8143 66.1368 26.8391 66.1103 26.8693C66.0837 26.8996 66.0634 26.9348 66.0505 26.9729C66.0376 27.011 66.0323 27.0513 66.035 27.0915C66.0376 27.1317 66.0482 27.1709 66.0661 27.207C66.7444 28.379 67.7272 29.3456 68.9102 30.0045C70.0933 30.6634 71.4325 30.9899 72.7861 30.9496C77.8296 30.9496 80.6609 28.167 80.6609 22.6922V10.9983H76.633L76.6052 11.5618ZM72.9043 21.3426C72.4469 21.3603 71.9905 21.2875 71.5613 21.1285C71.1321 20.9694 70.7385 20.7272 70.403 20.4156C70.0676 20.1041 69.797 19.7295 69.6066 19.3132C69.4163 18.8969 69.31 18.4471 69.2939 17.9896C69.3732 17.0868 69.788 16.2464 70.4563 15.6342C71.1246 15.0221 71.998 14.6825 72.9043 14.6825C73.8107 14.6825 74.6841 15.0221 75.3524 15.6342C76.0207 16.2464 76.4354 17.0868 76.5148 17.9896C76.4986 18.4471 76.3924 18.8969 76.202 19.3132C76.0117 19.7295 75.7411 20.1041 75.4057 20.4156C75.0702 20.7272 74.6766 20.9694 74.2474 21.1285C73.8182 21.2875 73.3618 21.3603 72.9043 21.3426Z" fill="#151716"/>
<path d="M19.9861 7.65215C19.9825 7.22653 19.8108 6.81959 19.5085 6.51992C19.2063 6.22026 18.7978 6.05213 18.3722 6.05215H15.3044V5.20345C15.3044 4.09646 14.8646 3.03481 14.0819 2.25205C13.2991 1.46929 12.2375 1.02954 11.1305 1.02954C10.0235 1.02954 8.96183 1.46929 8.17907 2.25205C7.3963 3.03481 6.95655 4.09646 6.95655 5.20345V6.05215H3.93047C3.50483 6.05213 3.09642 6.22026 2.79415 6.51992C2.49188 6.81959 2.32022 7.22653 2.31655 7.65215L1.29395 21.913C1.29579 22.3417 1.46737 22.7522 1.77114 23.0547C2.07491 23.3571 2.48614 23.5269 2.91481 23.5269H5.87134V9.4678H8.86264C9.04714 9.4678 9.22408 9.54109 9.35454 9.67155C9.485 9.80201 9.55829 9.97895 9.55829 10.1635V14.8869L10.3235 14.1217L11.1166 13.3217L14.6087 9.87824C14.795 9.69494 15.0432 9.58819 15.3044 9.57911H20.1252L19.9861 7.65215ZM14.0939 6.05215H8.20873V5.20345C8.20873 4.42303 8.51875 3.67456 9.0706 3.12272C9.62245 2.57087 10.3709 2.26085 11.1513 2.26085C11.9318 2.26085 12.6802 2.57087 13.2321 3.12272C13.7839 3.67456 14.0939 4.42303 14.0939 5.20345V6.05215Z" fill="#007A49"/>
<path d="M23.4853 9.57916H20.1253L12.9948 16.6957L19.8053 23.5061H14.9844C14.8545 23.5045 14.7261 23.4772 14.6068 23.4259C14.4874 23.3745 14.3793 23.3002 14.2887 23.207L11.1861 20.1113L10.3931 19.3113L9.60003 18.5183V22.8174C9.60003 23.0019 9.52674 23.1789 9.39628 23.3093C9.26582 23.4398 9.08888 23.5131 8.90438 23.5131H5.87134V25.3566C5.87133 25.7889 6.04261 26.2037 6.34769 26.5101C6.65277 26.8164 7.0668 26.9895 7.49916 26.9913H23.4992C23.7138 26.9913 23.9264 26.9491 24.1248 26.8669C24.3231 26.7847 24.5033 26.6643 24.6551 26.5125C24.8069 26.3607 24.9274 26.1805 25.0095 25.9822C25.0917 25.7838 25.1339 25.5712 25.1339 25.3566V11.2139C25.134 10.9981 25.0912 10.7844 25.0082 10.5851C24.9252 10.3859 24.8035 10.205 24.6502 10.053C24.4969 9.90104 24.3151 9.78092 24.1151 9.69958C23.9152 9.61825 23.7011 9.57732 23.4853 9.57916Z" fill="#FFC12E"/>
</svg>
