<svg width="25" height="24" viewBox="0 0 25 24" fill="none" xmlns="http://www.w3.org/2000/svg">
<path d="M20.2897 14.9303C18.2297 16.9803 15.2797 17.6103 12.6897 16.8003L7.97966 21.5003C7.63966 21.8503 6.96966 22.0603 6.48966 21.9903L4.30966 21.6903C3.58966 21.5903 2.91966 20.9103 2.80966 20.1903L2.50966 18.0103C2.43966 17.5303 2.66966 16.8603 2.99966 16.5203L7.69966 11.8203C6.89966 9.22031 7.51966 6.27031 9.57966 4.22031C12.5297 1.27031 17.3197 1.27031 20.2797 4.22031C23.2397 7.17031 23.2397 11.9803 20.2897 14.9303Z" stroke="#1D2939" stroke-width="1.5" stroke-miterlimit="10" stroke-linecap="round" stroke-linejoin="round"/>
<path d="M7.38965 17.4902L9.68965 19.7902" stroke="#1D2939" stroke-width="1.5" stroke-miterlimit="10" stroke-linecap="round" stroke-linejoin="round"/>
<path d="M15 11C15.8284 11 16.5 10.3284 16.5 9.5C16.5 8.67157 15.8284 8 15 8C14.1716 8 13.5 8.67157 13.5 9.5C13.5 10.3284 14.1716 11 15 11Z" stroke="#1D2939" stroke-width="1.5" stroke-linecap="round" stroke-linejoin="round"/>
</svg>
