<svg width="16" height="16" viewBox="0 0 16 16" fill="none" xmlns="http://www.w3.org/2000/svg">
<path d="M8.35294 1.33301C11.015 1.33301 12.346 1.33301 13.173 2.11406C14 2.89511 14 4.15218 14 6.66634V9.33301C14 11.8472 14 13.1042 13.173 13.8853C12.346 14.6663 11.015 14.6663 8.35294 14.6663H7.64706C4.98501 14.6663 3.65399 14.6663 2.82699 13.8853C2 13.1042 2 11.8472 2 9.33301L2 6.66634C2 4.15218 2 2.8951 2.82699 2.11406C3.65399 1.33301 4.98501 1.33301 7.64706 1.33301L8.35294 1.33301Z" stroke="#98A2B3" stroke-linecap="round"/>
<path d="M5.33325 4.66602H10.6666" stroke="#98A2B3" stroke-linecap="round"/>
<path d="M5.33325 8H10.6666" stroke="#98A2B3" stroke-linecap="round"/>
<path d="M5.33325 11.333L7.99992 11.333" stroke="#98A2B3" stroke-linecap="round"/>
</svg>
