<svg width="161" height="29" viewBox="0 0 161 29" fill="none" xmlns="http://www.w3.org/2000/svg">
<path d="M6.62903 12.9842L13.5938 4.86363C13.6125 4.84178 13.6246 4.81505 13.6286 4.78658C13.6326 4.75811 13.6285 4.72908 13.6166 4.7029C13.6047 4.67672 13.5855 4.65449 13.5614 4.6388C13.5373 4.62311 13.5093 4.61463 13.4805 4.61435H8.65351C8.63168 4.61277 8.60981 4.61681 8.58998 4.62606C8.57015 4.63532 8.55301 4.64949 8.5402 4.66722L4.29484 9.78884V4.76543C4.29484 4.72536 4.27893 4.68693 4.25059 4.6586C4.22226 4.63026 4.18383 4.61435 4.14376 4.61435H0.291217C0.271377 4.61435 0.251731 4.61825 0.233401 4.62585C0.215071 4.63344 0.198416 4.64457 0.184387 4.6586C0.170358 4.67262 0.15923 4.68928 0.151637 4.70761C0.144045 4.72594 0.140137 4.74559 0.140137 4.76543V21.3843C0.140137 21.4041 0.144045 21.4237 0.151637 21.4421C0.15923 21.4604 0.170358 21.4771 0.184387 21.4911C0.198416 21.5051 0.215071 21.5162 0.233401 21.5238C0.251731 21.5314 0.271377 21.5353 0.291217 21.5353H4.14376C4.18383 21.5353 4.22226 21.5194 4.25059 21.4911C4.27893 21.4627 4.29484 21.4243 4.29484 21.3843V16.0964L9.73373 21.49C9.76163 21.5185 9.79964 21.5348 9.83949 21.5353H15.1273C15.1569 21.5349 15.1857 21.5258 15.2101 21.5092C15.2346 21.4926 15.2536 21.4691 15.2649 21.4418C15.2761 21.4144 15.2791 21.3844 15.2735 21.3554C15.2678 21.3263 15.2538 21.2996 15.2331 21.2785L6.62903 12.9842Z" fill="#258E4B"/>
<path d="M29.6235 7.89256H25.8012C25.7611 7.89256 25.7227 7.90848 25.6944 7.93681C25.666 7.96514 25.6501 8.00357 25.6501 8.04364V9.44869C24.3192 8.21361 22.563 7.53982 20.7476 7.56774C19.8113 7.54215 18.8798 7.70921 18.0108 8.05857C17.1417 8.40792 16.3538 8.93212 15.6958 9.59864C15.0378 10.2652 14.5237 11.0598 14.1855 11.9332C13.8474 12.8066 13.6923 13.7402 13.7299 14.6761C13.7055 15.6096 13.8695 16.5385 14.212 17.4072C14.5546 18.276 15.0688 19.0668 15.7238 19.7324C16.3789 20.398 17.1613 20.9247 18.0245 21.2812C18.8876 21.6377 19.8137 21.8165 20.7476 21.8071C22.5595 21.8388 24.3145 21.1736 25.6501 19.9488V21.3916C25.6501 21.4114 25.654 21.4311 25.6616 21.4494C25.6692 21.4677 25.6803 21.4844 25.6944 21.4984C25.7084 21.5124 25.725 21.5236 25.7434 21.5312C25.7617 21.5388 25.7814 21.5427 25.8012 21.5427H29.6235C29.6434 21.5427 29.663 21.5388 29.6813 21.5312C29.6997 21.5236 29.7163 21.5124 29.7304 21.4984C29.7444 21.4844 29.7555 21.4677 29.7631 21.4494C29.7707 21.4311 29.7746 21.4114 29.7746 21.3916V8.04364C29.7746 8.0238 29.7707 8.00416 29.7631 7.98583C29.7555 7.9675 29.7444 7.95084 29.7304 7.93681C29.7163 7.92278 29.6997 7.91165 29.6813 7.90406C29.663 7.89647 29.6434 7.89256 29.6235 7.89256ZM21.7371 18.2189C20.7682 18.2435 19.8287 17.8855 19.1218 17.2224C18.4149 16.5593 17.9975 15.6445 17.9601 14.6761C17.9767 14.1972 18.0876 13.7262 18.2865 13.2903C18.4855 12.8544 18.7685 12.462 19.1194 12.1356C19.4703 11.8093 19.8822 11.5554 20.3314 11.3886C20.7806 11.2218 21.2583 11.1453 21.7371 11.1634C22.7021 11.1348 23.6395 11.4873 24.3464 12.1447C25.0533 12.8022 25.4728 13.7116 25.5141 14.6761C25.4995 15.1569 25.3901 15.6302 25.1922 16.0687C24.9943 16.5072 24.7119 16.9023 24.361 17.2314C24.0101 17.5606 23.5977 17.8172 23.1475 17.9867C22.6972 18.1561 22.2179 18.235 21.7371 18.2189Z" fill="#258E4B"/>
<path d="M36.49 7.89258H32.6677C32.5842 7.89258 32.5166 7.96022 32.5166 8.04366V21.3765C32.5166 21.4599 32.5842 21.5276 32.6677 21.5276H36.49C36.5735 21.5276 36.6411 21.4599 36.6411 21.3765V8.04366C36.6411 7.96022 36.5735 7.89258 36.49 7.89258Z" fill="#258E4B"/>
<path d="M36.49 1.29053H32.6677C32.5842 1.29053 32.5166 1.35817 32.5166 1.44161V4.85602C32.5166 4.93946 32.5842 5.0071 32.6677 5.0071H36.49C36.5735 5.0071 36.6411 4.93946 36.6411 4.85602V1.44161C36.6411 1.35817 36.5735 1.29053 36.49 1.29053Z" fill="#258E4B"/>
<path d="M54.4082 7.89274H50.5859C50.5458 7.89274 50.5074 7.90866 50.479 7.93699C50.4507 7.96532 50.4348 8.00375 50.4348 8.04382V9.50174C49.8273 8.86648 49.0931 8.36604 48.2797 8.03289C47.4664 7.69973 46.5921 7.54132 45.7135 7.56792C44.767 7.53813 43.8244 7.70082 42.9426 8.04615C42.0609 8.39147 41.2584 8.91223 40.5839 9.57686C39.9094 10.2415 39.3768 11.0362 39.0185 11.9127C38.6602 12.7893 38.4836 13.7294 38.4994 14.6762C38.4805 15.6249 38.6548 16.5676 39.0117 17.4468C39.3687 18.326 39.9007 19.1234 40.5756 19.7905C41.2504 20.4576 42.0539 20.9803 42.9372 21.3271C43.8205 21.6738 44.7651 21.8371 45.7135 21.8072C46.5946 21.8292 47.4706 21.6664 48.285 21.3295C49.0994 20.9925 49.8343 20.4888 50.4423 19.8507V20.0547C50.4423 23.6277 48.7729 24.9724 46.129 24.9724C45.4 24.9799 44.6812 24.8006 44.0412 24.4514C43.4011 24.1023 42.8612 23.5951 42.4728 22.9781C42.4553 22.9475 42.4272 22.9245 42.3937 22.9133C42.3603 22.9022 42.3239 22.9037 42.2916 22.9177L39.1113 24.1792C39.0908 24.1873 39.0722 24.1996 39.0568 24.2153C39.0413 24.231 39.0293 24.2498 39.0215 24.2704C39.0136 24.291 39.0102 24.313 39.0114 24.335C39.0125 24.3571 39.0183 24.3786 39.0282 24.3983C39.7347 25.6419 40.7656 26.6705 42.0108 27.3743C43.256 28.078 44.6689 28.4306 46.0988 28.3943C51.2959 28.3943 54.5366 25.6145 54.5366 19.6468V8.04382C54.537 8.00738 54.5242 7.97203 54.5006 7.94426C54.477 7.9165 54.4442 7.8982 54.4082 7.89274ZM46.4991 18.2191C45.5238 18.2538 44.5745 17.9003 43.8594 17.2362C43.1443 16.5721 42.7217 15.6515 42.6844 14.6762C42.7584 13.7163 43.1921 12.8196 43.8986 12.1655C44.6052 11.5114 45.5325 11.148 46.4954 11.148C47.4582 11.148 48.3856 11.5114 49.0921 12.1655C49.7986 12.8196 50.2323 13.7163 50.3064 14.6762C50.2918 15.1597 50.1814 15.6355 49.9816 16.0761C49.7819 16.5166 49.4967 16.9131 49.1426 17.2427C48.7884 17.5722 48.3725 17.8282 47.9187 17.9958C47.4649 18.1634 46.9824 18.2393 46.4991 18.2191Z" fill="#258E4B"/>
<path d="M61.2747 0.603027H57.4523C57.3689 0.603027 57.3013 0.670668 57.3013 0.754108V21.369C57.3013 21.4524 57.3689 21.5201 57.4523 21.5201H61.2747C61.3581 21.5201 61.4258 21.4524 61.4258 21.369V0.754108C61.4258 0.670668 61.3581 0.603027 61.2747 0.603027Z" fill="#258E4B"/>
<path d="M70.3698 7.55273C68.9624 7.55273 67.5866 7.97007 66.4164 8.75198C65.2462 9.53388 64.3342 10.6452 63.7956 11.9455C63.257 13.2457 63.1161 14.6765 63.3906 16.0569C63.6652 17.4372 64.3429 18.7051 65.3381 19.7003C66.3333 20.6955 67.6012 21.3732 68.9815 21.6478C70.3619 21.9223 71.7927 21.7814 73.0929 21.2428C74.3932 20.7042 75.5045 19.7922 76.2864 18.622C77.0683 17.4518 77.4857 16.076 77.4857 14.6686C77.4857 12.7814 76.736 10.9714 75.4015 9.63693C74.067 8.30244 72.257 7.55273 70.3698 7.55273ZM70.3698 17.7809C69.7542 17.7809 69.1525 17.5983 68.6407 17.2564C68.1289 16.9144 67.73 16.4283 67.4944 15.8596C67.2589 15.2909 67.1972 14.6652 67.3173 14.0614C67.4374 13.4577 67.7338 12.9032 68.1691 12.4679C68.6043 12.0327 69.1589 11.7362 69.7626 11.6162C70.3663 11.4961 70.9921 11.5577 71.5608 11.7933C72.1295 12.0288 72.6156 12.4277 72.9575 12.9395C73.2995 13.4513 73.482 14.0531 73.482 14.6686C73.482 15.0773 73.4015 15.482 73.2451 15.8596C73.0887 16.2372 72.8595 16.5803 72.5705 16.8693C72.2815 17.1583 71.9384 17.3876 71.5608 17.544C71.1832 17.7004 70.7785 17.7809 70.3698 17.7809Z" fill="#258E4B"/>
<rect x="79.752" y="0.956787" width="81.108" height="27.0864" rx="3.02161" fill="#FFC12E"/>
<path d="M91.3309 19.1209C93.156 19.1209 94.4371 18.1781 94.4371 16.4981V16.4739C94.4371 14.9994 93.4702 14.383 91.754 13.9358C90.2915 13.5611 89.9289 13.3798 89.9289 12.8238V12.7997C89.9289 12.3887 90.3036 12.0624 91.0167 12.0624C91.7298 12.0624 92.4671 12.3766 93.2164 12.8964L94.1833 11.4943C93.3252 10.8054 92.2737 10.4186 91.0409 10.4186C89.3125 10.4186 88.0797 11.4339 88.0797 12.9689V12.993C88.0797 14.6731 89.1795 15.1444 90.8837 15.5795C92.2978 15.9421 92.5879 16.1839 92.5879 16.6552V16.6794C92.5879 17.175 92.1286 17.4771 91.3672 17.4771C90.4003 17.4771 89.6026 17.0783 88.8411 16.4498L87.7413 17.7672C88.7565 18.6737 90.0498 19.1209 91.3309 19.1209ZM98.929 19.145C100.101 19.145 100.972 18.6858 101.576 17.9364L100.524 17.0057C100.017 17.4771 99.5696 17.6705 98.9532 17.6705C98.1313 17.6705 97.5512 17.2354 97.3699 16.4014H101.878C101.89 16.2322 101.902 16.063 101.902 15.918C101.902 14.0808 100.911 12.4008 98.7477 12.4008C96.8623 12.4008 95.5448 13.9237 95.5448 15.7729V15.7971C95.5448 17.7793 96.9831 19.145 98.929 19.145ZM97.3457 15.2532C97.4908 14.4192 97.9863 13.8754 98.7477 13.8754C99.5213 13.8754 100.005 14.4313 100.114 15.2532H97.3457ZM103.356 19H105.193V10.1769H103.356V19ZM107.003 19H108.84V10.1769H107.003V19ZM113.636 19.145C114.808 19.145 115.678 18.6858 116.283 17.9364L115.231 17.0057C114.724 17.4771 114.276 17.6705 113.66 17.6705C112.838 17.6705 112.258 17.2354 112.077 16.4014H116.585C116.597 16.2322 116.609 16.063 116.609 15.918C116.609 14.0808 115.618 12.4008 113.454 12.4008C111.569 12.4008 110.252 13.9237 110.252 15.7729V15.7971C110.252 17.7793 111.69 19.145 113.636 19.145ZM112.052 15.2532C112.197 14.4192 112.693 13.8754 113.454 13.8754C114.228 13.8754 114.711 14.4313 114.82 15.2532H112.052ZM117.978 19H119.815V16.6069C119.815 15.0598 120.565 14.3226 121.785 14.3226H121.882V12.4008C120.794 12.3525 120.19 12.9326 119.815 13.827V12.5217H117.978V19ZM125.302 19.1209C126.704 19.1209 127.78 18.4682 127.78 17.0299V17.0057C127.78 15.8213 126.728 15.3862 125.822 15.084C125.121 14.8423 124.504 14.6731 124.504 14.3105V14.2863C124.504 14.0325 124.734 13.8391 125.181 13.8391C125.653 13.8391 126.293 14.0687 126.934 14.4434L127.635 13.1743C126.934 12.703 126.039 12.425 125.218 12.425C123.912 12.425 122.849 13.1623 122.849 14.4797V14.5039C122.849 15.7608 123.876 16.1839 124.782 16.4498C125.496 16.6673 126.124 16.8003 126.124 17.1991V17.2233C126.124 17.5134 125.882 17.7068 125.351 17.7068C124.746 17.7068 124.009 17.4409 123.308 16.9332L122.522 18.1419C123.38 18.8187 124.396 19.1209 125.302 19.1209ZM129.29 19H131.151V15.6037H134.584V19H136.445V10.5395H134.584V13.8874H131.151V10.5395H129.29V19ZM140.431 19.1209C141.362 19.1209 141.906 18.6253 142.329 18.0814V19H144.166V12.5217H142.329V16.1355C142.329 17.0057 141.881 17.4529 141.18 17.4529C140.479 17.4529 140.068 17.0057 140.068 16.1355V12.5217H138.231V16.7157C138.231 18.2023 139.041 19.1209 140.431 19.1209ZM149.666 19.1209C151.201 19.1209 152.615 17.9364 152.615 15.7729V15.7488C152.615 13.5853 151.176 12.4008 149.666 12.4008C148.711 12.4008 148.094 12.848 147.647 13.4523V10.1769H145.81V19H147.647V18.154C148.082 18.6737 148.687 19.1209 149.666 19.1209ZM149.194 17.5617C148.336 17.5617 147.623 16.8486 147.623 15.7729V15.7488C147.623 14.6731 148.336 13.96 149.194 13.96C150.052 13.96 150.778 14.6731 150.778 15.7488V15.7729C150.778 16.8607 150.052 17.5617 149.194 17.5617Z" fill="black"/>
</svg>
