<svg width="30" height="32" viewBox="0 0 30 32" fill="none" xmlns="http://www.w3.org/2000/svg">
<path d="M4.88452 9.54297L23.6968 10.5376L23.3904 15.6652L24.3796 27.6094L23.2941 27.7295H5.02458L4.88452 9.54297Z" fill="white"/>
<path d="M23.5219 8.16293C23.5173 7.63831 23.3013 7.13672 22.9209 6.76736C22.5405 6.398 22.0266 6.19077 21.491 6.19079H17.6305V5.1447C17.6305 3.78024 17.0771 2.47167 16.0921 1.50685C15.1071 0.542029 13.7711 0 12.3781 0C10.9851 0 9.64912 0.542029 8.66411 1.50685C7.6791 2.47167 7.12572 3.78024 7.12572 5.1447V6.19079H3.31775C2.78214 6.19077 2.2682 6.398 1.88783 6.76736C1.50746 7.13672 1.29145 7.63831 1.28683 8.16293L0 25.7407C0.0023152 26.269 0.21823 26.775 0.600492 27.1478C0.982755 27.5206 1.50023 27.7299 2.03967 27.7299H5.7601V10.4009H9.52431C9.75648 10.4009 9.97914 10.4912 10.1433 10.652C10.3075 10.8128 10.3997 11.0309 10.3997 11.2583V17.0804L11.3626 16.1372L12.3606 15.1511L16.7551 10.9068C16.9895 10.6808 17.3018 10.5493 17.6305 10.5381H23.697L23.5219 8.16293ZM16.1073 6.19079H8.70144V5.1447C8.70144 4.18276 9.09157 3.26021 9.786 2.58001C10.4804 1.89982 11.4223 1.51769 12.4044 1.51769C13.3864 1.51769 14.3283 1.89982 15.0227 2.58001C15.7172 3.26021 16.1073 4.18276 16.1073 5.1447V6.19079Z" fill="#007A49"/>
<path d="M27.9253 10.5382H23.6971L14.7243 19.3099L23.2944 27.7043H17.2279C17.0644 27.7023 16.903 27.6686 16.7527 27.6054C16.6025 27.5421 16.4665 27.4504 16.3525 27.3356L12.4483 23.52L11.4503 22.5339L10.4524 21.5564V26.8554C10.4524 27.0828 10.3601 27.3009 10.196 27.4617C10.0318 27.6225 9.80915 27.7129 9.57698 27.7129H5.76025V29.9851C5.76025 30.5181 5.97579 31.0293 6.35969 31.4069C6.74359 31.7846 7.2646 31.9979 7.80868 32.0001H27.9428C28.2129 32.0001 28.4804 31.948 28.73 31.8468C28.9796 31.7455 29.2064 31.5971 29.3974 31.41C29.5885 31.2228 29.74 31.0007 29.8434 30.7562C29.9468 30.5118 30 30.2497 30 29.9851V12.5532C30 12.2871 29.9462 12.0237 29.8417 11.7781C29.7372 11.5325 29.5841 11.3096 29.3913 11.1222C29.1984 10.9349 28.9695 10.7868 28.7179 10.6866C28.4663 10.5863 28.1969 10.5359 27.9253 10.5382Z" fill="#F3CF1C"/>
</svg>
