<svg width="16" height="16" viewBox="0 0 16 16" fill="none" xmlns="http://www.w3.org/2000/svg">
    <g clipPath="url(#clip0_5356_9451)">
        <path
            d="M14.3333 10.6663L14.8223 11.235C15.0947 11.0007 15.1627 10.6062 14.9845 10.2942L14.3333 10.6663ZM1.66663 10.6663L1.01544 10.2942C0.837183 10.6062 0.905203 11.0007 1.17763 11.235L1.66663 10.6663ZM13 8.33301H12.25V8.53218L12.3488 8.70511L13 8.33301ZM2.99996 8.33301L3.65114 8.70511L3.74996 8.53218V8.33301H2.99996ZM7.99996 13.4163C10.7445 13.4163 13.2459 12.5906 14.8223 11.235L13.8443 10.0977C12.6055 11.1629 10.4826 11.9163 7.99996 11.9163V13.4163ZM1.17763 11.235C2.75406 12.5906 5.25539 13.4163 7.99996 13.4163V11.9163C5.5173 11.9163 3.39446 11.1629 2.15562 10.0977L1.17763 11.235ZM14.9845 10.2942L13.6511 7.9609L12.3488 8.70511L13.6821 11.0384L14.9845 10.2942ZM13.75 8.33301V6.33301H12.25V8.33301H13.75ZM2.24996 6.33301V8.33301H3.74996V6.33301H2.24996ZM2.34878 7.9609L1.01544 10.2942L2.31781 11.0384L3.65114 8.70511L2.34878 7.9609ZM7.99996 0.583008C4.82432 0.583008 2.24996 3.15737 2.24996 6.33301H3.74996C3.74996 3.9858 5.65275 2.08301 7.99996 2.08301V0.583008ZM13.75 6.33301C13.75 3.15737 11.1756 0.583008 7.99996 0.583008V2.08301C10.3472 2.08301 12.25 3.9858 12.25 6.33301H13.75Z"
            fill="#141B34"
        />
        <path
            d="M10.6666 11.9993C10.6666 13.4721 9.47268 14.666 7.99992 14.666C6.52716 14.666 5.33325 13.4721 5.33325 11.9993"
            stroke="#141B34"
            strokeWidth="1.5"
            strokeLinejoin="round"
        />
    </g>
    <defs>
        <clipPath id="clip0_5356_9451">
            <rect width="16" height="16" fill="white" />
        </clipPath>
    </defs>
</svg> 