<svg width="14" height="16" viewBox="0 0 14 16" fill="none" xmlns="http://www.w3.org/2000/svg">
<path d="M7 14.667C6.45455 14.667 5.93346 14.4469 4.89129 14.0066C2.2971 12.9108 1 12.3628 1 11.4412C1 11.1831 1 6.71 1 4.66699M7 14.667C7.54546 14.667 8.06654 14.4469 9.10872 14.0066C11.7029 12.9108 13 12.3628 13 11.4412V4.66699M7 14.667L7 7.57022" stroke="#98A2B3" stroke-linecap="round" stroke-linejoin="round"/>
<path d="M4.55061 6.46157L2.60314 5.51921C1.53438 5.00205 1 4.74347 1 4.33398C1 3.9245 1.53438 3.66592 2.60314 3.14875L4.55061 2.2064C5.75256 1.62479 6.35353 1.33398 7 1.33398C7.64647 1.33398 8.24744 1.62479 9.44939 2.20639L11.3969 3.14875C12.4656 3.66592 13 3.9245 13 4.33398C13 4.74347 12.4656 5.00205 11.3969 5.51922L9.44939 6.46157C8.24744 7.04318 7.64647 7.33398 7 7.33398C6.35353 7.33398 5.75256 7.04318 4.55061 6.46157Z" stroke="#98A2B3" stroke-linecap="round" stroke-linejoin="round"/>
<path d="M3 8L4.33333 8.66667" stroke="#98A2B3" stroke-linecap="round" stroke-linejoin="round"/>
<path d="M10.3334 2.66699L3.66675 6.00033" stroke="#98A2B3" stroke-linecap="round" stroke-linejoin="round"/>
</svg>
