<svg width="20" height="20" viewBox="0 0 20 20" fill="none" xmlns="http://www.w3.org/2000/svg">
<path d="M10 18.3337C9.31818 18.3337 8.66682 18.0593 7.36411 17.5106C4.12137 16.1448 2.5 15.4619 2.5 14.3132V6.28561M10 18.3337C10.6818 18.3337 11.3332 18.0593 12.6359 17.5106C15.8786 16.1448 17.5 15.4619 17.5 14.3132V6.28561M10 18.3337V10.0247M17.5 6.28561C17.5 6.79597 16.832 7.11826 15.4961 7.76282L13.0617 8.93733C11.5593 9.66221 10.8081 10.0247 10 10.0247M17.5 6.28561C17.5 5.77525 16.832 5.45296 15.4961 4.8084L14.1667 4.16699M2.5 6.28561C2.5 6.79597 3.16798 7.11826 4.50393 7.76282L6.93827 8.93733C8.44069 9.66222 9.19191 10.0247 10 10.0247M2.5 6.28561C2.5 5.77525 3.16798 5.45296 4.50393 4.8084L5.83333 4.16699M5 10.8556L6.66667 11.6865" stroke="#F04438" stroke-width="1.2" stroke-linecap="round" stroke-linejoin="round"/>
<path d="M8.33334 1.66699L10 3.33366M10 3.33366L11.6667 5.00033M10 3.33366L8.33334 5.00033M10 3.33366L11.6667 1.66699" stroke="#F04438" stroke-width="1.2" stroke-linecap="round"/>
</svg>
