<svg width="20" height="20" viewBox="0 0 20 20" fill="none" xmlns="http://www.w3.org/2000/svg">
<path d="M9.16666 18.3335C8.48484 18.3335 7.83348 18.0583 6.53076 17.508C3.28803 16.1382 1.66666 15.4533 1.66666 14.3012C1.66666 13.9787 1.66666 8.38726 1.66666 5.8335M9.16666 18.3335L9.16666 9.46253M9.16666 18.3335C9.45034 18.3335 9.70522 18.2859 9.99999 18.1906M16.6667 5.8335V9.5835" stroke="#F79009" stroke-width="1.2" stroke-linecap="round" stroke-linejoin="round"/>
<path d="M15 15.0008L15.7547 14.246M18.3333 15.0003C18.3333 13.1594 16.8409 11.667 15 11.667C13.159 11.667 11.6667 13.1594 11.6667 15.0003C11.6667 16.8413 13.159 18.3337 15 18.3337C16.8409 18.3337 18.3333 16.8413 18.3333 15.0003Z" stroke="#F79009" stroke-width="1.2" stroke-linecap="round" stroke-linejoin="round"/>
<path d="M6.10492 8.07648L3.67059 6.89853C2.33463 6.25208 1.66666 5.92885 1.66666 5.41699C1.66666 4.90513 2.33463 4.58191 3.67059 3.93545L6.10492 2.75751C7.60735 2.0305 8.35857 1.66699 9.16666 1.66699C9.97475 1.66699 10.726 2.0305 12.2284 2.7575L14.6627 3.93545C15.9987 4.58191 16.6667 4.90513 16.6667 5.41699C16.6667 5.92885 15.9987 6.25208 14.6627 6.89853L12.2284 8.07648C10.726 8.80349 9.97475 9.16699 9.16666 9.16699C8.35857 9.16699 7.60735 8.80349 6.10492 8.07648Z" stroke="#F79009" stroke-width="1.2" stroke-linecap="round" stroke-linejoin="round"/>
<path d="M4.16666 10L5.83332 10.8333" stroke="#F79009" stroke-width="1.2" stroke-linecap="round" stroke-linejoin="round"/>
<path d="M13.3333 3.3335L5 7.50016" stroke="#F79009" stroke-width="1.2" stroke-linecap="round" stroke-linejoin="round"/>
</svg>
