<svg width="40" height="40" viewBox="0 0 40 40" fill="none" xmlns="http://www.w3.org/2000/svg">
<path fill-rule="evenodd" clip-rule="evenodd" d="M18.3334 5.26507C17.2172 5.26507 16.1412 5.73354 13.0708 7.18811L8.32384 9.43692C6.97269 10.077 6.1262 10.4825 5.59562 10.8333C6.1262 11.184 6.97269 11.5895 8.32384 12.2296L10.1144 13.0778L22.858 6.83969C20.3431 5.65761 19.3551 5.26507 18.3334 5.26507ZM26.5523 8.58867L13.8087 14.8268C16.3236 16.0089 17.3117 16.4014 18.3334 16.4014C19.4496 16.4014 20.5255 15.933 23.5959 14.4784L28.3429 12.2296C29.6941 11.5895 30.5406 11.184 31.0711 10.8332C30.5406 10.4825 29.6941 10.077 28.3429 9.43692L26.5523 8.58867ZM11.9848 4.16769C14.5926 2.93075 16.3793 2.08325 18.3334 2.08325C20.2875 2.08325 22.0742 2.93075 24.6819 4.16769C24.7904 4.21913 24.9002 4.27124 25.0116 4.32399L29.8687 6.62499C31.0767 7.19711 32.1417 7.70155 32.891 8.19707C33.6413 8.69319 34.5834 9.50692 34.5834 10.8333C34.5834 12.1596 33.6413 12.9733 32.891 13.4694C32.1417 13.965 31.0766 14.4694 29.8687 15.0415L25.0116 17.3425C24.9002 17.3953 24.7903 17.4474 24.6819 17.4988C22.0742 18.7358 20.2875 19.5833 18.3334 19.5833C16.3793 19.5833 14.5926 18.7358 11.9849 17.4988C11.8764 17.4474 11.7665 17.3953 11.6552 17.3425L6.90823 15.0937C6.87136 15.0762 6.83462 15.0588 6.79801 15.0415C5.59008 14.4694 4.52504 13.9649 3.77572 13.4694C3.02549 12.9733 2.08337 12.1596 2.08337 10.8333C2.08337 9.50691 3.02549 8.69319 3.77572 8.19707C4.52504 7.70156 5.59008 7.19712 6.79801 6.62501C6.83462 6.60767 6.87136 6.59026 6.90823 6.5728L11.6552 4.32399C11.7665 4.27124 11.8764 4.21913 11.9848 4.16769Z" fill="#039855"/>
<path fill-rule="evenodd" clip-rule="evenodd" d="M19.5834 30.0038C19.5834 24.2508 24.2471 19.5871 30 19.5871C31.0773 19.5871 32.1164 19.7507 33.0939 20.0543C33.8156 20.2785 34.1764 20.3905 34.3799 20.2407C34.5834 20.0908 34.5834 19.7413 34.5834 19.0424V10.8372C34.5834 10.7884 34.5806 10.7402 34.5751 10.6929C34.5488 10.4642 34.5357 10.3499 34.3092 10.2255C34.0826 10.1011 33.9175 10.1813 33.5872 10.3416L28.781 12.6751L23.9124 15.031C20.7993 16.5374 19.596 17.0872 18.3334 17.0872C17.0707 17.0872 15.8674 16.5374 12.7544 15.031L7.8857 12.6751L3.07956 10.3416C2.74928 10.1813 2.58413 10.1011 2.35759 10.2255C2.13105 10.3499 2.1179 10.4642 2.09162 10.6929C2.08617 10.7402 2.08337 10.7884 2.08337 10.8372L2.08337 28.606C2.08337 30.4734 3.44561 31.7153 5.12226 32.7213C6.81957 33.7398 9.66842 34.9433 12.8236 36.2761C15.1887 37.276 16.7133 37.9205 18.3334 37.9205C19.1707 37.9205 19.9825 37.7484 20.898 37.4439C21.4848 37.2489 21.7781 37.1513 21.8581 36.9163C21.9381 36.6813 21.7449 36.3949 21.3585 35.8221C20.2377 34.1608 19.5834 32.1587 19.5834 30.0038ZM8.89266 18.8842C8.27519 18.5754 7.52435 18.8257 7.21561 19.4432C6.90688 20.0606 7.15716 20.8115 7.77463 21.1202L11.108 22.7869C11.7254 23.0956 12.4763 22.8454 12.785 22.2279C13.0938 21.6104 12.8435 20.8596 12.226 20.5508L8.89266 18.8842Z" fill="#039855"/>
<path fill-rule="evenodd" clip-rule="evenodd" d="M30 22.0833C25.6278 22.0833 22.0834 25.6277 22.0834 30C22.0834 34.3722 25.6278 37.9166 30 37.9166C34.3723 37.9166 37.9167 34.3722 37.9167 30C37.9167 25.6277 34.3723 22.0833 30 22.0833ZM32.688 29.6681C33.3388 29.0172 33.3388 27.9619 32.688 27.311C32.0371 26.6602 30.9818 26.6602 30.3309 27.311L28.8215 28.8204C28.1707 29.4713 28.1707 30.5266 28.8215 31.1775C29.4724 31.8283 30.5277 31.8283 31.1786 31.1775L32.688 29.6681Z" fill="#039855"/>
</svg>
