<svg width="20" height="20" viewBox="0 0 20 20" fill="none" xmlns="http://www.w3.org/2000/svg">
<path d="M10 18.3335C9.31818 18.3335 8.66682 18.0583 7.36411 17.508C4.12137 16.1382 2.5 15.4533 2.5 14.3012C2.5 13.9787 2.5 8.38726 2.5 5.8335M10 18.3335C10.6818 18.3335 11.3332 18.0583 12.6359 17.508C15.8786 16.1382 17.5 15.4533 17.5 14.3012V5.8335M10 18.3335L10 9.46253" stroke="#667085" stroke-width="1.2" stroke-linecap="round" stroke-linejoin="round"/>
<path d="M6.93827 8.07648L4.50393 6.89853C3.16798 6.25208 2.5 5.92885 2.5 5.41699C2.5 4.90513 3.16798 4.58191 4.50393 3.93545L6.93827 2.75751C8.4407 2.0305 9.19191 1.66699 10 1.66699C10.8081 1.66699 11.5593 2.0305 13.0617 2.7575L15.4961 3.93545C16.832 4.58191 17.5 4.90513 17.5 5.41699C17.5 5.92885 16.832 6.25208 15.4961 6.89853L13.0617 8.07648C11.5593 8.80349 10.8081 9.16699 10 9.16699C9.19191 9.16699 8.4407 8.80349 6.93827 8.07648Z" stroke="#667085" stroke-width="1.2" stroke-linecap="round" stroke-linejoin="round"/>
<path d="M5 10L6.66667 10.8333" stroke="#667085" stroke-width="1.2" stroke-linecap="round" stroke-linejoin="round"/>
<path d="M14.1667 3.3335L5.83334 7.50016" stroke="#667085" stroke-width="1.2" stroke-linecap="round" stroke-linejoin="round"/>
</svg>
