<svg width="24" height="24" viewBox="0 0 24 24" fill="none" xmlns="http://www.w3.org/2000/svg">
<path d="M7.5 4C6.67157 4 6 4.67157 6 5.5V18.5C6 19.3284 6.67157 20 7.5 20H8.5C9.32843 20 10 19.3284 10 18.5V5.5C10 4.67157 9.32843 4 8.5 4H7.5ZM7.5 3H8.5C9.88071 3 11 4.11929 11 5.5V18.5C11 19.8807 9.88071 21 8.5 21H7.5C6.11929 21 5 19.8807 5 18.5V5.5C5 4.11929 6.11929 3 7.5 3ZM15.5 3H16.5C17.8807 3 19 4.11929 19 5.5V18.5C19 19.8807 17.8807 21 16.5 21H15.5C14.1193 21 13 19.8807 13 18.5V5.5C13 4.11929 14.1193 3 15.5 3ZM15.5 4C14.6716 4 14 4.67157 14 5.5V18.5C14 19.3284 14.6716 20 15.5 20H16.5C17.3284 20 18 19.3284 18 18.5V5.5C18 4.67157 17.3284 4 16.5 4H15.5Z" fill="#151716"/>
</svg>
