<svg width="90" height="32" viewBox="0 0 90 32" fill="none" xmlns="http://www.w3.org/2000/svg">
<path d="M0.795044 3.11539C0.795044 1.39481 2.18985 0 3.91043 0H86.8225C88.5431 0 89.9379 1.39481 89.9379 3.11538V28.8846C89.9379 30.6052 88.5431 32 86.8225 32H3.91043C2.18986 32 0.795044 30.6052 0.795044 28.8846V3.11539Z" fill="#151716"/>
<path d="M34.1643 10.1937C34.1771 10.3917 34.1494 10.5903 34.0829 10.7777C34.0164 10.965 33.9124 11.1373 33.7771 11.2845C33.5773 11.4833 33.3307 11.6304 33.0592 11.7127C32.7877 11.795 32.4997 11.81 32.2209 11.7563C31.9421 11.7026 31.6811 11.5818 31.4612 11.4048C31.2412 11.2278 31.0691 11.0001 30.9602 10.7418C30.8513 10.4835 30.8089 10.2027 30.8369 9.92441C30.8648 9.64611 30.9622 9.37892 31.1204 9.14664C31.2786 8.91435 31.4927 8.72416 31.7436 8.59299C31.9945 8.46182 32.2744 8.39375 32.5585 8.39483C32.7902 8.39708 33.0181 8.45318 33.2236 8.55857C33.421 8.63992 33.593 8.77147 33.7219 8.93974L33.4444 9.21219C33.3396 9.08226 33.2041 8.97958 33.0497 8.91313C32.8952 8.84668 32.7266 8.81849 32.5585 8.83103C32.391 8.82406 32.2242 8.85477 32.0705 8.92082C31.9169 8.98687 31.7806 9.08652 31.672 9.21219C31.4236 9.4588 31.2842 9.79201 31.2842 10.1393C31.2842 10.4866 31.4236 10.8198 31.672 11.0664C31.9134 11.2911 32.227 11.4259 32.5585 11.4476C32.7342 11.4548 32.9093 11.4245 33.0719 11.3587C33.2345 11.2929 33.3807 11.1932 33.5003 11.0664C33.5888 10.9812 33.6589 10.8793 33.7065 10.7668C33.7541 10.6543 33.7781 10.5336 33.7771 10.4118H32.5582V9.97554H34.164V10.1937H34.1643ZM36.7119 8.83103H35.2162V9.86683H36.6011V10.248H35.2162V11.2845H36.7116V11.72H34.7738V8.44885H36.7119V8.83103ZM38.5403 11.72H38.0972V8.83103H37.1554V8.44918H39.4814V8.83103H38.5403V11.72ZM41.0879 11.72V8.44885H41.5303V11.72H41.0879ZM43.4139 11.72H42.9708V8.83103H42.029V8.44918H44.2998V8.83103H43.3584V11.72H43.4139ZM48.6755 11.2845C48.3931 11.5675 48.0196 11.7451 47.6189 11.7871C47.2182 11.8291 46.8152 11.7328 46.4786 11.5146C46.1421 11.2965 45.8929 10.97 45.7738 10.5911C45.6547 10.2122 45.6729 9.80425 45.8255 9.43709C45.978 9.06994 46.2553 8.76633 46.6101 8.57815C46.9648 8.38998 47.3749 8.32893 47.7703 8.40543C48.1657 8.48193 48.5218 8.69124 48.7778 8.99758C49.0338 9.30392 49.1738 9.68826 49.1738 10.0849C49.1802 10.3082 49.1392 10.5304 49.0534 10.7372C48.9676 10.9439 48.8389 11.1308 48.6755 11.2858V11.2845ZM46.5686 11.0127C46.8037 11.2468 47.1209 11.3835 47.4552 11.3945C47.6226 11.4016 47.7895 11.3708 47.943 11.3046C48.0966 11.2384 48.2327 11.1386 48.3411 11.0127C48.5897 10.7665 48.7291 10.4334 48.729 10.0863C48.7416 9.91274 48.7132 9.73867 48.6459 9.57779C48.5786 9.4169 48.4742 9.2736 48.3411 9.15918C48.1062 8.92506 47.7892 8.78842 47.4552 8.77735C47.2876 8.77056 47.1207 8.80144 46.9671 8.86766C46.8134 8.93389 46.6772 9.0337 46.5686 9.15952C46.3202 9.40609 46.181 9.73938 46.1814 10.0866C46.1686 10.26 46.197 10.4339 46.2642 10.5946C46.3314 10.7553 46.4356 10.8984 46.5686 11.0127ZM49.7812 11.7217V8.45053H50.2795L51.8853 11.0127V8.45053H52.3305V11.7217H51.8874L50.1725 9.05081V11.7217H49.7812Z" fill="white"/>
<path d="M45.6297 16.5199C45.315 16.5129 45.0021 16.5688 44.71 16.6841C44.4178 16.7994 44.1525 16.9718 43.9299 17.1909C43.7073 17.41 43.5321 17.6711 43.4148 17.9587C43.2976 18.2462 43.2407 18.5542 43.2477 18.864C43.2454 19.1725 43.3054 19.4784 43.4243 19.7638C43.5432 20.0493 43.7186 20.3087 43.9402 20.5268C44.1619 20.7449 44.4254 20.9175 44.7154 21.0345C45.0055 21.1514 45.3162 21.2104 45.6297 21.208C45.9443 21.2149 46.2571 21.159 46.5492 21.0437C46.8413 20.9283 47.1066 20.7559 47.3291 20.5369C47.5516 20.3178 47.7268 20.0566 47.844 19.7691C47.9611 19.4816 48.0179 19.1737 48.0109 18.864C48.0226 18.553 47.969 18.2431 47.8535 17.9535C47.7379 17.6639 47.5629 17.4009 47.3394 17.1809C47.1159 16.9609 46.8488 16.7886 46.5546 16.6749C46.2604 16.5612 45.9455 16.5084 45.6297 16.5199ZM45.6297 20.2266C45.2656 20.2006 44.9251 20.04 44.6765 19.7769C44.4279 19.5138 44.2897 19.1679 44.2897 18.8086C44.2897 18.4493 44.4279 18.1033 44.6765 17.8403C44.9251 17.5772 45.2656 17.4165 45.6297 17.3906C45.8134 17.3918 45.995 17.4302 46.163 17.5033C46.3311 17.5764 46.4821 17.6828 46.6067 17.8157C46.7313 17.9487 46.8269 18.1054 46.8874 18.2762C46.9479 18.447 46.9722 18.6282 46.9587 18.8086C46.9675 18.9879 46.94 19.1672 46.8777 19.336C46.8154 19.5048 46.7197 19.6597 46.596 19.7917C46.4723 19.9237 46.3231 20.0301 46.1572 20.1048C45.9913 20.1794 45.812 20.2208 45.6297 20.2266ZM40.4782 16.5199C40.1636 16.513 39.8508 16.5689 39.5587 16.6842C39.2666 16.7996 39.0013 16.972 38.7788 17.191C38.5562 17.4101 38.3811 17.6713 38.2639 17.9588C38.1467 18.2463 38.0899 18.5542 38.097 18.864C38.0946 19.1724 38.1546 19.4783 38.2735 19.7637C38.3923 20.0491 38.5676 20.3084 38.7892 20.5266C39.0108 20.7447 39.2743 20.9173 39.5642 21.0343C39.8542 21.1512 40.1649 21.2103 40.4782 21.208C40.7929 21.215 41.1057 21.1591 41.3979 21.0438C41.69 20.9285 41.9554 20.7561 42.178 20.537C42.4006 20.318 42.5758 20.0568 42.6931 19.7692C42.8103 19.4817 42.8671 19.1737 42.8602 18.864C42.8718 18.553 42.8182 18.243 42.7026 17.9533C42.5871 17.6637 42.412 17.4006 42.1885 17.1806C41.9649 16.9606 41.6976 16.7884 41.4033 16.6747C41.1091 16.561 40.7941 16.5083 40.4782 16.5199ZM40.4782 20.2266C40.115 20.1995 39.7755 20.0384 39.5279 19.7755C39.2802 19.5125 39.1426 19.1672 39.1426 18.8086C39.1426 18.45 39.2802 18.1047 39.5279 17.8417C39.7755 17.5788 40.115 17.4176 40.4782 17.3906C40.662 17.3918 40.8436 17.4301 41.0117 17.5032C41.1799 17.5763 41.331 17.6826 41.4556 17.8156C41.5803 17.9485 41.6759 18.1053 41.7365 18.2761C41.7971 18.4469 41.8214 18.6281 41.8079 18.8086C41.8168 18.988 41.7892 19.1673 41.7269 19.3362C41.6646 19.505 41.5687 19.6599 41.445 19.7919C41.3212 19.9239 41.172 20.0303 41.006 20.1049C40.84 20.1796 40.6606 20.2209 40.4782 20.2266ZM34.3308 17.2282V18.2097H36.712C36.678 18.6775 36.4827 19.1198 36.1585 19.4636C35.9201 19.6995 35.6347 19.8843 35.3202 20.0063C35.0057 20.1284 34.6689 20.185 34.3311 20.1726C33.9837 20.176 33.6391 20.1103 33.3181 19.9793C32.9971 19.8483 32.7063 19.6548 32.4632 19.4104C32.22 19.166 32.0296 18.8758 31.9033 18.5571C31.7771 18.2384 31.7175 17.8979 31.7283 17.556C31.7222 17.2153 31.7849 16.8768 31.9128 16.5601C32.0408 16.2434 32.2314 15.955 32.4735 15.7114C32.7157 15.4679 33.0047 15.2742 33.3236 15.1416C33.6424 15.0089 33.9849 14.94 34.3311 14.9388C35.0082 14.9455 35.6589 15.198 36.1585 15.6478L36.8787 14.9388C36.2106 14.303 35.3157 13.9506 34.3864 13.9574C33.9021 13.9508 33.4214 14.0391 32.9721 14.217C32.5228 14.3949 32.1138 14.6589 31.769 14.9937C31.4243 15.3285 31.1505 15.7273 30.9636 16.1672C30.7768 16.607 30.6805 17.079 30.6805 17.5557C30.6805 18.0324 30.7768 18.5044 30.9636 18.9442C31.1505 19.384 31.4243 19.7829 31.769 20.1177C32.1138 20.4525 32.5228 20.7165 32.9721 20.8944C33.4214 21.0723 33.9021 21.1605 34.3864 21.154C34.8627 21.1802 35.3389 21.1007 35.7799 20.9214C36.2208 20.7421 36.6152 20.4676 36.9339 20.1182C37.5188 19.4963 37.8365 18.6758 37.8205 17.8285C37.8322 17.6268 37.8136 17.4245 37.7653 17.2282H34.3308ZM59.4754 17.9922C59.3395 17.5737 59.0745 17.2072 58.7174 16.9435C58.3603 16.6799 57.9287 16.5322 57.4824 16.5209C56.2638 16.5209 55.2668 17.4473 55.2668 18.865C55.2583 19.1705 55.3122 19.4746 55.4254 19.7592C55.5385 20.0439 55.7086 20.3032 55.9256 20.5219C56.1426 20.7405 56.402 20.914 56.6884 21.0321C56.9748 21.1501 57.2824 21.2103 57.5929 21.209C57.9788 21.2127 58.3593 21.1196 58.6986 20.9383C59.0378 20.7571 59.3245 20.4938 59.5317 20.1732L58.7562 19.6283C58.6369 19.8276 58.4668 19.9928 58.2628 20.1076C58.0588 20.2224 57.8279 20.2829 57.5929 20.283C57.3487 20.2952 57.1066 20.234 56.8987 20.1073C56.6909 19.9806 56.5272 19.7946 56.4295 19.574L59.5869 18.2657L59.4758 17.9926L59.4754 17.9922ZM56.2635 18.7563C56.252 18.419 56.3717 18.0901 56.5982 17.8368C56.8246 17.5834 57.1408 17.4247 57.4821 17.393C57.6612 17.3871 57.8385 17.4297 57.9948 17.5162C58.151 17.6027 58.2801 17.7298 58.368 17.8835L56.2635 18.7563ZM53.66 20.9916H54.7116V14.1751H53.6586L53.66 20.9916ZM51.999 17.0118C51.6644 16.6713 51.2064 16.475 50.7252 16.4659C50.1128 16.4936 49.5348 16.7529 49.1118 17.1897C48.6888 17.6265 48.4533 18.2071 48.4544 18.8106C48.45 19.1079 48.5054 19.4032 48.6173 19.6793C48.7292 19.9555 48.8954 20.2072 49.1064 20.42C49.3174 20.6328 49.569 20.8024 49.8468 20.9191C50.1246 21.0359 50.4231 21.0975 50.7252 21.1003C50.9563 21.1021 51.1851 21.0542 51.3955 20.9601C51.606 20.866 51.7931 20.7279 51.9438 20.5554H51.999V20.8822C51.999 21.755 51.5007 22.2455 50.7252 22.2455C50.4689 22.2453 50.219 22.1664 50.0104 22.0197C49.8019 21.873 49.645 21.6658 49.5618 21.4271L48.6752 21.8073C48.8517 22.2125 49.1453 22.5577 49.5194 22.8C49.8936 23.0422 50.3319 23.1709 50.7797 23.1699C51.9983 23.1699 52.9953 22.4609 52.9953 20.7728V16.6286H51.9983V17.0104L51.999 17.0118ZM50.7804 20.2279C50.4172 20.2009 50.0777 20.0397 49.8301 19.7768C49.5824 19.5139 49.4448 19.1685 49.4448 18.8099C49.4448 18.4514 49.5824 18.106 49.8301 17.8431C50.0777 17.5801 50.4172 17.419 50.7804 17.3919C51.5006 17.3919 52.0542 17.9915 52.0542 18.8099C52.0542 19.6283 51.5003 20.2266 50.7804 20.2266V20.2279ZM64.2935 14.1765H61.8018V20.992H62.854V18.4278H64.2945C64.5862 18.4403 64.8775 18.3946 65.1507 18.2933C65.424 18.1921 65.6736 18.0374 65.8845 17.8387C66.0954 17.6399 66.2632 17.4012 66.3779 17.1369C66.4925 16.8726 66.5516 16.5882 66.5516 16.3008C66.5516 16.0134 66.4925 15.7289 66.3779 15.4646C66.2632 15.2003 66.0954 14.9616 65.8845 14.7628C65.6736 14.5641 65.424 14.4095 65.1507 14.3082C64.8775 14.207 64.5862 14.1612 64.2945 14.1738L64.2935 14.1765ZM64.3494 17.4476H62.854V15.1022H64.3494C64.6633 15.1015 64.9653 15.2201 65.1923 15.4334C65.4194 15.6467 65.554 15.9381 65.568 16.2467C65.5555 16.561 65.4232 16.859 65.1973 17.0814C64.9714 17.3037 64.6686 17.434 64.3494 17.4463V17.4476ZM70.7184 16.4662C69.9429 16.4662 69.1678 16.7937 68.891 17.5027L69.8322 17.8838C69.9243 17.7214 70.0623 17.5886 70.2294 17.5015C70.3965 17.4145 70.5856 17.3769 70.774 17.3933C71.0365 17.374 71.2968 17.4532 71.5024 17.6151C71.708 17.7771 71.8436 18.0096 71.8821 18.266V18.3204C71.5599 18.144 71.1978 18.0503 70.8292 18.0479C69.8322 18.0479 68.8351 18.5928 68.8351 19.5743C68.8443 19.7861 68.8962 19.9939 68.9878 20.1857C69.0794 20.3776 69.2089 20.5495 69.3687 20.6916C69.5285 20.8337 69.7155 20.943 69.9186 21.0132C70.1218 21.0835 70.3371 21.1132 70.5521 21.1007C70.8115 21.1091 71.0691 21.0537 71.3013 20.9394C71.5335 20.825 71.733 20.6555 71.8818 20.446H71.937V20.992H72.934V18.3747C72.8936 17.8338 72.6385 17.3303 72.2238 16.9732C71.8092 16.616 71.2684 16.4339 70.7184 16.4662ZM70.6073 20.2279C70.2753 20.2279 69.7766 20.0649 69.7766 19.6286C69.7766 19.0837 70.3864 18.9197 70.8847 18.9197C71.2112 18.9209 71.5331 18.9955 71.8258 19.1378C71.7835 19.4306 71.6386 19.6996 71.4162 19.8984C71.1938 20.0972 70.9078 20.2133 70.6076 20.2266L70.6073 20.2279ZM76.4217 16.6286L75.259 19.5726H75.2038L73.9852 16.6286H72.8771L74.7054 20.7722L73.6532 23.0619H74.7068L77.5312 16.6286H76.4217ZM67.1175 20.9906H68.1698V14.1751H67.1175V20.9906Z" fill="white"/>
<path d="M13.3289 8.72363C13.1582 8.94063 13.0789 9.21397 13.1074 9.48699V21.5362C13.0955 21.8164 13.1947 22.0901 13.3841 22.2995L13.44 22.3539L20.3077 15.5935V15.4841L13.3289 8.72363Z" fill="white"/>
<path d="M23.2097 17.8837L20.9388 15.6484V15.4846L23.2097 13.2493L23.2649 13.3043L25.9788 14.8307C26.7543 15.2669 26.7543 15.9752 25.9788 16.4114L23.2097 17.8837Z" fill="white"/>
<path d="M22.9212 18.1659L20.5952 15.8762L13.6716 22.691C13.9484 22.9635 14.3367 22.9635 14.835 22.7454L22.9212 18.1659Z" fill="white"/>
<path d="M22.9212 12.9105L14.835 8.38646C14.3367 8.11401 13.9484 8.16836 13.6716 8.44081L20.5952 15.2019L22.9212 12.9115V12.9105Z" fill="white"/>
</svg>
