<svg width="24" height="24" viewBox="0 0 24 24" fill="none" xmlns="http://www.w3.org/2000/svg">
<path d="M3 5.5C3 4.11929 4.11929 3 5.5 3H11.5C11.6326 3 11.7598 3.05268 11.8536 3.14645L20.1565 11.4494C21.289 12.5819 21.289 14.4181 20.1565 15.5506L15.5506 20.1565C14.4181 21.289 12.5819 21.289 11.4494 20.1565L3.14645 11.8536C3.05268 11.7598 3 11.6326 3 11.5V5.5ZM11.2929 4H5.5C4.67157 4 4 4.67157 4 5.5V11.2929L12.1565 19.4494C12.8985 20.1914 14.1015 20.1914 14.8435 19.4494L19.4494 14.8435C20.1914 14.1015 20.1914 12.8985 19.4494 12.1565L11.2929 4ZM8 7C7.44772 7 7 7.44772 7 8C7 8.55228 7.44772 9 8 9C8.55228 9 9 8.55228 9 8C9 7.44772 8.55228 7 8 7ZM8 6C9.10457 6 10 6.89543 10 8C10 9.10457 9.10457 10 8 10C6.89543 10 6 9.10457 6 8C6 6.89543 6.89543 6 8 6Z" fill="#151716"/>
</svg>
