<svg width="16" height="16" viewBox="0 0 16 16" fill="none" xmlns="http://www.w3.org/2000/svg">
<path d="M12.6666 12.0109V13.6835C12.6666 13.7719 12.6315 13.8567 12.569 13.9192C12.5064 13.9817 12.4217 14.0169 12.3333 14.0169H3.66659C3.57818 14.0169 3.4934 13.9817 3.43088 13.9192C3.36837 13.8567 3.33325 13.7719 3.33325 13.6835V12.0002H2.33325C2.06804 12.0002 1.81368 11.8948 1.62615 11.7073C1.43861 11.5198 1.33325 11.2654 1.33325 11.0002V7.66685C1.33325 7.22483 1.50885 6.8009 1.82141 6.48834C2.13397 6.17578 2.55789 6.00019 2.99992 6.00019H3.33325V2.33352C3.33325 2.24512 3.36837 2.16033 3.43088 2.09782C3.4934 2.03531 3.57818 2.00019 3.66659 2.00019L12.3333 1.99219C12.4217 1.99219 12.5064 2.02731 12.569 2.08982C12.6315 2.15233 12.6666 2.23712 12.6666 2.32552V6.00019H12.9999C13.4419 6.00019 13.8659 6.17578 14.1784 6.48834C14.491 6.8009 14.6666 7.22483 14.6666 7.66685V11.0109C14.6666 11.2761 14.5612 11.5304 14.3737 11.718C14.1862 11.9055 13.9318 12.0109 13.6666 12.0109H12.6666ZM12.6666 11.3442H13.6666C13.755 11.3442 13.8398 11.3091 13.9023 11.2466C13.9648 11.184 13.9999 11.0993 13.9999 11.0109V7.66685C13.9999 7.40164 13.8946 7.14728 13.707 6.95975C13.5195 6.77221 13.2651 6.66685 12.9999 6.66685H12.6666V9.00819C12.6666 9.09659 12.6315 9.18138 12.569 9.24389C12.5064 9.3064 12.4217 9.34152 12.3333 9.34152H3.66659C3.57818 9.34152 3.4934 9.3064 3.43088 9.24389C3.36837 9.18138 3.33325 9.09659 3.33325 9.00819V6.66685H2.99992C2.7347 6.66685 2.48035 6.77221 2.29281 6.95975C2.10528 7.14728 1.99992 7.40164 1.99992 7.66685V11.0002C1.99992 11.0886 2.03504 11.1734 2.09755 11.2359C2.16006 11.2984 2.24485 11.3335 2.33325 11.3335H3.33325V10.3335C3.33325 10.2451 3.36837 10.1603 3.43088 10.0978C3.4934 10.0353 3.57818 10.0002 3.66659 10.0002H12.3333C12.4217 10.0002 12.5064 10.0353 12.569 10.0978C12.6315 10.1603 12.6666 10.2451 12.6666 10.3335V11.3442ZM11.9999 6.33219V2.65885L3.99992 2.66685V8.67485H11.9999V6.33219ZM5.66659 4.66685C5.57818 4.66685 5.49339 4.63174 5.43088 4.56922C5.36837 4.50671 5.33325 4.42193 5.33325 4.33352C5.33325 4.24512 5.36837 4.16033 5.43088 4.09782C5.49339 4.03531 5.57818 4.00019 5.66659 4.00019H10.3333C10.4217 4.00019 10.5064 4.03531 10.569 4.09782C10.6315 4.16033 10.6666 4.24512 10.6666 4.33352C10.6666 4.42193 10.6315 4.50671 10.569 4.56922C10.5064 4.63174 10.4217 4.66685 10.3333 4.66685H5.66659ZM5.66659 6.00019C5.57818 6.00019 5.49339 5.96507 5.43088 5.90256C5.36837 5.84004 5.33325 5.75526 5.33325 5.66685C5.33325 5.57845 5.36837 5.49366 5.43088 5.43115C5.49339 5.36864 5.57818 5.33352 5.66659 5.33352H10.3333C10.4217 5.33352 10.5064 5.36864 10.569 5.43115C10.6315 5.49366 10.6666 5.57845 10.6666 5.66685C10.6666 5.75526 10.6315 5.84004 10.569 5.90256C10.5064 5.96507 10.4217 6.00019 10.3333 6.00019H5.66659ZM5.66659 7.33352C5.57818 7.33352 5.49339 7.2984 5.43088 7.23589C5.36837 7.17338 5.33325 7.08859 5.33325 7.00019C5.33325 6.91178 5.36837 6.827 5.43088 6.76449C5.49339 6.70197 5.57818 6.66685 5.66659 6.66685H8.99992C9.08832 6.66685 9.17311 6.70197 9.23562 6.76449C9.29813 6.827 9.33325 6.91178 9.33325 7.00019C9.33325 7.08859 9.29813 7.17338 9.23562 7.23589C9.17311 7.2984 9.08832 7.33352 8.99992 7.33352H5.66659ZM3.99992 10.6669V13.3502H11.9999V10.6669H3.99992Z" fill="#151716"/>
</svg>
