<svg width="43" height="44" viewBox="0 0 43 44" fill="none" xmlns="http://www.w3.org/2000/svg">
<g filter="url(#filter0_d_6398_29372)">
<path d="M1.5 10C1.5 5.58172 5.08172 2 9.5 2H33.5C37.9183 2 41.5 5.58172 41.5 10V34C41.5 38.4183 37.9183 42 33.5 42H9.5C5.08172 42 1.5 38.4183 1.5 34V10Z" fill="#ECFDF3"/>
<path d="M22.66 17.512H17.812V15.8H25.22V17.272L22.1 20.472C22.5267 20.5253 22.9373 20.6267 23.332 20.776C23.7373 20.9147 24.0893 21.112 24.388 21.368C24.6973 21.6133 24.9427 21.9227 25.124 22.296C25.3053 22.6693 25.396 23.1173 25.396 23.64C25.396 24.1627 25.3 24.6427 25.108 25.08C24.916 25.5067 24.6493 25.88 24.308 26.2C23.9667 26.5093 23.5507 26.7547 23.06 26.936C22.58 27.1067 22.052 27.192 21.476 27.192C20.4947 27.192 19.652 27.0107 18.948 26.648C18.2547 26.2747 17.668 25.8 17.188 25.224L18.564 23.944C18.9693 24.424 19.4013 24.792 19.86 25.048C20.3293 25.2933 20.8787 25.416 21.508 25.416C22.0627 25.416 22.5213 25.2613 22.884 24.952C23.2573 24.6427 23.444 24.2267 23.444 23.704C23.444 23.1387 23.2147 22.7067 22.756 22.408C22.2973 22.1093 21.668 21.96 20.868 21.96H19.956L19.636 20.728L22.66 17.512Z" fill="#027A48"/>
</g>
<defs>
<filter id="filter0_d_6398_29372" x="0" y="0.5" width="43" height="43" filterUnits="userSpaceOnUse" color-interpolation-filters="sRGB">
<feFlood flood-opacity="0" result="BackgroundImageFix"/>
<feColorMatrix in="SourceAlpha" type="matrix" values="0 0 0 0 0 0 0 0 0 0 0 0 0 0 0 0 0 0 127 0" result="hardAlpha"/>
<feMorphology radius="1.5" operator="dilate" in="SourceAlpha" result="effect1_dropShadow_6398_29372"/>
<feOffset/>
<feComposite in2="hardAlpha" operator="out"/>
<feColorMatrix type="matrix" values="0 0 0 0 0.129017 0 0 0 0 0.718533 0 0 0 0 0.423775 0 0 0 1 0"/>
<feBlend mode="normal" in2="BackgroundImageFix" result="effect1_dropShadow_6398_29372"/>
<feBlend mode="normal" in="SourceGraphic" in2="effect1_dropShadow_6398_29372" result="shape"/>
</filter>
</defs>
</svg>
