<svg width="41" height="40" viewBox="0 0 41 40" fill="none" xmlns="http://www.w3.org/2000/svg">
<rect x="1" y="0.5" width="39" height="39" rx="7.5" fill="white"/>
<rect x="1" y="0.5" width="39" height="39" rx="7.5" stroke="#EAECF0"/>
<path d="M16.268 26V25.024L20.332 21.44C22.044 19.904 22.668 19.04 22.668 17.92C22.668 16.608 21.628 15.776 20.412 15.776C19.132 15.776 18.3 16.432 17.404 17.696L16.476 17.024C17.516 15.52 18.524 14.64 20.508 14.64C22.524 14.64 23.98 15.984 23.98 17.808V17.84C23.98 19.472 23.116 20.48 21.148 22.192L18.156 24.848H24.092V26H16.268Z" fill="#98A2B3"/>
</svg>
