<svg width="41" height="40" viewBox="0 0 41 40" fill="none" xmlns="http://www.w3.org/2000/svg">
<rect x="1" y="0.5" width="39" height="39" rx="7.5" fill="white"/>
<rect x="1" y="0.5" width="39" height="39" rx="7.5" stroke="#EAECF0"/>
<path d="M20.476 26.192C18.604 26.192 17.212 25.392 16.3 24.192L17.212 23.376C18.092 24.448 19.1 25.04 20.492 25.04C21.852 25.04 22.94 24.192 22.94 22.864V22.832C22.94 21.44 21.644 20.672 19.804 20.672H19.084L18.828 19.92L22.364 15.936H16.892V14.8H24.044V15.728L20.524 19.632C22.476 19.808 24.22 20.72 24.22 22.784V22.816C24.22 24.816 22.556 26.192 20.476 26.192Z" fill="#98A2B3"/>
</svg>
