<svg width="250" height="194" viewBox="0 0 250 194" fill="none" xmlns="http://www.w3.org/2000/svg">
<path d="M120.651 18.4957C119.651 20.1691 118.644 21.8375 117.591 23.482C117.043 24.3598 116.483 25.2355 115.996 26.1469C113.403 31.0138 110.866 35.9147 108.155 40.7194C106.472 43.6695 104.758 46.6022 103.014 49.5176L100.384 53.8824L97.706 58.2175C97.1412 59.0807 96.5081 59.8973 95.8129 60.6594C95.5422 60.9842 95.1981 61.24 94.8091 61.4056C94.42 61.5712 93.9972 61.642 93.5754 61.6119C92.4052 61.5544 91.7708 60.4928 92.2618 59.1864C92.6018 58.3446 93.0459 57.5486 93.5837 56.817C94.7765 55.127 95.8925 53.3929 96.9319 51.6147C97.9777 49.8403 98.9508 48.0233 99.8511 46.1638C100.349 45.1379 100.809 44.0366 101.498 43.1608C103.697 40.3603 105.25 37.1501 107.202 34.1949C108.652 31.9972 109.937 29.6875 111.321 27.4445L115.02 21.4408C116.241 19.4328 117.513 17.4533 118.742 15.4478C119.242 14.6802 119.793 13.9463 120.389 13.251C120.97 12.6075 121.586 11.9967 122.235 11.4214C122.807 10.9112 123.225 11.1955 123.037 12.0515C122.765 13.2789 122.407 14.4858 121.966 15.6634C121.786 16.1472 121.576 16.6228 121.347 17.0894C121.1 17.5457 120.851 18.0036 120.604 18.4588L120.651 18.4957Z" fill="#FFC12E"/>
<path d="M160.123 58.8474L158.01 60.1726L155.862 61.4482C155.104 61.9011 154.342 62.356 153.625 62.8713C152.668 63.5563 151.719 64.2532 150.773 64.9539L147.924 67.0383L142.238 71.2177L135.224 76.3463L128.237 81.5138C127.515 82.0178 126.758 82.4693 125.971 82.8649C125.656 83.0403 125.303 83.1394 124.942 83.1544C124.581 83.1694 124.222 83.0999 123.892 82.9512C122.975 82.5608 122.792 81.5309 123.583 80.6227C124.11 80.0435 124.709 79.5346 125.366 79.1086C128.31 77.1147 131.126 74.9368 133.795 72.588C134.496 71.8916 135.274 71.2774 136.114 70.7571C138.811 69.2925 141.155 67.3052 143.747 65.6906C145.673 64.493 147.517 63.1557 149.44 61.9472C152.878 59.8051 156.334 57.6984 159.866 55.7181C161.199 54.9519 162.65 54.4115 164.159 54.1186C164.812 53.9904 165.049 54.4447 164.552 55.0037C163.834 55.7989 163.065 56.5463 162.25 57.241C161.565 57.8025 160.848 58.3229 160.101 58.7995L160.123 58.8474Z" fill="#FFC12E"/>
<path d="M169.617 111.115C168.177 111.082 166.736 111.042 165.294 110.996C164.53 110.939 163.763 110.927 162.998 110.961C160.961 111.095 158.927 111.273 156.895 111.452C154.862 111.629 152.83 111.792 150.797 111.922C148.293 112.088 145.789 112.227 143.285 112.373L135.771 112.767C135.001 112.777 134.232 112.693 133.482 112.517C132.755 112.375 132.248 111.752 131.903 110.917C131.398 109.699 131.729 108.34 132.73 107.958C133.376 107.734 134.061 107.646 134.743 107.701C137.829 107.841 140.921 107.617 143.955 107.033C144.797 106.875 145.672 106.641 146.505 106.783C149.165 107.226 151.803 106.792 154.452 106.941C156.419 107.044 158.391 106.963 160.359 107.029C162.115 107.088 163.869 107.16 165.623 107.246L170.88 107.612C172.253 107.7 173.584 108.115 174.764 108.821C174.887 108.885 174.988 108.985 175.055 109.107C175.121 109.229 175.15 109.368 175.137 109.507C175.123 109.645 175.069 109.777 174.981 109.884C174.892 109.991 174.774 110.07 174.64 110.11C173.749 110.423 172.84 110.683 171.918 110.889C171.158 110.999 170.391 111.053 169.624 111.049L169.617 111.115Z" fill="#FFC12E"/>
<path d="M143.296 145.261C142.95 145.088 142.598 144.928 142.262 144.734L141.255 144.149C140.904 143.932 140.536 143.746 140.154 143.592C139.121 143.216 138.071 142.879 137.046 142.486C136.016 142.104 134.989 141.717 133.979 141.293C132.734 140.773 131.499 140.231 130.283 139.649L126.635 137.903C126.266 137.693 125.939 137.416 125.672 137.087C125.391 136.779 125.398 136.181 125.561 135.472C125.8 134.439 126.477 133.533 127.082 133.529C127.453 133.54 127.81 133.668 128.103 133.895C129.461 134.846 130.994 135.518 132.613 135.873C133.065 135.976 133.566 136.019 133.899 136.345C134.969 137.372 136.367 137.725 137.558 138.503C138.439 139.088 139.42 139.476 140.317 140.034C141.92 141.021 143.541 141.966 145.117 143.01C145.776 143.432 146.287 144.048 146.58 144.773C146.614 144.862 146.629 144.958 146.622 145.054C146.615 145.15 146.588 145.243 146.541 145.327C146.495 145.411 146.431 145.484 146.353 145.54C146.276 145.597 146.187 145.636 146.093 145.654C145.825 145.669 145.555 145.674 145.287 145.669C145.023 145.67 144.761 145.648 144.501 145.604C144.097 145.51 143.702 145.38 143.322 145.215L143.296 145.261Z" fill="#FFC12E"/>
<path d="M62.5984 29.3681C62.7349 30.2837 62.8616 31.199 62.9785 32.1141C63.0284 32.6002 63.1076 33.0828 63.2155 33.5594C63.5573 34.8139 63.8858 36.0745 64.1908 37.3427C64.4905 38.612 64.7414 39.8917 64.9435 41.1818C65.1753 42.7712 65.3596 44.3688 65.4758 45.9719C65.5927 47.5748 65.6657 49.1801 65.695 50.7879C65.6811 51.2861 65.5831 51.7783 65.4053 52.2439C65.2569 52.703 64.7364 53.0001 64.0535 53.1809C63.0586 53.4431 61.9905 53.1759 61.7331 52.5565C61.5892 52.1629 61.5494 51.7387 61.6176 51.3252C61.8513 49.4495 61.7095 47.5461 61.2007 45.7257C61.0656 45.2187 60.8541 44.7013 60.9406 44.1896C61.2241 42.5487 60.7385 40.9753 60.6695 39.3627C60.6401 38.7627 60.5782 38.1647 60.4841 37.5713C60.4029 36.976 60.3032 36.3833 60.2287 35.7864C59.9609 33.6581 59.6729 31.5223 59.2856 29.3985C59.1511 28.5001 59.3086 27.5822 59.7349 26.7801C59.9084 26.3806 60.3485 26.2705 60.8162 26.5438L61.2459 26.8598C61.3152 26.9056 61.3748 26.9645 61.4213 27.0333L61.5624 27.2184C61.7465 27.4642 61.9156 27.721 62.0688 27.9872C62.1897 28.2022 62.2875 28.4294 62.3605 28.6651C62.4223 28.9025 62.4741 29.1432 62.5398 29.3788L62.5984 29.3681Z" fill="#FFC12E"/>
</svg>
