<svg width="41" height="40" viewBox="0 0 41 40" fill="none" xmlns="http://www.w3.org/2000/svg">
<rect x="0.5" width="40" height="40" rx="8" fill="#D1FADF"/>
<path d="M20 10C18.0222 10 16.0888 10.5865 14.4443 11.6853C12.7998 12.7841 11.5181 14.3459 10.7612 16.1732C10.0043 18.0004 9.8063 20.0111 10.1922 21.9509C10.578 23.8907 11.5304 25.6725 12.9289 27.0711C14.3275 28.4696 16.1093 29.422 18.0491 29.8079C19.9889 30.1937 21.9996 29.9957 23.8268 29.2388C25.6541 28.4819 27.2159 27.2002 28.3147 25.5557C29.4135 23.9112 30 21.9778 30 20C30 18.6868 29.7413 17.3864 29.2388 16.1732C28.7363 14.9599 27.9997 13.8575 27.0711 12.9289C26.1425 12.0003 25.0401 11.2638 23.8268 10.7612C22.6136 10.2587 21.3132 10 20 10ZM24.3 17.61L19.73 23.61C19.6368 23.731 19.5172 23.8291 19.3803 23.8967C19.2433 23.9643 19.0927 23.9996 18.94 24C18.7881 24.0008 18.638 23.967 18.5011 23.9012C18.3643 23.8353 18.2442 23.7392 18.15 23.62L15.71 20.51C15.6292 20.4063 15.5697 20.2876 15.5348 20.1609C15.4999 20.0341 15.4903 19.9017 15.5065 19.7713C15.5228 19.6408 15.5646 19.5148 15.6295 19.4005C15.6944 19.2862 15.7813 19.1858 15.885 19.105C16.0945 18.9419 16.3603 18.8687 16.6237 18.9015C16.7542 18.9178 16.8802 18.9596 16.9945 19.0245C17.1088 19.0894 17.2092 19.1763 17.29 19.28L18.92 21.36L22.7 16.36C22.7801 16.2549 22.8801 16.1667 22.9943 16.1003C23.1086 16.0339 23.2347 15.9906 23.3657 15.973C23.4966 15.9553 23.6297 15.9637 23.7574 15.9975C23.8851 16.0313 24.0049 16.0899 24.11 16.17C24.2151 16.2501 24.3033 16.3501 24.3697 16.4643C24.4361 16.5785 24.4794 16.7047 24.497 16.8356C24.5147 16.9666 24.5063 17.0997 24.4725 17.2274C24.4387 17.3551 24.3801 17.4749 24.3 17.58V17.61Z" fill="#007A49"/>
</svg>
