<svg width="16" height="16" viewBox="0 0 16 16" fill="none" xmlns="http://www.w3.org/2000/svg">
<g clip-path="url(#clip0_6308_10827)">
<path d="M2 7V10.3333C2 12.219 2 13.1618 2.58579 13.7475C3.17157 14.3333 4.11438 14.3333 6 14.3333H10C11.8856 14.3333 12.8284 14.3333 13.4142 13.7475C14 13.1618 14 12.219 14 10.3333V7" stroke="#05603A" stroke-width="1.5" stroke-linecap="round"/>
<path opacity="0.4" d="M10 11.334C9.54394 11.7388 8.81783 12.0007 8 12.0007C7.18217 12.0007 6.45606 11.7388 6 11.334" stroke="#05603A" stroke-width="1.5" stroke-linecap="round"/>
<path d="M1.94125 3.49038L1.22732 3.26059L1.22732 3.26059L1.94125 3.49038ZM1.48543 4.90654L2.19936 5.13634H2.19936L1.48543 4.90654ZM14.0586 3.49038L13.3447 3.72018L13.3447 3.72018L14.0586 3.49038ZM14.5144 4.90654L15.2283 4.67675V4.67675L14.5144 4.90654ZM6.61539 6.34012C6.32437 6.04537 5.84951 6.04234 5.55475 6.33336C5.25999 6.62437 5.25696 7.09924 5.54798 7.39399L6.61539 6.34012ZM10.452 6.3398C10.161 6.04497 9.68617 6.04183 9.39134 6.33278C9.09652 6.62373 9.09338 7.09859 9.38433 7.39341L10.452 6.3398ZM1.58347 6.38035L2.19147 5.94122H2.19147L1.58347 6.38035ZM7.49038 5.85518C7.59431 5.45421 7.35352 5.04492 6.95256 4.94098C6.55159 4.83705 6.1423 5.07785 6.03837 5.47881L7.49038 5.85518ZM11.3264 5.85518C11.4303 5.45421 11.1895 5.04492 10.7886 4.94098C10.3876 4.83705 9.97832 5.07785 9.87438 5.47881L11.3264 5.85518ZM14.4164 6.38035L13.8084 5.94122L13.8084 5.94122L14.4164 6.38035ZM14.6489 5.80477L13.9079 5.68913V5.68913L14.6489 5.80477ZM1.35092 5.80477L0.609888 5.92041V5.92041L1.35092 5.80477ZM2.7033 1.91867L2.25468 1.31764L2.25467 1.31764L2.7033 1.91867ZM1.22732 3.26059L0.771499 4.67675L2.19936 5.13634L2.65518 3.72018L1.22732 3.26059ZM13.3447 3.72018L13.8005 5.13634L15.2283 4.67675L14.7725 3.26059L13.3447 3.72018ZM4.38406 2.41699H11.6158V0.916992H4.38406V2.41699ZM7.99947 6.91699C7.45614 6.91699 6.96709 6.69634 6.61539 6.34012L5.54798 7.39399C6.17108 8.02509 7.04038 8.41699 7.99947 8.41699V6.91699ZM11.8364 6.91699C11.2929 6.91699 10.8037 6.6962 10.452 6.3398L9.38433 7.39341C10.0075 8.02485 10.877 8.41699 11.8364 8.41699V6.91699ZM4.16345 6.91699C3.41651 6.91699 2.59991 6.50672 2.19147 5.94122L0.975472 6.81948C1.68111 7.79648 2.96142 8.41699 4.16345 8.41699V6.91699ZM6.03837 5.47881C5.82471 6.30308 5.06801 6.91699 4.16345 6.91699V8.41699C5.76159 8.41699 7.10779 7.33121 7.49038 5.85518L6.03837 5.47881ZM9.87438 5.47881C9.66073 6.30308 8.90403 6.91699 7.99947 6.91699V8.41699C9.59761 8.41699 10.9438 7.33121 11.3264 5.85518L9.87438 5.47881ZM13.8084 5.94122C13.3999 6.50672 12.5833 6.91699 11.8364 6.91699V8.41699C13.0384 8.41699 14.3187 7.79648 15.0244 6.81948L13.8084 5.94122ZM13.8005 5.13634C13.8669 5.34264 13.8949 5.43426 13.9087 5.5109C13.9179 5.56218 13.9207 5.6069 13.9079 5.68913L15.3899 5.92041C15.471 5.40135 15.3496 5.05337 15.2283 4.67675L13.8005 5.13634ZM15.0244 6.81948C15.0787 6.74422 15.1713 6.62032 15.2446 6.45552C15.3189 6.28821 15.3597 6.11397 15.3899 5.92041L13.9079 5.68913C13.8979 5.75335 13.8893 5.79297 13.8829 5.81728C13.8798 5.82898 13.8775 5.83635 13.876 5.84047C13.8747 5.84443 13.874 5.84606 13.8739 5.84617C13.8739 5.84628 13.8754 5.84842 13.8084 5.94122L15.0244 6.81948ZM14.7725 3.26059C14.6361 2.83667 14.5159 2.45988 14.3819 2.16157C14.2407 1.84723 14.0544 1.54847 13.7452 1.31764L12.8479 2.5197C12.8758 2.54055 12.9289 2.58763 13.0136 2.77622C13.1056 2.98085 13.1979 3.26407 13.3447 3.72018L14.7725 3.26059ZM11.6158 2.41699C12.0815 2.41699 12.3656 2.41821 12.5775 2.44326C12.7687 2.46586 12.8222 2.50049 12.8479 2.5197L13.7452 1.31764C13.4337 1.08517 13.0947 0.993962 12.7537 0.95364C12.4334 0.915778 12.0458 0.916992 11.6158 0.916992V2.41699ZM0.771499 4.67675C0.650276 5.05337 0.528886 5.40134 0.609888 5.92041L2.09195 5.68913C2.07912 5.6069 2.0819 5.56218 2.09113 5.5109C2.10493 5.43426 2.13296 5.34264 2.19936 5.13634L0.771499 4.67675ZM2.19147 5.94122C2.12445 5.84842 2.12598 5.84628 2.12593 5.84617C2.12589 5.84606 2.12515 5.84443 2.12379 5.84047C2.12237 5.83635 2.12002 5.82898 2.11695 5.81728C2.11057 5.79297 2.10197 5.75335 2.09195 5.68913L0.609888 5.92041C0.640093 6.11397 0.680899 6.28821 0.755283 6.45553C0.828546 6.62032 0.921116 6.74422 0.975472 6.81948L2.19147 5.94122ZM2.65518 3.72018C2.80198 3.26407 2.89428 2.98085 2.9862 2.77622C3.07091 2.58763 3.124 2.54055 3.15193 2.5197L2.25467 1.31764C1.94543 1.54847 1.75912 1.84723 1.61791 2.16157C1.48391 2.45988 1.36376 2.83667 1.22732 3.26059L2.65518 3.72018ZM4.38406 0.916992C3.95408 0.916992 3.56639 0.915778 3.24616 0.95364C2.90513 0.993962 2.56611 1.08517 2.25468 1.31764L3.15193 2.5197C3.17766 2.50049 3.23117 2.46586 3.42229 2.44326C3.63422 2.41821 3.91832 2.41699 4.38406 2.41699V0.916992Z" fill="#05603A"/>
</g>
<defs>
<clipPath id="clip0_6308_10827">
<rect width="16" height="16" fill="white"/>
</clipPath>
</defs>
</svg>
