<svg width="40" height="40" viewBox="0 0 40 40" fill="none" xmlns="http://www.w3.org/2000/svg">
<path fill-rule="evenodd" clip-rule="evenodd" d="M31.8102 2.17068C31.0712 2.0833 30.169 2.08333 29.1098 2.08338H29.1097L10.8887 2.08338H10.8887C9.82951 2.08333 8.92724 2.0833 8.18824 2.17068C7.39811 2.2641 6.66954 2.46855 6.00998 2.96086C5.35409 3.45044 4.94381 4.09247 4.61434 4.82594C4.30329 5.51838 4.01979 6.39925 3.68355 7.44402L3.68354 7.44404L3.66268 7.50887L2.52313 11.0493L2.49817 11.1268C2.20472 12.0372 1.96947 12.767 2.14169 13.8706C2.21306 14.3279 2.30424 14.7032 2.45876 15.0508C2.6041 15.3777 2.7853 15.6282 2.92417 15.8201L2.92417 15.8201L2.94479 15.8487C3.06691 16.0177 3.19662 16.1824 3.33326 16.3422L3.33325 24.701C3.3332 26.9578 3.33315 28.8189 3.53118 30.2918C3.73908 31.8382 4.19236 33.2039 5.28588 34.2974C6.37939 35.3909 7.7451 35.8442 9.29149 36.0521C10.7644 36.2501 12.6254 36.2501 14.8822 36.25H14.8823L20.0577 36.25C21.0012 36.25 21.7566 35.4675 21.7233 34.5246C21.6917 33.6276 20.9553 32.9167 20.0577 32.9167H14.9999C12.5958 32.9167 10.9603 32.9132 9.73564 32.7485C8.55889 32.5903 8.01385 32.3113 7.6429 31.9404C7.27195 31.5694 6.993 31.0244 6.83479 29.8477C6.67013 28.623 6.66659 26.9875 6.66659 24.5834L6.66659 18.769C7.85984 19.2925 9.15305 19.5834 10.4081 19.5834C12.2075 19.5834 13.8687 18.9899 15.2032 17.988C16.5372 18.9892 18.1991 19.5834 19.9981 19.5834C21.7981 19.5834 23.4597 18.9896 24.7943 17.9872C26.1286 18.9889 27.7909 19.5834 29.5904 19.5834C32.4059 19.5834 35.4134 18.1197 37.0537 15.8487L37.0743 15.8201C37.2132 15.6282 37.3944 15.3777 37.5397 15.0508C37.6942 14.7032 37.7854 14.3279 37.8568 13.8706C38.029 12.767 37.7938 12.0372 37.5003 11.1268L37.4753 11.0493L36.3149 7.44402C35.9787 6.39925 35.6952 5.51838 35.3841 4.82594C35.0547 4.09247 34.6444 3.45044 33.9885 2.96086C33.3289 2.46855 32.6004 2.2641 31.8102 2.17068Z" fill="#039855"/>
<path fill-rule="evenodd" clip-rule="evenodd" d="M10 28.3334C10 27.4129 10.7462 26.6667 11.6667 26.6667H18.3333C19.2538 26.6667 20 27.4129 20 28.3334C20 29.2539 19.2538 30.0001 18.3333 30.0001H11.6667C10.7462 30.0001 10 29.2539 10 28.3334Z" fill="#039855"/>
<path fill-rule="evenodd" clip-rule="evenodd" d="M30.8333 21.25C26.9438 21.25 23.75 24.35 23.75 28.2238C23.75 30.4308 24.8605 32.0795 26.0118 33.3988C26.4222 33.869 26.873 34.3353 27.2944 34.771L27.2944 34.7711C27.4542 34.9362 27.6097 35.097 27.7571 35.252C28.3175 35.8411 28.7991 36.3828 29.1712 36.9359C29.4825 37.3986 30.0389 37.9167 30.843 37.9167C31.6606 37.9167 32.2155 37.3833 32.5171 36.9026C32.8705 36.3395 33.3377 35.7988 33.8885 35.2184C34.0685 35.0287 34.2667 34.8257 34.4722 34.6152L34.4722 34.6152C34.855 34.223 35.2631 33.805 35.6253 33.3997C36.7857 32.1014 37.9167 30.4755 37.9167 28.2238C37.9167 24.35 34.7229 21.25 30.8333 21.25ZM30.8222 30.8333C29.4476 30.8333 28.3333 29.714 28.3333 28.3333C28.3333 26.9526 29.4476 25.8333 30.8222 25.8333H30.8445C32.219 25.8333 33.3333 26.9526 33.3333 28.3333C33.3333 29.714 32.219 30.8333 30.8445 30.8333H30.8222Z" fill="#039855"/>
</svg>
