<svg width="20" height="21" viewBox="0 0 20 21" fill="none" xmlns="http://www.w3.org/2000/svg">
<path d="M16.5254 7.43327L12.7504 3.65827C11.9587 2.8666 10.8671 2.4416 9.75039 2.49993L5.58372 2.69994C3.91705 2.77494 2.59205 4.09993 2.50872 5.75827L2.30872 9.92493C2.25872 11.0416 2.67539 12.1333 3.46705 12.9249L7.24205 16.6999C8.79205 18.2499 11.3087 18.2499 12.8671 16.6999L16.5254 13.0416C18.0837 11.4999 18.0837 8.98327 16.5254 7.43327ZM7.91705 10.4999C6.59205 10.4999 5.51705 9.42493 5.51705 8.09994C5.51705 6.77493 6.59205 5.69993 7.91705 5.69993C9.24205 5.69993 10.3171 6.77493 10.3171 8.09994C10.3171 9.42493 9.24205 10.4999 7.91705 10.4999Z" fill="white"/>
</svg>
