<svg width="20" height="20" viewBox="0 0 20 20" fill="none" xmlns="http://www.w3.org/2000/svg">
<path d="M10.0001 18.3332C5.39758 18.3332 1.66675 14.6023 1.66675 9.99984C1.66675 5.39734 5.39758 1.6665 10.0001 1.6665C14.6026 1.6665 18.3334 5.39734 18.3334 9.99984C18.3334 14.6023 14.6026 18.3332 10.0001 18.3332ZM10.0001 17.4998C10.985 17.4998 11.9603 17.3058 12.8702 16.9289C13.7801 16.552 14.6069 15.9996 15.3034 15.3031C15.9998 14.6067 16.5523 13.7799 16.9292 12.87C17.3061 11.96 17.5001 10.9848 17.5001 9.99984C17.5001 9.01492 17.3061 8.03965 16.9292 7.12971C16.5523 6.21977 15.9998 5.39298 15.3034 4.69654C14.6069 4.0001 13.7801 3.44765 12.8702 3.07074C11.9603 2.69383 10.985 2.49984 10.0001 2.49984C8.01096 2.49984 6.1033 3.29001 4.69678 4.69654C3.29026 6.10306 2.50008 8.01071 2.50008 9.99984C2.50008 11.989 3.29026 13.8966 4.69678 15.3031C6.1033 16.7097 8.01096 17.4998 10.0001 17.4998ZM12.6217 7.6215C12.7 7.54327 12.8061 7.49931 12.9167 7.49931C13.0274 7.49931 13.1335 7.54327 13.2117 7.6215C13.29 7.69974 13.3339 7.80586 13.3339 7.9165C13.3339 8.02715 13.29 8.13327 13.2117 8.2115L9.04508 12.3782C9.00638 12.417 8.9604 12.4478 8.90978 12.4688C8.85916 12.4898 8.80489 12.5006 8.75008 12.5006C8.69528 12.5006 8.64101 12.4898 8.59039 12.4688C8.53977 12.4478 8.49379 12.417 8.45508 12.3782L6.78841 10.7115C6.71018 10.6333 6.66622 10.5272 6.66622 10.4165C6.66622 10.3059 6.71018 10.1997 6.78841 10.1215C6.86665 10.0433 6.97277 9.99931 7.08342 9.99931C7.19406 9.99931 7.30018 10.0433 7.37842 10.1215L8.75008 11.494L12.6217 7.6215Z" fill="white"/>
</svg>
