<svg width="20" height="21" viewBox="0 0 20 21" fill="none" xmlns="http://www.w3.org/2000/svg">
<path d="M18.3337 9.76628L18.3337 4.44459C18.3337 3.78544 18.3337 3.45586 18.1719 3.116C18.0796 2.92215 17.8695 2.65847 17.7012 2.52526C17.406 2.2917 17.1597 2.23528 16.667 2.12244C15.9006 1.9469 15.0553 1.84961 14.167 1.84961C12.5694 1.84961 11.1108 2.16431 10.0003 2.68294C8.88988 3.20158 7.43122 3.51628 5.83366 3.51628C4.94539 3.51628 4.10006 3.41899 3.33366 3.24345C2.53368 3.06022 1.66699 3.62389 1.66699 4.44458L1.66699 13.4213C1.66699 14.0804 1.66699 14.41 1.82876 14.7499C1.92102 14.9437 2.13113 15.2074 2.29948 15.3406C2.59465 15.5742 2.84099 15.6306 3.33366 15.7434C4.10006 15.919 4.94539 16.0163 5.83366 16.0163C7.05769 16.0163 8.20019 15.8315 9.16699 15.5119" stroke="white" stroke-width="1.5" stroke-linecap="round"/>
<path d="M12.0837 8.93294C12.0837 10.0835 11.1509 11.0163 10.0003 11.0163C8.84973 11.0163 7.91699 10.0835 7.91699 8.93294C7.91699 7.78235 8.84973 6.84961 10.0003 6.84961C11.1509 6.84961 12.0837 7.78235 12.0837 8.93294Z" stroke="white" stroke-width="1.5"/>
<path d="M4.58398 9.7666L4.58398 9.77409" stroke="white" stroke-width="2" stroke-linecap="round" stroke-linejoin="round"/>
<path d="M15.417 8.09277L15.417 8.10026" stroke="white" stroke-width="2" stroke-linecap="round" stroke-linejoin="round"/>
<path d="M16.1114 11.8496L16.7974 12.4812C16.9467 12.6279 17.0214 12.7013 16.9951 12.7637C16.9689 12.826 16.8633 12.826 16.6521 12.826L14.0651 12.826C12.7406 12.826 11.667 13.8813 11.667 15.1829C11.667 15.4763 11.7215 15.7572 11.8212 16.0163M13.8892 18.5163L13.2032 17.8847C13.0539 17.7379 12.9792 17.6646 13.0055 17.6022C13.0318 17.5398 13.1374 17.5398 13.3486 17.5398H15.9356C17.26 17.5398 18.3337 16.4846 18.3337 15.1829C18.3337 14.8896 18.2791 14.6087 18.1795 14.3496" stroke="white" stroke-width="1.5" stroke-linecap="round" stroke-linejoin="round"/>
</svg>
