<svg width="20" height="20" viewBox="0 0 20 20" fill="none" xmlns="http://www.w3.org/2000/svg">
<path d="M5.78125 8.33301C5.20548 8.33727 4.85901 8.35491 4.58304 8.42798C3.32702 8.76056 2.46711 9.88626 2.50097 11.1536C2.51077 11.5207 2.65051 11.9744 2.93 12.8818C3.60261 15.0655 4.73303 16.9612 7.26537 17.4161C7.73086 17.4997 8.25467 17.4997 9.30228 17.4997L10.6977 17.4997C11.7453 17.4997 12.2691 17.4997 12.7346 17.4161C15.267 16.9612 16.3974 15.0655 17.07 12.8818C17.3495 11.9744 17.4892 11.5207 17.499 11.1536C17.5329 9.88626 16.673 8.76056 15.417 8.42798C15.141 8.35491 14.7945 8.33727 14.2188 8.33301" stroke="#141B34" stroke-width="1.5" stroke-linecap="round"/>
<path d="M9.99992 2.50032L9.99992 11.667M9.99992 2.50032C10.3902 2.50032 10.6869 2.86541 11.2803 3.59558L12.0833 4.58366M9.99992 2.50032C9.60961 2.50032 9.31292 2.86541 8.71955 3.59558L7.91659 4.58366" stroke="#141B34" stroke-width="1.5" stroke-linecap="round" stroke-linejoin="round"/>
</svg>
