<svg width="40" height="40" viewBox="0 0 40 40" fill="none" xmlns="http://www.w3.org/2000/svg">
<path d="M31.2182 20.9216C32.3168 20.2682 33.6734 20.2476 34.7911 20.8681C35.2574 21.127 35.6693 21.5489 36.137 22.0278L36.3489 22.2443L36.3489 22.2443C36.8195 22.7239 37.2308 23.143 37.4821 23.6153C38.0792 24.7377 38.0598 26.0941 37.4303 27.1987C37.1654 27.6636 36.742 28.0704 36.2579 28.5355L36.2579 28.5355L28.941 35.5829C27.971 36.5186 27.2367 37.227 26.2974 37.5939C25.3555 37.9618 24.3406 37.9344 23.007 37.8985L22.5396 37.8862H22.5396C22.3455 37.8813 22.0881 37.8748 21.8642 37.8375C21.5845 37.7908 21.1704 37.6697 20.8364 37.2907C20.5062 36.9159 20.4361 36.4945 20.4207 36.2188C20.4081 35.9931 20.4283 35.7364 20.444 35.5375L20.4817 35.0534C20.5722 33.8823 20.6397 33.0086 20.9879 32.2073C21.3369 31.4039 21.9286 30.7637 22.7181 29.9094L29.9067 22.1209L29.9067 22.1209C30.3604 21.628 30.7598 21.1942 31.2182 20.9216Z" fill="#039855"/>
<path d="M11.2509 10.8334C11.2509 6.00088 15.1684 2.08337 20.0009 2.08337C24.8334 2.08337 28.7509 6.00088 28.7509 10.8334C28.7509 15.6659 24.8334 19.5834 20.0009 19.5834C15.1684 19.5834 11.2509 15.6659 11.2509 10.8334Z" fill="#039855"/>
<path d="M17.9245 36.358L17.9285 36.4221C17.9826 37.2067 18.0097 37.5991 17.8615 37.7579C17.7132 37.9167 17.3921 37.9167 16.7499 37.9167H10.9854C7.95485 37.9167 5.61187 36.4261 3.65946 34.566C2.52776 33.4878 1.96365 32.2744 2.105 30.9813C2.23791 29.7654 2.969 28.7729 3.73844 28.0198C4.96872 26.8156 6.76475 25.8023 7.95278 25.132C8.22378 24.9791 8.46323 24.8441 8.65702 24.7287C10.8318 23.4337 13.2185 22.6152 15.6593 22.2709C17.4324 22.0209 19.2354 22.0209 21.0085 22.2709C21.9984 22.4105 22.9793 22.6282 23.9409 22.9239C24.5571 23.1135 24.8652 23.2083 24.9371 23.4748C25.009 23.7413 24.782 23.9872 24.328 24.4791L20.7689 28.335C20.0713 29.0879 19.2167 30.0102 18.6949 31.2112C18.1757 32.4063 18.0804 33.6609 18.002 34.6926L17.9245 36.358Z" fill="#039855"/>
</svg>
