<svg width="20" height="21" viewBox="0 0 20 21" fill="none" xmlns="http://www.w3.org/2000/svg">
<path d="M10.8334 7.68262L5.83337 7.68262" stroke="#344054" stroke-width="1.5" stroke-linecap="round" stroke-linejoin="round"/>
<path d="M18.3333 9.32457V11.0413C18.3333 11.4996 17.9667 11.8746 17.5 11.8913H15.8667C14.9667 11.8913 14.1417 11.2329 14.0667 10.3329C14.0167 9.80793 14.2167 9.31626 14.5667 8.97459C14.875 8.65792 15.3 8.47461 15.7667 8.47461H17.5C17.9667 8.49128 18.3333 8.86624 18.3333 9.32457Z" stroke="#344054" stroke-width="1.5" stroke-linecap="round" stroke-linejoin="round"/>
<path d="M14.5666 8.9746C14.2166 9.31627 14.0166 9.80794 14.0666 10.3329C14.1416 11.2329 14.9666 11.8913 15.8666 11.8913H17.5V13.0996C17.5 15.5996 15.8333 17.2663 13.3333 17.2663L5.83329 17.2663C3.33329 17.2663 1.66663 15.5996 1.66663 13.0996L1.66663 7.26628C1.66663 4.99961 3.03329 3.41627 5.15829 3.14961C5.37496 3.11627 5.59996 3.09961 5.83329 3.09961L13.3333 3.09961C13.55 3.09961 13.7583 3.10793 13.9583 3.14127C16.1083 3.39127 17.5 4.98294 17.5 7.26628V8.47462H15.7666C15.2999 8.47462 14.8749 8.65793 14.5666 8.9746Z" stroke="#344054" stroke-width="1.5" stroke-linecap="round" stroke-linejoin="round"/>
</svg>
