<svg width="20" height="21" viewBox="0 0 20 21" fill="none" xmlns="http://www.w3.org/2000/svg">
<path d="M18.3329 9.32461V11.0413C18.3329 11.4996 17.9662 11.8746 17.4995 11.8913H15.8662C14.9662 11.8913 14.1412 11.2329 14.0662 10.3329C14.0162 9.80794 14.2162 9.31628 14.5662 8.97461C14.8745 8.65794 15.2995 8.47461 15.7662 8.47461H17.4995C17.9662 8.49128 18.3329 8.86628 18.3329 9.32461Z" fill="white"/>
<path d="M17.0587 13.1413H15.867C14.2837 13.1413 12.9503 11.9496 12.817 10.4329C12.742 9.56628 13.0587 8.69961 13.692 8.08294C14.2253 7.53294 14.967 7.22461 15.767 7.22461H17.0587C17.3003 7.22461 17.5003 7.02461 17.4753 6.78294C17.292 4.75794 15.9503 3.37461 13.9587 3.14128C13.7587 3.10794 13.5503 3.09961 13.3337 3.09961L5.83366 3.09961C5.60033 3.09961 5.37533 3.11628 5.15866 3.14961C3.03366 3.41628 1.66699 4.99961 1.66699 7.26628L1.66699 13.0996C1.66699 15.3996 3.53366 17.2663 5.83366 17.2663L13.3337 17.2663C15.667 17.2663 17.2753 15.8079 17.4753 13.5829C17.5003 13.3413 17.3003 13.1413 17.0587 13.1413ZM10.8337 8.30794L5.83366 8.30794C5.49199 8.30794 5.20866 8.02461 5.20866 7.68294C5.20866 7.34128 5.49199 7.05794 5.83366 7.05794L10.8337 7.05794C11.1753 7.05794 11.4587 7.34128 11.4587 7.68294C11.4587 8.02461 11.1753 8.30794 10.8337 8.30794Z" fill="white"/>
</svg>
