<svg width="16" height="16" viewBox="0 0 16 16" fill="none" xmlns="http://www.w3.org/2000/svg">
<path d="M13.4218 13.2319L9.50926 7.08313L13.3699 2.83625C13.4572 2.73783 13.5022 2.60896 13.4951 2.47758C13.4881 2.3462 13.4295 2.2229 13.3321 2.13441C13.2348 2.04592 13.1064 1.99938 12.975 2.00487C12.8435 2.01036 12.7195 2.06745 12.6299 2.16375L8.95238 6.20875L6.42176 2.23188C6.37663 2.16085 6.31431 2.10236 6.24056 2.06182C6.16682 2.02129 6.08403 2.00003 5.99988 2H2.99988C2.91023 1.99996 2.82222 2.02402 2.74506 2.06966C2.6679 2.11531 2.60443 2.18086 2.5613 2.25945C2.51817 2.33804 2.49697 2.42679 2.49991 2.51639C2.50285 2.60599 2.52982 2.69315 2.57801 2.76875L6.49051 8.91687L2.62988 13.1669C2.5848 13.2153 2.54978 13.2722 2.52684 13.3343C2.50391 13.3963 2.49352 13.4623 2.49629 13.5284C2.49905 13.5945 2.5149 13.6594 2.54293 13.7194C2.57096 13.7793 2.61061 13.8331 2.65958 13.8776C2.70854 13.9221 2.76585 13.9564 2.82819 13.9786C2.89052 14.0008 2.95664 14.0104 3.02271 14.0068C3.08878 14.0033 3.15349 13.9867 3.21308 13.9579C3.27268 13.9292 3.32597 13.8889 3.36988 13.8394L7.04738 9.79438L9.57801 13.7712C9.6235 13.8417 9.68599 13.8996 9.75971 13.9395C9.83343 13.9795 9.91602 14.0003 9.99988 14H12.9999C13.0894 14 13.1773 13.9759 13.2544 13.9303C13.3315 13.8847 13.3949 13.8192 13.438 13.7407C13.4811 13.6622 13.5023 13.5736 13.4995 13.4841C13.4966 13.3946 13.4698 13.3075 13.4218 13.2319ZM10.2743 13L3.91051 3H5.72301L12.0893 13H10.2743Z" fill="#151716"/>
</svg>
