<svg width="343" height="48" viewBox="0 0 343 48" fill="none" xmlns="http://www.w3.org/2000/svg">
<rect x="0.5" y="0.5" width="342" height="47" rx="7.5" fill="white"/>
<rect x="0.5" y="0.5" width="342" height="47" rx="7.5" stroke="#D0D5DD"/>
<g clip-path="url(#clip0_6308_10686)">
<path d="M97.7609 24.1868C97.7609 23.3674 97.6944 22.7695 97.5505 22.1494H88.1938V25.8477H93.686C93.5753 26.7668 92.9774 28.1509 91.6486 29.081L91.63 29.2048L94.5884 31.4967L94.7933 31.5171C96.6757 29.7787 97.7609 27.2208 97.7609 24.1868Z" fill="#4285F4"/>
<path d="M88.1942 33.9312C90.8849 33.9312 93.1437 33.0453 94.7936 31.5173L91.6489 29.0812C90.8074 29.6681 89.6779 30.0777 88.1942 30.0777C85.5588 30.0777 83.3221 28.3393 82.5248 25.9365L82.4079 25.9464L79.3317 28.3271L79.2915 28.439C80.9303 31.6944 84.2965 33.9312 88.1942 33.9312Z" fill="#34A853"/>
<path d="M82.5253 25.9363C82.3149 25.3163 82.1931 24.6518 82.1931 23.9653C82.1931 23.2788 82.3149 22.6144 82.5142 21.9944L82.5086 21.8623L79.3939 19.4434L79.292 19.4918C78.6166 20.8427 78.229 22.3598 78.229 23.9653C78.229 25.5709 78.6166 27.0879 79.292 28.4388L82.5253 25.9363Z" fill="#FBBC05"/>
<path d="M88.1942 17.8534C90.0655 17.8534 91.3278 18.6617 92.0475 19.3372L94.8601 16.5911C93.1327 14.9855 90.8849 14 88.1942 14C84.2965 14 80.9303 16.2367 79.2915 19.4921L82.5137 21.9947C83.3221 19.5918 85.5588 17.8534 88.1942 17.8534Z" fill="#EB4335"/>
</g>
<path d="M117.31 26.2031C117.003 27.0833 116.406 27.7969 115.521 28.3438C114.636 28.8854 113.628 29.1562 112.498 29.1562C111.701 29.1562 110.953 29.0078 110.255 28.7109C109.563 28.4141 108.969 28.0104 108.474 27.5C107.979 26.9844 107.589 26.3698 107.302 25.6562C107.021 24.9375 106.88 24.1745 106.88 23.3672C106.88 22.7266 106.969 22.1146 107.146 21.5312C107.328 20.9479 107.589 20.4219 107.927 19.9531C108.266 19.4844 108.662 19.0755 109.115 18.7266C109.573 18.3776 110.091 18.1094 110.669 17.9219C111.253 17.7344 111.862 17.6406 112.498 17.6406C113.576 17.6406 114.544 17.8906 115.404 18.3906C116.268 18.8906 116.862 19.5417 117.185 20.3438L115.81 21.0156C115.544 20.4427 115.112 19.9844 114.513 19.6406C113.919 19.2969 113.248 19.125 112.498 19.125C111.716 19.125 111.018 19.3099 110.404 19.6797C109.789 20.0495 109.313 20.5573 108.974 21.2031C108.636 21.849 108.466 22.5703 108.466 23.3672C108.466 24.6068 108.841 25.6354 109.591 26.4531C110.347 27.2656 111.315 27.6719 112.498 27.6719C113.289 27.6719 113.995 27.4818 114.615 27.1016C115.24 26.7161 115.675 26.2031 115.919 25.5625L117.31 26.2031ZM122.412 21.0312C123.156 21.0312 123.836 21.2109 124.451 21.5703C125.065 21.9245 125.55 22.4141 125.904 23.0391C126.263 23.6641 126.443 24.3542 126.443 25.1094C126.443 26.25 126.052 27.2109 125.271 27.9922C124.495 28.7682 123.542 29.1562 122.412 29.1562C121.667 29.1562 120.985 28.9792 120.365 28.625C119.75 28.2708 119.266 27.7839 118.912 27.1641C118.557 26.5443 118.38 25.8594 118.38 25.1094C118.38 23.9583 118.768 22.9922 119.544 22.2109C120.32 21.4245 121.276 21.0312 122.412 21.0312ZM122.412 22.4375C121.677 22.4375 121.06 22.6927 120.56 23.2031C120.065 23.7135 119.818 24.349 119.818 25.1094C119.818 25.8542 120.065 26.4818 120.56 26.9922C121.06 27.4974 121.677 27.75 122.412 27.75C123.141 27.75 123.755 27.4948 124.255 26.9844C124.755 26.474 125.005 25.849 125.005 25.1094C125.005 24.349 124.755 23.7135 124.255 23.2031C123.755 22.6927 123.141 22.4375 122.412 22.4375ZM132.06 21.0312C133.065 21.0312 133.86 21.3464 134.443 21.9766C135.031 22.6068 135.326 23.4609 135.326 24.5391V29H133.849V24.6953C133.849 24.013 133.656 23.4661 133.271 23.0547C132.886 22.6432 132.37 22.4375 131.724 22.4375C131.068 22.4375 130.544 22.6432 130.154 23.0547C129.763 23.4661 129.568 24.013 129.568 24.6953V29H128.076V21.1953H129.568V22.5547C129.818 22.0703 130.156 21.6953 130.583 21.4297C131.016 21.1641 131.508 21.0312 132.06 21.0312ZM141.287 27.6406L141.365 28.9375C141.115 29.0417 140.833 29.0938 140.521 29.0938C139.677 29.0938 138.995 28.8385 138.474 28.3281C137.958 27.8125 137.701 27.099 137.701 26.1875V22.6016H136.185V21.1953H137.701V19.0781H139.177V21.1953H141.287V22.6016H139.177V26.1172C139.177 26.612 139.32 27.0026 139.607 27.2891C139.893 27.5755 140.261 27.7188 140.708 27.7188C140.922 27.7188 141.115 27.6927 141.287 27.6406ZM143.623 17.6875C143.888 17.6875 144.12 17.7865 144.318 17.9844C144.516 18.1823 144.615 18.4141 144.615 18.6797C144.615 18.9505 144.516 19.1849 144.318 19.3828C144.12 19.5755 143.888 19.6719 143.623 19.6719C143.347 19.6719 143.112 19.5755 142.919 19.3828C142.727 19.1901 142.63 18.9557 142.63 18.6797C142.63 18.4141 142.727 18.1823 142.919 17.9844C143.117 17.7865 143.352 17.6875 143.623 17.6875ZM142.873 21.1953H144.365V29H142.873V21.1953ZM150.388 21.0312C151.393 21.0312 152.188 21.3464 152.771 21.9766C153.36 22.6068 153.654 23.4609 153.654 24.5391V29H152.177V24.6953C152.177 24.013 151.985 23.4661 151.599 23.0547C151.214 22.6432 150.698 22.4375 150.052 22.4375C149.396 22.4375 148.873 22.6432 148.482 23.0547C148.091 23.4661 147.896 24.013 147.896 24.6953V29H146.404V21.1953H147.896V22.5547C148.146 22.0703 148.485 21.6953 148.912 21.4297C149.344 21.1641 149.836 21.0312 150.388 21.0312ZM161.49 21.1953H162.966V29H161.49V27.625C161.24 28.1146 160.899 28.4922 160.466 28.7578C160.039 29.0234 159.544 29.1562 158.982 29.1562C157.982 29.1562 157.188 28.8438 156.599 28.2188C156.011 27.5885 155.716 26.7396 155.716 25.6719V21.1953H157.208V25.4922C157.208 26.1745 157.399 26.7214 157.779 27.1328C158.164 27.5443 158.677 27.75 159.318 27.75C159.979 27.75 160.505 27.5443 160.896 27.1328C161.292 26.7214 161.49 26.1745 161.49 25.4922V21.1953ZM172.326 24.7578C172.326 24.9036 172.315 25.1068 172.294 25.3672H166.052C166.12 26.1172 166.391 26.7161 166.865 27.1641C167.344 27.6068 167.943 27.8281 168.662 27.8281C169.156 27.8281 169.61 27.724 170.021 27.5156C170.432 27.3073 170.737 27.0286 170.935 26.6797L172.115 27.4453C171.818 27.9766 171.36 28.3958 170.74 28.7031C170.12 29.0052 169.412 29.1562 168.615 29.1562C168.068 29.1562 167.547 29.0521 167.052 28.8438C166.557 28.6354 166.13 28.3516 165.771 27.9922C165.417 27.6276 165.136 27.1927 164.927 26.6875C164.719 26.1771 164.615 25.6354 164.615 25.0625C164.615 24.3229 164.789 23.6458 165.138 23.0312C165.487 22.4115 165.966 21.9245 166.576 21.5703C167.19 21.2109 167.865 21.0312 168.599 21.0312C169.646 21.0312 170.529 21.3906 171.248 22.1094C171.966 22.8281 172.326 23.7109 172.326 24.7578ZM166.115 24.25H170.802C170.755 23.6667 170.521 23.1901 170.099 22.8203C169.677 22.4505 169.156 22.2656 168.537 22.2656C167.922 22.2656 167.399 22.4453 166.966 22.8047C166.534 23.1641 166.25 23.6458 166.115 24.25ZM179.685 29L176.857 21.1953H178.419L180.294 26.7891L182.294 21.1953H183.498L185.529 26.7891L187.38 21.1953H188.966L186.123 29H184.935L182.904 23.3984L180.857 29H179.685ZM190.982 17.6875C191.248 17.6875 191.479 17.7865 191.677 17.9844C191.875 18.1823 191.974 18.4141 191.974 18.6797C191.974 18.9505 191.875 19.1849 191.677 19.3828C191.479 19.5755 191.248 19.6719 190.982 19.6719C190.706 19.6719 190.472 19.5755 190.279 19.3828C190.086 19.1901 189.99 18.9557 189.99 18.6797C189.99 18.4141 190.086 18.1823 190.279 17.9844C190.477 17.7865 190.711 17.6875 190.982 17.6875ZM190.232 21.1953H191.724V29H190.232V21.1953ZM198.052 27.6406L198.13 28.9375C197.88 29.0417 197.599 29.0938 197.287 29.0938C196.443 29.0938 195.761 28.8385 195.24 28.3281C194.724 27.8125 194.466 27.099 194.466 26.1875V22.6016H192.951V21.1953H194.466V19.0781H195.943V21.1953H198.052V22.6016H195.943V26.1172C195.943 26.612 196.086 27.0026 196.373 27.2891C196.659 27.5755 197.026 27.7188 197.474 27.7188C197.688 27.7188 197.88 27.6927 198.052 27.6406ZM203.623 21.0312C204.628 21.0312 205.422 21.3464 206.005 21.9766C206.594 22.6068 206.888 23.4609 206.888 24.5391V29H205.412V24.6953C205.412 24.013 205.219 23.4661 204.833 23.0547C204.448 22.6432 203.932 22.4375 203.287 22.4375C202.63 22.4375 202.107 22.6432 201.716 23.0547C201.326 23.4661 201.13 24.013 201.13 24.6953V29H199.638V17.7969H201.13V22.5547C201.38 22.0703 201.719 21.6953 202.146 21.4297C202.578 21.1641 203.07 21.0312 203.623 21.0312ZM223.263 22.8906C223.305 23.1042 223.326 23.4062 223.326 23.7969C223.326 24.8177 223.091 25.7396 222.623 26.5625C222.154 27.3802 221.508 28.0182 220.685 28.4766C219.867 28.9297 218.956 29.1562 217.951 29.1562C216.904 29.1562 215.951 28.9036 215.091 28.3984C214.232 27.8932 213.557 27.2005 213.068 26.3203C212.578 25.4349 212.333 24.4557 212.333 23.3828C212.333 22.3151 212.578 21.3438 213.068 20.4688C213.557 19.5885 214.232 18.8984 215.091 18.3984C215.951 17.8932 216.904 17.6406 217.951 17.6406C219.029 17.6406 219.998 17.8906 220.857 18.3906C221.722 18.8906 222.315 19.5417 222.638 20.3438L221.263 21.0156C220.998 20.4427 220.565 19.9844 219.966 19.6406C219.373 19.2969 218.701 19.125 217.951 19.125C216.815 19.125 215.86 19.5365 215.083 20.3594C214.307 21.1771 213.919 22.1849 213.919 23.3828C213.919 24.1797 214.097 24.9062 214.451 25.5625C214.805 26.2135 215.297 26.7292 215.927 27.1094C216.563 27.4844 217.268 27.6719 218.044 27.6719C219.024 27.6719 219.862 27.362 220.56 26.7422C221.263 26.1224 221.675 25.3333 221.794 24.375H218.091V22.8906H223.263ZM228.693 21.0312C229.438 21.0312 230.117 21.2109 230.732 21.5703C231.347 21.9245 231.831 22.4141 232.185 23.0391C232.544 23.6641 232.724 24.3542 232.724 25.1094C232.724 26.25 232.333 27.2109 231.552 27.9922C230.776 28.7682 229.823 29.1562 228.693 29.1562C227.948 29.1562 227.266 28.9792 226.646 28.625C226.031 28.2708 225.547 27.7839 225.193 27.1641C224.839 26.5443 224.662 25.8594 224.662 25.1094C224.662 23.9583 225.05 22.9922 225.826 22.2109C226.602 21.4245 227.557 21.0312 228.693 21.0312ZM228.693 22.4375C227.958 22.4375 227.341 22.6927 226.841 23.2031C226.347 23.7135 226.099 24.349 226.099 25.1094C226.099 25.8542 226.347 26.4818 226.841 26.9922C227.341 27.4974 227.958 27.75 228.693 27.75C229.422 27.75 230.037 27.4948 230.537 26.9844C231.037 26.474 231.287 25.849 231.287 25.1094C231.287 24.349 231.037 23.7135 230.537 23.2031C230.037 22.6927 229.422 22.4375 228.693 22.4375ZM237.787 21.0312C238.531 21.0312 239.211 21.2109 239.826 21.5703C240.44 21.9245 240.925 22.4141 241.279 23.0391C241.638 23.6641 241.818 24.3542 241.818 25.1094C241.818 26.25 241.427 27.2109 240.646 27.9922C239.87 28.7682 238.917 29.1562 237.787 29.1562C237.042 29.1562 236.36 28.9792 235.74 28.625C235.125 28.2708 234.641 27.7839 234.287 27.1641C233.932 26.5443 233.755 25.8594 233.755 25.1094C233.755 23.9583 234.143 22.9922 234.919 22.2109C235.695 21.4245 236.651 21.0312 237.787 21.0312ZM237.787 22.4375C237.052 22.4375 236.435 22.6927 235.935 23.2031C235.44 23.7135 235.193 24.349 235.193 25.1094C235.193 25.8542 235.44 26.4818 235.935 26.9922C236.435 27.4974 237.052 27.75 237.787 27.75C238.516 27.75 239.13 27.4948 239.63 26.9844C240.13 26.474 240.38 25.849 240.38 25.1094C240.38 24.349 240.13 23.7135 239.63 23.2031C239.13 22.6927 238.516 22.4375 237.787 22.4375ZM249.615 21.1953H251.091V28.5234C251.091 29.2526 250.909 29.9036 250.544 30.4766C250.185 31.0547 249.695 31.5 249.076 31.8125C248.456 32.125 247.766 32.2812 247.005 32.2812C246.302 32.2812 245.623 32.1615 244.966 31.9219C244.31 31.6823 243.813 31.3594 243.474 30.9531L244.24 29.9453C244.542 30.263 244.938 30.5104 245.427 30.6875C245.917 30.8646 246.443 30.9531 247.005 30.9531C247.698 30.9531 248.305 30.7161 248.826 30.2422C249.352 29.7734 249.615 29.2005 249.615 28.5234V27.2891C249.323 27.8411 248.922 28.2682 248.412 28.5703C247.906 28.8672 247.315 29.0156 246.638 29.0156C245.586 29.0156 244.69 28.6276 243.951 27.8516C243.216 27.0755 242.849 26.1302 242.849 25.0156C242.849 23.9115 243.216 22.9714 243.951 22.1953C244.69 21.4193 245.586 21.0312 246.638 21.0312C247.315 21.0312 247.906 21.1823 248.412 21.4844C248.922 21.7812 249.323 22.2057 249.615 22.7578V21.1953ZM246.943 27.6406C247.714 27.6406 248.352 27.3932 248.857 26.8984C249.362 26.4036 249.615 25.776 249.615 25.0156C249.615 24.2604 249.362 23.638 248.857 23.1484C248.352 22.6536 247.714 22.4062 246.943 22.4062C246.198 22.4062 245.565 22.6615 245.044 23.1719C244.529 23.6771 244.271 24.2917 244.271 25.0156C244.271 25.75 244.529 26.3724 245.044 26.8828C245.565 27.388 246.198 27.6406 246.943 27.6406ZM254.63 17.7969V29H253.138V17.7969H254.63ZM263.779 24.7578C263.779 24.9036 263.768 25.1068 263.748 25.3672H257.505C257.573 26.1172 257.844 26.7161 258.318 27.1641C258.797 27.6068 259.396 27.8281 260.115 27.8281C260.61 27.8281 261.063 27.724 261.474 27.5156C261.886 27.3073 262.19 27.0286 262.388 26.6797L263.568 27.4453C263.271 27.9766 262.813 28.3958 262.193 28.7031C261.573 29.0052 260.865 29.1562 260.068 29.1562C259.521 29.1562 259 29.0521 258.505 28.8438C258.011 28.6354 257.583 28.3516 257.224 27.9922C256.87 27.6276 256.589 27.1927 256.38 26.6875C256.172 26.1771 256.068 25.6354 256.068 25.0625C256.068 24.3229 256.242 23.6458 256.591 23.0312C256.94 22.4115 257.419 21.9245 258.029 21.5703C258.643 21.2109 259.318 21.0312 260.052 21.0312C261.099 21.0312 261.982 21.3906 262.701 22.1094C263.419 22.8281 263.779 23.7109 263.779 24.7578ZM257.568 24.25H262.255C262.208 23.6667 261.974 23.1901 261.552 22.8203C261.13 22.4505 260.61 22.2656 259.99 22.2656C259.375 22.2656 258.852 22.4453 258.419 22.8047C257.987 23.1641 257.703 23.6458 257.568 24.25Z" fill="#212121"/>
<defs>
<clipPath id="clip0_6308_10686">
<rect width="19.542" height="20" fill="white" transform="translate(78.229 14)"/>
</clipPath>
</defs>
</svg>
